<svg width="50" height="48" viewBox="0 0 50 48" fill="none" xmlns="http://www.w3.org/2000/svg">
    <g clip-path="url(#clip0_1350_198)">
    <path d="M84.282 -24.0476H-34.7656V95H84.282V-24.0476Z" fill="black"/>
    <path d="M42.8101 16.7991C40.0573 9.50286 33.003 4.29905 24.7554 4.29905C16.4278 4.29905 9.31634 9.60381 6.6211 17.011C5.69396 17.8991 4.78491 18.8076 3.89062 19.7243C5.71253 9.86334 14.3749 2.37048 24.7549 2.37048C33.6506 2.37048 41.2844 7.87429 44.433 15.6548C44.2106 15.7838 42.8101 16.7991 42.8101 16.7991Z" fill="#FF2B00"/>
    <path d="M6.70146 30.3781C9.45431 37.6743 16.5086 42.8781 24.7562 42.8781C33.0838 42.8781 40.1953 37.5734 42.8905 30.1662C43.8176 29.2781 44.7267 28.3695 45.621 27.4529C43.7991 37.3138 35.1367 44.8072 24.7562 44.8072C15.8605 44.8072 8.2267 39.3034 5.07812 31.5229C5.30146 31.3929 6.70146 30.3781 6.70146 30.3781Z" fill="white"/>
    <path d="M5.46161 24.3147L3.01162 26.7647C2.90019 26.8086 2.78543 26.6857 2.68971 26.6281L2.71685 26.6009C3.23304 26.8724 2.57923 26.1047 2.41209 26.0395C2.24352 25.9038 2.13114 25.9695 2.284 26.1676L2.25685 26.1947C2.194 26.1166 2.14685 26.0395 2.11162 25.9486C2.02638 25.8433 4.40162 23.6543 4.41209 23.5809C4.73828 23.7595 5.0959 24.0162 5.46161 24.3147Z" fill="#FF2B00"/>
    <path d="M1.30083 27.0747C1.39845 26.9747 1.54893 26.9504 1.68464 26.9985L2.47893 26.2042C2.54607 26.2604 2.62464 26.339 2.68083 26.4061L1.88654 27.2004C2.08512 27.9809 0.809878 27.7009 1.30083 27.0747Z" fill="#FF2B00"/>
    <path d="M3.49285 28.8643C3.38475 28.8557 3.29333 28.7791 3.20475 28.7153L3.2319 28.6881C3.74523 28.9619 3.10428 28.2038 2.93952 28.1353C2.77523 28.0029 2.63571 28.0395 2.79856 28.2553L2.77142 28.2824C2.70999 28.1915 2.5938 28.0753 2.63285 27.9629L5.89761 24.6981C6.20618 24.9781 6.50856 25.2815 6.79142 25.5876C6.75952 25.5976 3.53475 28.8834 3.49285 28.8643Z" fill="#FF2B00"/>
    <path d="M2.41233 29.3224C2.52709 29.6714 2.06328 29.9338 1.81709 29.6738C1.54328 29.4114 1.84518 28.9395 2.2009 29.0866L2.99518 28.2924C3.06233 28.3485 3.1409 28.4271 3.19709 28.4943L2.4028 29.2886L2.41233 29.3224Z" fill="#FF2B00"/>
    <path d="M4.71185 28.51C4.70042 28.4604 7.16327 26.0585 7.17851 26.0223C7.47899 26.3819 7.73375 26.7371 7.92089 27.0633L5.61613 29.3681C5.5047 29.4142 5.38994 29.2876 5.29423 29.2314L5.32137 29.2042C6.07185 29.5842 4.51756 28.0247 4.88803 28.7709L4.86089 28.7981C4.79899 28.7214 4.74994 28.6423 4.71803 28.5542C4.71184 28.5352 4.70947 28.5204 4.71185 28.51Z" fill="#FF2B00"/>
    <path d="M4.49826 29.8376C4.61303 30.1862 4.14922 30.4495 3.90303 30.189C3.62922 29.9267 3.93112 29.4548 4.28684 29.6019L5.08112 28.8076C5.14826 28.8638 5.22684 28.9424 5.28255 29.009L4.48826 29.8033L4.49826 29.8376Z" fill="#FF2B00"/>
    <path d="M22.4738 16.6776C17.2023 19.2785 13.1566 23.5514 9.45186 27.8366C9.33853 27.9671 9.2271 28.0995 9.11567 28.2276C9.019 28.2905 8.90757 28.3305 8.78757 28.3452C8.66138 28.3662 8.52662 28.3538 8.38995 28.3052C8.18614 28.2314 7.96329 28.1224 7.69805 28.0086C8.01329 28.0462 8.24472 28.0295 8.40853 27.9666C9.26662 27.6343 8.21281 26.0219 6.85662 24.6781C5.51281 23.3219 3.90043 22.2686 3.56805 23.1262C3.50519 23.29 3.48805 23.5214 3.52615 23.8371C3.41281 23.5724 3.30329 23.3495 3.22948 23.1452C3.18091 23.0085 3.16853 22.8738 3.18948 22.7476C3.19805 22.6676 3.219 22.5919 3.25234 22.5247C3.38472 22.3838 3.5171 22.2428 3.65376 22.1019C9.65281 15.8381 16.2133 9.50474 24.878 8.00141C35.1033 7.00665 39.2585 16.5109 32.6119 23.9357C34.9109 14.0262 27.6357 14.2662 22.4738 16.6776Z" fill="white"/>
    <path d="M44.0547 22.8623L46.5047 20.4123C46.6161 20.3685 46.7309 20.4914 46.8266 20.549L46.7995 20.5761C46.2833 20.3047 46.9371 21.0723 47.1042 21.1376C47.2728 21.2733 47.3852 21.2076 47.2323 21.0095L47.2595 20.9823C47.3223 21.0604 47.3695 21.1376 47.4047 21.2285C47.4899 21.3338 45.1147 23.5228 45.1042 23.5961C44.778 23.4176 44.4204 23.1609 44.0547 22.8623Z" fill="white"/>
    <path d="M48.2159 20.1024C48.1183 20.2024 47.9678 20.2267 47.8321 20.1786L47.0378 20.9728C46.9707 20.9167 46.8921 20.8381 46.8359 20.7709L47.6302 19.9767C47.4317 19.1957 48.7069 19.4762 48.2159 20.1024Z" fill="white"/>
    <path d="M46.0251 18.3128C46.1332 18.3214 46.2247 18.3981 46.3132 18.4619L46.2861 18.489C45.7728 18.2152 46.4137 18.9733 46.5785 19.0419C46.7428 19.1743 46.8823 19.1376 46.7194 18.9219L46.7466 18.8947C46.808 18.9857 46.9242 19.1019 46.8851 19.2143L43.6204 22.479C43.3118 22.199 43.0094 21.8957 42.7266 21.5895C42.7585 21.5795 45.9832 18.2938 46.0251 18.3128Z" fill="white"/>
    <path d="M47.1051 17.8547C46.9903 17.5057 47.4541 17.2433 47.7003 17.5033C47.9741 17.7657 47.6722 18.2376 47.3165 18.0904L46.5222 18.8847C46.4551 18.8285 46.3765 18.75 46.3203 18.6828L47.1146 17.8885L47.1051 17.8547Z" fill="white"/>
    <path d="M44.8028 18.6671C44.8142 18.7166 42.3514 21.1185 42.3361 21.1547C42.0357 20.7952 41.7809 20.44 41.5938 20.1138L43.8985 17.809C44.0099 17.7628 44.1247 17.8895 44.2204 17.9457L44.1933 17.9728C43.4428 17.5928 44.9971 19.1523 44.6266 18.4062L44.6538 18.379C44.7157 18.4557 44.7647 18.5347 44.7966 18.6228C44.8028 18.6419 44.8052 18.6566 44.8028 18.6671Z" fill="white"/>
    <path d="M45.0187 17.3395C44.9039 16.9909 45.3677 16.7276 45.6139 16.988C45.8877 17.2504 45.5858 17.7223 45.2301 17.5752L44.4358 18.3695C44.3687 18.3133 44.2901 18.2347 44.2344 18.168L45.0287 17.3738L45.0187 17.3395Z" fill="white"/>
    <path d="M27.0391 30.4994C32.3106 27.8985 36.3563 23.6256 40.061 19.3404C40.1744 19.2099 40.2858 19.0775 40.3972 18.9494C40.4939 18.8866 40.6053 18.8466 40.7253 18.8318C40.8515 18.8109 40.9863 18.8232 41.1229 18.8718C41.3268 18.9456 41.5496 19.0547 41.8149 19.1685C41.4996 19.1309 41.2682 19.1475 41.1044 19.2104C40.2463 19.5428 41.3001 21.1551 42.6563 22.499C44.0001 23.8551 45.6125 24.9085 45.9449 24.0509C46.0077 23.8871 46.0249 23.6556 45.9868 23.3399C46.1001 23.6047 46.2096 23.8275 46.2834 24.0318C46.332 24.1685 46.3444 24.3032 46.3234 24.4294C46.3149 24.5094 46.2939 24.5851 46.2606 24.6523C46.1282 24.7932 45.9958 24.9342 45.8591 25.0751C39.8601 31.339 33.2996 37.6723 24.6349 39.1756C14.4096 40.1704 10.2544 30.6661 16.901 23.2413C14.602 33.1509 21.8772 32.9109 27.0391 30.4994Z" fill="#FF2B00"/>
    </g>
    <defs>
    <clipPath id="clip0_1350_198">
    <rect width="50" height="47.381" fill="white"/>
    </clipPath>
    </defs>
    </svg>
    