<svg width="56" height="50" viewBox="0 0 56 50" fill="none" xmlns="http://www.w3.org/2000/svg">
    <path d="M49.0357 17.0001C45.7922 8.40356 37.4807 2.27229 27.7631 2.27229C17.9513 2.27229 9.57241 8.5225 6.39681 17.2498C5.30442 18.2962 4.23336 19.3667 3.17969 20.4467C5.3263 8.82829 15.5326 0 27.7625 0C38.2437 0 47.2381 6.48473 50.9478 15.6519C50.6858 15.8039 49.0357 17.0001 49.0357 17.0001Z" fill="#FF2B00"/>
    <path d="M6.49078 32.9993C9.73427 41.5959 18.0458 47.7272 27.7634 47.7272C37.5752 47.7272 45.9541 41.4769 49.1297 32.7497C50.2221 31.7033 51.2931 30.6328 52.3468 29.5527C50.2002 41.1712 39.9939 50 27.7634 50C17.2822 50 8.28786 43.5153 4.57812 34.3481C4.84126 34.1949 6.49078 32.9993 6.49078 32.9993Z" fill="white"/>
    <path d="M5.03564 25.8553L2.14898 28.742C2.01769 28.7936 1.88248 28.6488 1.76971 28.5809L1.80169 28.549C2.40988 28.8688 1.63954 27.9643 1.44261 27.8875C1.24399 27.7276 1.11158 27.805 1.29168 28.0384L1.2597 28.0704C1.18564 27.9784 1.1301 27.8875 1.08858 27.7803C0.988147 27.6563 3.78672 25.0771 3.79906 24.9907C4.18339 25.2011 4.60474 25.5035 5.03564 25.8553Z" fill="#FF2B00"/>
    <path d="M0.133529 29.1073C0.248547 28.9895 0.425842 28.9608 0.585744 29.0175L1.52159 28.0817C1.6007 28.1479 1.69328 28.2404 1.75948 28.3196L0.823633 29.2554C1.0576 30.175 -0.444924 29.8451 0.133529 29.1073Z" fill="#FF2B00"/>
    <path d="M2.72565 31.2158C2.59829 31.2057 2.49056 31.1154 2.38621 31.0402L2.41819 31.0083C3.02301 31.3309 2.26782 30.4377 2.0737 30.3569C1.88013 30.2009 1.71574 30.2441 1.90762 30.4983L1.87564 30.5302C1.80327 30.4231 1.66637 30.2862 1.71237 30.1538L5.559 26.3071C5.92257 26.637 6.27884 26.9944 6.61211 27.3552C6.57452 27.367 2.77502 31.2383 2.72565 31.2158Z" fill="#FF2B00"/>
    <path d="M1.44358 31.7554C1.5788 32.1667 1.03233 32.4758 0.742258 32.1695C0.419648 31.8604 0.77536 31.3043 1.19447 31.4777L2.13032 30.5419C2.20943 30.6081 2.302 30.7006 2.36821 30.7798L1.43236 31.7156L1.44358 31.7554Z" fill="#FF2B00"/>
    <path d="M4.14951 30.7983C4.13604 30.7399 7.03785 27.91 7.0558 27.8673C7.40983 28.2909 7.70999 28.7095 7.93049 29.0938L5.21496 31.8093C5.08367 31.8637 4.94846 31.7145 4.83568 31.6483L4.86766 31.6163C5.7519 32.064 3.92059 30.2266 4.3571 31.1057L4.32512 31.1377C4.25218 31.0474 4.19439 30.9543 4.1568 30.8505C4.14951 30.828 4.1467 30.8106 4.14951 30.7983Z" fill="#FF2B00"/>
    <path d="M3.90452 32.3625C4.03974 32.7732 3.49326 33.0835 3.2032 32.7766C2.88059 32.4674 3.2363 31.9114 3.65541 32.0848L4.59126 31.1489C4.67037 31.2151 4.76295 31.3077 4.82859 31.3863L3.89274 32.3221L3.90452 32.3625Z" fill="#FF2B00"/>
    <path d="M25.0844 16.8571C18.8734 19.9216 14.1067 24.956 9.7416 30.005C9.60807 30.1588 9.47678 30.3147 9.3455 30.4657C9.2316 30.5397 9.10031 30.5868 8.95892 30.6042C8.81024 30.6289 8.65146 30.6143 8.49044 30.5571C8.2503 30.4701 7.98773 30.3417 7.67522 30.2076C8.04664 30.2519 8.31931 30.2323 8.51232 30.1582C9.52335 29.7666 8.28173 27.8668 6.68383 26.2835C5.10051 24.6856 3.20076 23.4445 2.80914 24.455C2.73508 24.648 2.71488 24.9207 2.75977 25.2927C2.62624 24.9807 2.49719 24.7182 2.41023 24.4775C2.353 24.3164 2.33841 24.1577 2.3631 24.009C2.3732 23.9147 2.39788 23.8255 2.43716 23.7464C2.59313 23.5803 2.74911 23.4142 2.91013 23.2482C9.97837 15.868 17.7081 8.40588 27.9172 6.63462C39.9648 5.46256 44.8606 16.6608 37.0293 25.4088C39.7381 13.7332 31.1663 14.0159 25.0844 16.8571Z" fill="white"/>
    <path d="M50.5078 24.1441L53.3945 21.2575C53.5258 21.2059 53.661 21.3506 53.7737 21.4185L53.7418 21.4505C53.1336 21.1307 53.9039 22.0351 54.1008 22.112C54.2995 22.2719 54.4319 22.1945 54.2518 21.9611L54.2838 21.9291C54.3578 22.0211 54.4134 22.112 54.4549 22.2191C54.5553 22.3431 51.7567 24.9223 51.7444 25.0087C51.3601 24.7983 50.9387 24.4959 50.5078 24.1441Z" fill="white"/>
    <path d="M55.4072 20.8922C55.2922 21.01 55.1149 21.0386 54.955 20.9819L54.0191 21.9178C53.94 21.8516 53.8475 21.759 53.7812 21.6799L54.7171 20.744C54.4831 19.8239 55.9857 20.1544 55.4072 20.8922Z" fill="white"/>
    <path d="M52.824 18.7837C52.9513 18.7938 53.059 18.8841 53.1634 18.9593L53.1314 18.9913C52.5266 18.6686 53.2818 19.5619 53.4759 19.6426C53.6695 19.7986 53.8339 19.7554 53.642 19.5013L53.674 19.4693C53.7464 19.5764 53.8832 19.7133 53.8372 19.8458L49.9906 23.6924C49.627 23.3625 49.2708 23.0051 48.9375 22.6443C48.9751 22.6325 52.7746 18.7612 52.824 18.7837Z" fill="white"/>
    <path d="M54.0965 18.244C53.9613 17.8327 54.5078 17.5236 54.7978 17.8299C55.1204 18.139 54.7647 18.695 54.3456 18.5217L53.4098 19.4575C53.3307 19.3913 53.2381 19.2988 53.1719 19.2196L54.1077 18.2838L54.0965 18.244Z" fill="white"/>
    <path d="M51.3904 19.2012C51.4038 19.2596 48.502 22.0895 48.4841 22.1322C48.13 21.7086 47.8299 21.29 47.6094 20.9057L50.3249 18.1902C50.4562 18.1358 50.5914 18.285 50.7042 18.3512L50.6722 18.3832C49.788 17.9355 51.6193 19.7729 51.1828 18.8937L51.2147 18.8618C51.2877 18.9521 51.3455 19.0452 51.3831 19.149C51.3904 19.1715 51.3932 19.1889 51.3904 19.2012Z" fill="white"/>
    <path d="M51.6428 17.6369C51.5076 17.2262 52.0541 16.916 52.3441 17.2229C52.6668 17.532 52.311 18.088 51.8919 17.9147L50.9561 18.8505C50.877 18.7843 50.7844 18.6917 50.7188 18.6132L51.6546 17.6773L51.6428 17.6369Z" fill="white"/>
    <path d="M30.4592 33.1424C36.6702 30.0779 41.4369 25.0435 45.802 19.9945C45.9355 19.8408 46.0668 19.6848 46.1981 19.5339C46.312 19.4598 46.4433 19.4127 46.5847 19.3953C46.7333 19.3706 46.8921 19.3852 47.0531 19.4425C47.2933 19.5294 47.5558 19.6579 47.8684 19.792C47.4969 19.7477 47.2243 19.7673 47.0313 19.8414C46.0202 20.233 47.2618 22.1327 48.8597 23.7161C50.4431 25.314 52.3428 26.555 52.7344 25.5445C52.8085 25.3515 52.8287 25.0789 52.7838 24.7069C52.9173 25.0188 53.0464 25.2814 53.1333 25.5221C53.1906 25.6831 53.2052 25.8419 53.1805 25.9906C53.1704 26.0848 53.1457 26.1741 53.1064 26.2532C52.9504 26.4192 52.7945 26.5853 52.6334 26.7514C45.5652 34.1316 37.8355 41.5937 27.6264 43.3649C15.5788 44.537 10.683 33.3388 18.5142 24.5907C15.8054 36.2664 24.3773 35.9836 30.4592 33.1424Z" fill="#FF2B00"/>
    </svg>
    