<svg width="100" height="100" viewBox="0 0 100 100" fill="none" xmlns="http://www.w3.org/2000/svg">
    <g clip-path="url(#clip0_1205_2416)">
    <path d="M32.489 5.92654C32.3439 6.07159 32.2288 6.24381 32.1502 6.43337C32.0717 6.62292 32.0313 6.8261 32.0312 7.03128C32.0313 7.23646 32.0717 7.43964 32.1502 7.62919C32.2288 7.81875 32.3439 7.99097 32.489 8.13602L41.2522 16.8993C41.88 16.0615 42.624 15.3176 43.4618 14.6899L34.6985 5.92651C34.5534 5.78139 34.3812 5.66626 34.1916 5.58772C34.0021 5.50917 33.7989 5.46875 33.5937 5.46875C33.3886 5.46875 33.1854 5.50918 32.9958 5.58773C32.8063 5.66628 32.6341 5.78141 32.489 5.92654Z" fill="white"/>
    <path d="M61.3972 10.6138L56.9844 15.0267C57.7904 15.6967 58.4968 16.4783 59.0822 17.3478L63.6066 12.8233C63.7517 12.6782 63.8668 12.506 63.9453 12.3165C64.0238 12.1269 64.0642 11.9237 64.0642 11.7186C64.0642 11.5134 64.0238 11.3103 63.9453 11.1207C63.8668 10.9312 63.7517 10.7589 63.6067 10.6139C63.4616 10.4688 63.2894 10.3537 63.0998 10.2752C62.9103 10.1967 62.7071 10.1563 62.5019 10.1563C62.2968 10.1562 62.0936 10.1967 61.9041 10.2752C61.7145 10.3537 61.5423 10.4687 61.3972 10.6138Z" fill="white"/>
    <path d="M2.28636 23.566C1.54105 24.3193 0.954747 25.2148 0.562289 26.1991C0.169831 27.1834 -0.0207751 28.2366 0.00179369 29.2961L0.00217651 86.3674C0.105552 90.7165 4.22004 94.5312 8.80754 94.5312H91.8496C94.0141 94.5129 96.084 93.6414 97.6096 92.1059C99.1352 90.5704 99.9934 88.495 99.9977 86.3304L99.9974 29.3323C100.023 28.2669 99.8344 27.2072 99.4418 26.2165C99.0491 25.2258 98.4608 24.3243 97.712 23.566C96.9473 22.7862 96.0353 22.166 95.0289 21.7416C94.0225 21.3172 92.9419 21.097 91.8496 21.0937H57.4471C56.9496 19.5081 55.959 18.1226 54.6196 17.139C53.2801 16.1554 51.6616 15.625 49.9998 15.625C48.3379 15.625 46.7195 16.1554 45.38 17.139C44.0405 18.1226 43.0499 19.5081 42.5525 21.0937H8.14913C7.05685 21.0969 5.97608 21.3171 4.96962 21.7415C3.96316 22.1659 3.05107 22.7861 2.28636 23.566ZM49.9997 18.75C50.8213 18.7507 51.6283 18.9676 52.3394 19.379C53.0506 19.7904 53.6409 20.3818 54.051 21.0937H45.9484C46.3586 20.3818 46.9489 19.7905 47.6601 19.379C48.3712 18.9676 49.1781 18.7507 49.9997 18.75ZM91.8496 24.2187C92.5255 24.221 93.1942 24.3575 93.8168 24.6204C94.4394 24.8832 95.0036 25.2672 95.4766 25.75C95.9366 26.2162 96.2975 26.7708 96.5374 27.3802C96.7774 27.9897 96.8915 28.6414 96.8728 29.2961L96.8732 86.2927C96.8761 87.6342 96.3506 88.923 95.4104 89.88C94.4703 90.837 93.191 91.3853 91.8496 91.4062H8.80754C5.89769 91.4062 3.18968 88.9694 3.12675 86.3304L3.12636 29.2595C3.11112 28.6107 3.22684 27.9656 3.4666 27.3626C3.70636 26.7596 4.06523 26.2111 4.52178 25.75C4.9948 25.2672 5.55906 24.8832 6.18176 24.6203C6.80447 24.3574 7.47321 24.2209 8.14912 24.2187H91.8496Z" fill="white"/>
    <path d="M6.25 31.543V84.082C6.25544 85.1996 6.70394 86.2693 7.4971 87.0565C8.29027 87.8437 9.36332 88.2842 10.4808 88.2813H76.2391C77.3564 88.2839 78.4291 87.8433 79.2219 87.0561C80.0147 86.2689 80.4628 85.1993 80.468 84.082V31.543C80.4628 30.4257 80.0147 29.3562 79.2219 28.5689C78.4291 27.7817 77.3564 27.3411 76.2391 27.3438H10.4808C9.36332 27.3408 8.29027 27.7813 7.4971 28.5685C6.70394 29.3558 6.25544 30.4255 6.25 31.543ZM9.375 31.543C9.37953 31.254 9.49849 30.9786 9.7058 30.7772C9.91312 30.5758 10.1918 30.4649 10.4808 30.4688H76.2391C76.5279 30.4652 76.8062 30.5762 77.0132 30.7776C77.2202 30.979 77.3388 31.2542 77.3431 31.543V84.082C77.3388 84.3708 77.2202 84.646 77.0132 84.8474C76.8062 85.0488 76.5279 85.1599 76.2391 85.1563H10.4808C10.1918 85.1601 9.91312 85.0492 9.7058 84.8478C9.49849 84.6464 9.37953 84.371 9.375 84.082V31.543Z" fill="white"/>
    <path d="M35.7969 50.7813C34.8698 50.7812 33.9635 51.0562 33.1927 51.5712C32.4218 52.0863 31.821 52.8184 31.4662 53.6749C31.1114 54.5314 31.0186 55.4739 31.1994 56.3832C31.3803 57.2925 31.8267 58.1277 32.4823 58.7833C33.1379 59.4389 33.9731 59.8853 34.8824 60.0662C35.7917 60.247 36.7342 60.1542 37.5907 59.7994C38.4472 59.4447 39.1793 58.8438 39.6944 58.073C40.2095 57.3021 40.4844 56.3959 40.4844 55.4688C40.483 54.226 39.9887 53.0345 39.11 52.1557C38.2312 51.2769 37.0397 50.7826 35.7969 50.7813ZM35.7969 57.0312C35.4879 57.0312 35.1858 56.9396 34.9288 56.7679C34.6719 56.5962 34.4716 56.3522 34.3534 56.0667C34.2351 55.7812 34.2042 55.467 34.2644 55.1639C34.3247 54.8608 34.4735 54.5824 34.6921 54.3639C34.9106 54.1454 35.189 53.9966 35.4921 53.9363C35.7952 53.876 36.1094 53.9069 36.3949 54.0252C36.6804 54.1435 36.9244 54.3437 37.0961 54.6007C37.2678 54.8576 37.3594 55.1597 37.3594 55.4688C37.359 55.883 37.1943 56.2802 36.9013 56.5732C36.6084 56.8661 36.2112 57.0309 35.7969 57.0312Z" fill="white"/>
    <path d="M51.4218 60.1562C52.3489 60.1563 53.2552 59.8813 54.0261 59.3663C54.7969 58.8512 55.3978 58.1191 55.7525 57.2626C56.1073 56.4061 56.2002 55.4636 56.0193 54.5543C55.8384 53.645 55.392 52.8098 54.7365 52.1542C54.0809 51.4986 53.2457 51.0522 52.3364 50.8713C51.4271 50.6905 50.4846 50.7833 49.6281 51.1381C48.7715 51.4928 48.0394 52.0937 47.5244 52.8645C47.0093 53.6354 46.7344 54.5416 46.7344 55.4688C46.7357 56.7115 47.23 57.903 48.1088 58.7818C48.9876 59.6606 50.179 60.1549 51.4218 60.1562ZM51.4218 53.9063C51.7309 53.9063 52.033 53.9979 52.2899 54.1696C52.5469 54.3413 52.7471 54.5853 52.8654 54.8708C52.9837 55.1563 53.0146 55.4705 52.9543 55.7736C52.894 56.0767 52.7452 56.3551 52.5267 56.5736C52.3082 56.7921 52.0298 56.9409 51.7267 57.0012C51.4236 57.0615 51.1094 57.0306 50.8239 56.9123C50.5384 56.794 50.2943 56.5938 50.1227 56.3368C49.951 56.0799 49.8593 55.7778 49.8593 55.4688C49.8597 55.0545 50.0245 54.6573 50.3174 54.3644C50.6104 54.0714 51.0076 53.9067 51.4218 53.9063Z" fill="white"/>
    <path d="M42.5245 62.5C41.9667 62.5 41.419 62.6493 40.9384 62.9325C40.4577 63.2156 40.0617 63.6223 39.7913 64.1102C39.5209 64.5981 39.386 65.1495 39.4007 65.7072C39.4154 66.2648 39.5791 66.8083 39.8748 67.2813L40.962 69.0208C41.1696 69.3535 41.4379 69.6442 41.7529 69.8778C41.6509 70.0719 41.5216 70.2504 41.369 70.4079C40.9265 70.8466 40.3286 71.0928 39.7055 71.0928C39.0823 71.0928 38.4844 70.8466 38.0419 70.4079C37.8965 70.2627 37.7239 70.1476 37.534 70.0691C37.3441 69.9907 37.1406 69.9505 36.9351 69.9508C36.7297 69.9512 36.5263 69.992 36.3366 70.071C36.1469 70.1501 35.9747 70.2657 35.8298 70.4114C35.6849 70.557 35.5701 70.7299 35.4921 70.9199C35.4141 71.11 35.3743 71.3136 35.375 71.5191C35.3757 71.7245 35.417 71.9278 35.4964 72.1173C35.5758 72.3068 35.6918 72.4788 35.8378 72.6234C36.8674 73.6433 38.2582 74.2151 39.7074 74.2145C41.1566 74.214 42.547 73.641 43.5758 72.6204C43.5885 72.6077 43.5991 72.5936 43.6116 72.5809C43.6251 72.5946 43.6366 72.6098 43.6502 72.6234C44.6793 73.643 46.0693 74.2149 47.5179 74.2149C48.9665 74.2149 50.3565 73.643 51.3856 72.6234C51.679 72.3311 51.8444 71.9341 51.8454 71.5199C51.8463 71.1057 51.6827 70.708 51.3905 70.4143C51.0984 70.1206 50.7016 69.955 50.2873 69.9538C49.8731 69.9526 49.4753 70.1159 49.1814 70.4079C48.7393 70.846 48.1422 71.092 47.5198 71.0926C46.8974 71.0932 46.2999 70.8482 45.857 70.4109C45.7035 70.2525 45.5734 70.0729 45.4707 69.8777C45.7855 69.644 46.0537 69.3534 46.2613 69.0208L47.3485 67.2813C47.6442 66.8083 47.8079 66.2648 47.8226 65.7071C47.8373 65.1495 47.7024 64.5981 47.432 64.1102C47.1616 63.6223 46.7656 63.2156 46.2849 62.9325C45.8043 62.6493 45.2566 62.5 44.6988 62.5H42.5245ZM43.6159 67.3702L43.6117 67.3645L42.5245 65.625H44.6988L43.6159 67.3702Z" fill="white"/>
    <path d="M61.7889 70.162C61.7088 70.1759 61.6291 70.1814 61.5493 70.191C57.8273 75.4167 51.179 78.906 43.6094 78.906C36.0248 78.906 29.3647 75.4032 25.6469 70.1604C25.1488 70.243 24.6406 70.2436 24.1424 70.162C23.4395 70.0896 22.7295 70.138 22.043 70.3052C26.057 77.258 34.214 82.031 43.6094 82.031C52.8425 82.031 60.8827 77.4232 64.9675 70.6653C63.9663 70.2359 62.8738 70.0629 61.7889 70.162Z" fill="white"/>
    <path d="M25.9129 50.5756C25.9266 50.5573 25.9325 50.5348 25.9453 50.516C25.9578 50.4986 25.9746 50.4861 25.9865 50.4681C26.0247 50.4105 26.9528 49.0471 29.4434 49.2149C29.6481 49.229 29.8535 49.2025 30.048 49.1372C30.2425 49.0718 30.4222 48.9688 30.5768 48.8339C30.7315 48.6991 30.8581 48.5351 30.9493 48.3514C31.0406 48.1677 31.0948 47.9677 31.1089 47.7631C31.1229 47.5584 31.0964 47.3529 31.0311 47.1584C30.9657 46.964 30.8627 46.7843 30.7278 46.6296C30.593 46.475 30.4291 46.3484 30.2453 46.2571C30.0616 46.1658 29.8616 46.1116 29.657 46.0976C28.5671 46.0107 27.4711 46.1474 26.436 46.4992L27.0809 36.8088C27.0855 36.7394 27.1202 36.7233 27.1397 36.7233L27.15 36.7256L36.1514 42.2863C36.3327 42.545 36.5881 42.7427 36.884 42.8535C37.1799 42.9642 37.5023 42.9827 37.8089 42.9066C41.6205 41.9636 45.6045 41.9636 49.4161 42.9066C49.7228 42.9829 50.0453 42.9645 50.3413 42.8537C50.6372 42.7429 50.8925 42.5449 51.0736 42.2859L60.085 36.7188C60.0873 36.7188 60.1384 36.7237 60.1441 36.8088L60.7908 46.5245C59.725 46.1515 58.5929 46.0061 57.4674 46.0976C57.2624 46.1111 57.062 46.165 56.8778 46.2561C56.6936 46.3472 56.5292 46.4737 56.394 46.6284C56.2588 46.7832 56.1554 46.9631 56.0898 47.1578C56.0242 47.3525 55.9977 47.5583 56.0117 47.7633C56.0258 47.9683 56.0801 48.1686 56.1717 48.3525C56.2632 48.5365 56.3901 48.7006 56.5452 48.8354C56.7003 48.9703 56.8804 49.0732 57.0753 49.1383C57.2702 49.2035 57.4761 49.2295 57.681 49.2149C60.1777 49.0494 61.1939 50.4097 61.2622 50.5051C61.2713 50.5187 61.2841 50.5281 61.2936 50.5414C61.3012 50.5521 61.3043 50.5651 61.3122 50.5756C62.2456 51.8271 63.0063 53.1985 63.5738 54.6529C64.6127 54.3999 65.6739 54.2496 66.7421 54.2039C66.1066 52.3808 65.2146 50.6575 64.0931 49.086L63.2623 36.6013C63.2293 36.0461 63.0522 35.5092 62.7484 35.0435C62.4445 34.5777 62.0244 34.1993 61.5296 33.9455C61.0474 33.6948 60.5081 33.5742 59.965 33.5954C59.4219 33.6167 58.8937 33.7792 58.4325 34.0668L49.3433 39.682C45.5658 38.871 41.6593 38.871 37.8818 39.682L28.7926 34.0668C28.3315 33.779 27.8033 33.6164 27.2601 33.5952C26.717 33.5739 26.1777 33.6946 25.6955 33.9455C25.2007 34.1993 24.7806 34.5777 24.4768 35.0435C24.1729 35.5092 23.9958 36.0461 23.9629 36.6013L23.132 49.086C21.9885 50.6867 21.0835 52.4449 20.4453 54.3057C21.4909 54.433 22.5222 54.6584 23.5256 54.9789C24.1041 53.4033 24.9082 51.9201 25.9129 50.5756Z" fill="white"/>
    <path d="M14.9238 61.2025C16.2568 60.6278 17.7038 60.3668 19.1535 60.4396C20.6032 60.5123 22.0169 60.9169 23.2856 61.6221C23.6371 61.84 24.0607 61.9096 24.4635 61.8157C24.8663 61.7217 25.2154 61.4719 25.4343 61.121C25.6532 60.7702 25.724 60.3468 25.6313 59.9437C25.5386 59.5407 25.2898 59.1908 24.9396 58.9709C23.2368 58 21.3317 57.4379 19.3746 57.3291C17.4175 57.2203 15.4619 57.5676 13.6619 58.3437C13.2829 58.5111 12.9858 58.8222 12.836 59.2085C12.6863 59.5949 12.6962 60.025 12.8635 60.4041C13.0309 60.7832 13.3419 61.0802 13.7283 61.23C14.1147 61.3797 14.5448 61.3698 14.9238 61.2025Z" fill="white"/>
    <path d="M60.7685 63.9969C60.3618 64.0683 59.9999 64.2979 59.762 64.6355C59.524 64.973 59.4294 65.391 59.4988 65.7981C59.5681 66.2052 59.7959 66.5683 60.1322 66.808C60.4684 67.0477 60.886 67.1445 61.2934 67.0772C62.7348 66.9054 64.1965 67.0668 65.5657 67.5491C66.9348 68.0314 68.175 68.8216 69.1905 69.8589C69.3326 70.0075 69.5026 70.1265 69.6908 70.2093C69.879 70.292 70.0817 70.3368 70.2872 70.3411C70.4928 70.3453 70.6971 70.309 70.8886 70.2341C71.0801 70.1593 71.2549 70.0473 71.403 69.9048C71.5511 69.7622 71.6697 69.5918 71.7518 69.4034C71.834 69.2149 71.8781 69.0121 71.8817 68.8066C71.8853 68.601 71.8484 68.3968 71.7729 68.2055C71.6974 68.0143 71.585 67.8398 71.4419 67.6922C70.0706 66.2916 68.3927 65.2287 66.5404 64.5874C64.6882 63.9462 62.7123 63.744 60.7685 63.9969Z" fill="white"/>
    <path d="M60.5083 61.125C60.6172 61.2989 60.7594 61.4497 60.9266 61.5686C61.0938 61.6876 61.2829 61.7725 61.4829 61.8183C61.6829 61.8641 61.8901 61.8701 62.0924 61.8358C62.2947 61.8016 62.4883 61.7277 62.6621 61.6186C63.9311 60.9172 65.3437 60.5152 66.7918 60.4431C68.2399 60.371 69.6854 60.6309 71.0177 61.2028C71.2055 61.2856 71.4076 61.3307 71.6128 61.3354C71.8179 61.3401 72.0219 61.3044 72.2133 61.2303C72.4046 61.1561 72.5794 61.045 72.7278 60.9033C72.8762 60.7616 72.9952 60.5921 73.0781 60.4044C73.1609 60.2166 73.206 60.0145 73.2107 59.8093C73.2154 59.6042 73.1797 59.4002 73.1056 59.2088C73.0314 59.0175 72.9203 58.8427 72.7786 58.6943C72.6369 58.5459 72.4674 58.4269 72.2796 58.344C70.4797 57.568 68.5241 57.2208 66.567 57.3296C64.6099 57.4384 62.7048 58.0004 61.002 58.9712C60.8281 59.0802 60.6774 59.2223 60.5585 59.3896C60.4396 59.5568 60.3549 59.7458 60.309 59.9458C60.2632 60.1458 60.2572 60.3529 60.2914 60.5552C60.3256 60.7575 60.3993 60.9511 60.5083 61.125Z" fill="white"/>
    <path d="M24.6445 67.0774C25.0528 67.1467 25.4719 67.0511 25.8098 66.8115C26.1477 66.572 26.3766 66.2081 26.4462 65.7998C26.5159 65.3915 26.4206 64.9723 26.1813 64.6342C25.942 64.2962 25.5783 64.067 25.1701 63.997C23.2263 63.7439 21.2503 63.946 19.398 64.5872C17.5456 65.2284 15.8676 66.2913 14.4963 67.6919C14.2103 67.9907 14.0544 68.3908 14.0628 68.8043C14.0713 69.2179 14.2433 69.6113 14.5413 69.8982C14.8393 70.185 15.2389 70.3421 15.6525 70.3348C16.0661 70.3276 16.4599 70.1566 16.7477 69.8594C17.7628 68.8217 19.0029 68.0311 20.3721 67.5487C21.7413 67.0664 23.203 66.9051 24.6445 67.0774Z" fill="white"/>
    <path d="M88.2812 62.5C89.2083 62.5 90.1146 62.2251 90.8855 61.71C91.6563 61.195 92.2571 60.4629 92.6119 59.6064C92.9667 58.7498 93.0596 57.8073 92.8787 56.898C92.6978 55.9888 92.2514 55.1535 91.5958 54.498C90.9403 53.8424 90.105 53.3959 89.1958 53.2151C88.2865 53.0342 87.344 53.127 86.4874 53.4818C85.6309 53.8366 84.8988 54.4374 84.3837 55.2083C83.8687 55.9791 83.5938 56.8854 83.5938 57.8125C83.5951 59.0553 84.0894 60.2468 84.9682 61.1256C85.8469 62.0043 87.0384 62.4986 88.2812 62.5ZM88.2812 56.25C88.5902 56.25 88.8923 56.3416 89.1493 56.5133C89.4063 56.685 89.6065 56.929 89.7248 57.2145C89.8431 57.5 89.874 57.8142 89.8137 58.1173C89.7534 58.4204 89.6046 58.6988 89.3861 58.9173C89.1676 59.1359 88.8892 59.2847 88.5861 59.345C88.283 59.4053 87.9688 59.3743 87.6833 59.2561C87.3978 59.1378 87.1538 58.9375 86.9821 58.6806C86.8104 58.4236 86.7188 58.1215 86.7188 57.8125C86.7192 57.3982 86.8839 57.0011 87.1768 56.7081C87.4698 56.4152 87.8669 56.2504 88.2812 56.25Z" fill="white"/>
    <path d="M88.2812 46.0938C89.2083 46.0938 90.1146 45.8189 90.8855 45.3038C91.6563 44.7887 92.2571 44.0566 92.6119 43.2001C92.9667 42.3436 93.0596 41.4011 92.8787 40.4918C92.6978 39.5825 92.2514 38.7473 91.5958 38.0917C90.9403 37.4361 90.105 36.9897 89.1958 36.8088C88.2865 36.628 87.344 36.7208 86.4874 37.0756C85.6309 37.4303 84.8988 38.0312 84.3837 38.802C83.8687 39.5729 83.5938 40.4792 83.5938 41.4063C83.5951 42.649 84.0894 43.8405 84.9682 44.7193C85.8469 45.5981 87.0384 46.0924 88.2812 46.0938ZM88.2812 39.8438C88.5902 39.8437 88.8923 39.9354 89.1493 40.1071C89.4063 40.2787 89.6065 40.5228 89.7248 40.8083C89.8431 41.0938 89.874 41.408 89.8137 41.7111C89.7534 42.0142 89.6046 42.2926 89.3861 42.5111C89.1676 42.7296 88.8892 42.8784 88.5861 42.9387C88.283 42.999 87.9688 42.9681 87.6833 42.8498C87.3978 42.7316 87.1538 42.5313 86.9821 42.2743C86.8104 42.0174 86.7188 41.7153 86.7188 41.4063C86.7192 40.992 86.8839 40.5948 87.1768 40.3019C87.4698 40.0089 87.8669 39.8442 88.2812 39.8438Z" fill="white"/>
    <path d="M88.2812 78.9062C89.2083 78.9063 90.1146 78.6313 90.8855 78.1163C91.6563 77.6012 92.2571 76.8691 92.6119 76.0126C92.9667 75.1561 93.0596 74.2136 92.8787 73.3043C92.6978 72.395 92.2514 71.5598 91.5958 70.9042C90.9403 70.2486 90.105 69.8022 89.1958 69.6213C88.2865 69.4405 87.344 69.5333 86.4874 69.8881C85.6309 70.2428 84.8988 70.8437 84.3837 71.6145C83.8687 72.3854 83.5938 73.2916 83.5938 74.2188C83.5951 75.4615 84.0894 76.653 84.9682 77.5318C85.8469 78.4106 87.0384 78.9049 88.2812 78.9062ZM88.2812 72.6563C88.5902 72.6562 88.8923 72.7479 89.1493 72.9196C89.4063 73.0912 89.6065 73.3353 89.7248 73.6208C89.8431 73.9063 89.874 74.2205 89.8137 74.5236C89.7534 74.8266 89.6046 75.1051 89.3861 75.3236C89.1676 75.5421 88.8892 75.6909 88.5861 75.7512C88.283 75.8115 87.9688 75.7806 87.6833 75.6623C87.3978 75.5441 87.1538 75.3438 86.9821 75.0868C86.8104 74.8299 86.7188 74.5278 86.7188 74.2188C86.7192 73.8045 86.8839 73.4073 87.1768 73.1144C87.4698 72.8214 87.8669 72.6567 88.2812 72.6563Z" fill="white"/>
    </g>
    <defs>
    <clipPath id="clip0_1205_2416">
    <rect width="100" height="100" fill="white"/>
    </clipPath>
    </defs>
    </svg>
    