<svg width="100" height="100" viewBox="0 0 100 100" fill="none" xmlns="http://www.w3.org/2000/svg">
    <path fill-rule="evenodd" clip-rule="evenodd" d="M49.7527 29.5396C31.7326 29.5396 17.1035 44.1694 17.1035 62.1888C17.1035 80.2082 31.7326 94.8381 49.7527 94.8381C67.7721 94.8381 82.402 80.2082 82.402 62.1888C82.402 44.1694 67.7721 29.5396 49.7527 29.5396ZM49.7527 32.6493C66.0557 32.6493 79.2923 45.8859 79.2923 62.1888C79.2923 78.4926 66.0557 91.7291 49.7527 91.7291C33.449 91.7291 20.2124 78.4926 20.2124 62.1888C20.2124 45.8859 33.449 32.6493 49.7527 32.6493ZM71.2967 62.1888C71.2967 61.3306 70.6005 60.6344 69.7415 60.6344H29.7632C28.9042 60.6344 28.2087 61.3306 28.2087 62.1888C28.2087 74.0791 37.8617 83.7329 49.7527 83.7329C61.643 83.7329 71.2967 74.0791 71.2967 62.1888ZM68.1221 63.7433C67.3318 73.1918 59.4035 80.6239 49.7527 80.6239C40.102 80.6239 32.1729 73.1918 31.3826 63.7433H68.1221ZM59.3564 50.2411C60.352 49.7209 61.3475 49.6985 62.3438 50.2329C63.0997 50.6381 64.043 50.3538 64.4482 49.5978C64.8542 48.8418 64.5699 47.8985 63.8139 47.4926C61.8482 46.4381 59.8826 46.4582 57.9169 47.4844C57.1564 47.8821 56.8609 48.8217 57.2587 49.5821C57.6557 50.3433 58.596 50.6381 59.3564 50.2411ZM37.146 50.2411C38.1415 49.7209 39.137 49.6985 40.1333 50.2329C40.8893 50.6381 41.8326 50.3538 42.2385 49.5978C42.6438 48.8418 42.3594 47.8985 41.6035 47.4926C39.6378 46.4381 37.6721 46.4582 35.7064 47.4844C34.946 47.8821 34.6512 48.8217 35.0482 49.5821C35.4453 50.3433 36.3855 50.6381 37.146 50.2411ZM5.22361 23.6418C4.84376 22.9851 5.06913 22.1441 5.7266 21.765C5.82585 21.7075 5.9251 21.65 6.02436 21.5926C6.68182 21.2135 7.52212 21.4388 7.90197 22.0956C9.04674 24.0791 11.2206 27.8441 11.2206 27.8441L14.0938 26.1859C14.0938 26.1859 11.9199 22.4202 10.7744 20.4373C10.3953 19.7799 10.6206 18.9396 11.2773 18.5597C11.3766 18.503 11.4766 18.4448 11.5751 18.3881C12.2326 18.0082 13.0729 18.2336 13.4527 18.8911C15.2572 22.0157 20.1139 30.4284 21.9176 33.553C22.2975 34.2105 22.0721 35.0508 21.4147 35.4306C21.3161 35.4873 21.2161 35.5456 21.1169 35.6023C20.4594 35.9821 19.6191 35.7568 19.24 35.0993C17.996 32.9448 15.499 28.6202 15.499 28.6202L12.6266 30.2791C12.6266 30.2791 15.1229 34.6038 16.3669 36.7582C16.746 37.415 16.5214 38.256 15.8639 38.6351C15.7647 38.6926 15.6647 38.75 15.5661 38.8075C14.9087 39.1866 14.0684 38.9612 13.6885 38.3045C11.8848 35.1791 7.02809 26.7672 5.22361 23.6418ZM84.5729 36.6262C84.7572 36.3067 85.0602 36.0747 85.4161 35.9791C85.7721 35.8836 86.1505 35.9336 86.4699 36.1179C86.5281 36.1515 86.587 36.1859 86.646 36.2194C86.9647 36.4038 87.1975 36.7068 87.2923 37.0627C87.3878 37.4179 87.3378 37.797 87.1542 38.1157C87.1199 38.1747 87.0863 38.2336 87.052 38.2926C86.8684 38.6112 86.5647 38.8441 86.2094 38.9388C85.8535 39.0344 85.4744 38.9844 85.1557 38.8C85.0975 38.7665 85.0385 38.7321 84.9796 38.6985C84.6609 38.5142 84.4281 38.2112 84.3326 37.8553C84.2378 37.5 84.287 37.1209 84.4714 36.8023C84.505 36.7433 84.5393 36.6844 84.5729 36.6262ZM79.4602 33.6739C79.6445 33.3553 79.9475 33.1224 80.3035 33.0269C80.6587 32.9321 81.0378 32.9821 81.3564 33.1657C81.4154 33.2 81.4744 33.2336 81.5333 33.2679C81.852 33.4515 82.0848 33.7553 82.1796 34.1105C82.2751 34.4665 82.2251 34.8456 82.0415 35.1642C82.0072 35.2224 81.9736 35.2814 81.9393 35.3403C81.755 35.659 81.452 35.8918 81.0967 35.9873C80.7408 36.0821 80.3617 36.0329 80.043 35.8485C79.9841 35.815 79.9258 35.7806 79.8669 35.747C79.5482 35.5627 79.3154 35.2597 79.2199 34.9038C79.1244 34.5478 79.1744 34.1694 79.3587 33.85C79.3923 33.7918 79.4266 33.7329 79.4602 33.6739ZM89.4639 28.0433C89.4639 28.0433 91.6162 24.315 92.8035 22.2582C93.2259 21.5269 94.1609 21.2762 94.893 21.6985C94.9027 21.7045 94.9117 21.7097 94.9214 21.715C95.6535 22.1373 95.9035 23.0732 95.4818 23.8045C94.2938 25.8612 92.1415 29.5888 92.1415 29.5888C92.1415 29.5888 90.1923 32.5239 89.2132 33.9978C88.9057 34.4612 88.2915 34.6053 87.8102 34.3269C87.7161 34.2732 87.6206 34.2179 87.5266 34.1635C87.0452 33.8851 86.8624 33.2814 87.1094 32.7836C87.8967 31.1985 89.4639 28.0433 89.4639 28.0433ZM17.2326 16.4127C17.0012 15.8023 17.2467 15.1135 17.8124 14.7873C18.3288 14.4888 18.9609 14.1239 19.4781 13.8254C20.0438 13.4985 20.7624 13.6306 21.1758 14.1366C23.3102 16.7485 29.6281 24.4814 32.0826 27.4859C32.3296 27.7881 32.4318 28.1844 32.3617 28.5687C32.2908 28.953 32.0557 29.2873 31.7169 29.4821C31.6087 29.5448 31.5005 29.6075 31.3953 29.6679C30.8221 29.9993 30.0915 29.859 29.6826 29.3381C28.9617 28.4224 27.955 27.1426 27.955 27.1426L27.9833 27.1911L24.94 28.9478C24.94 28.9478 25.5288 30.4276 25.9527 31.4941C26.1975 32.109 25.9542 32.8097 25.3811 33.1403C25.3385 33.165 25.2953 33.1903 25.252 33.215C24.9139 33.4105 24.5064 33.447 24.1385 33.3165C23.7706 33.1851 23.4788 32.8985 23.34 32.5336C21.9654 28.9053 18.4281 19.5672 17.2326 16.4127ZM84.3512 25.0911C84.3512 25.0911 86.5035 21.3635 87.6908 19.3068C88.1132 18.5754 89.0482 18.3247 89.7803 18.747C89.7893 18.7523 89.799 18.7575 89.8087 18.7635C90.5408 19.1859 90.7908 20.1209 90.3684 20.853C89.1811 22.9097 87.0288 26.6373 87.0288 26.6373C87.0288 26.6373 85.0796 29.5724 84.1005 31.0463C83.793 31.509 83.1788 31.653 82.6975 31.3754C82.6035 31.3209 82.5072 31.2657 82.4139 31.2112C81.9318 30.9336 81.7497 30.3291 81.9967 29.8314C82.7841 28.247 84.3512 25.0911 84.3512 25.0911ZM75.9064 12.0709C76.3341 11.5485 77.0766 11.4127 77.6609 11.75C78.1609 12.0381 78.7617 12.3851 79.2609 12.6739C79.846 13.0112 80.0997 13.7224 79.8602 14.3538C78.6579 17.5276 75.1669 26.7411 73.7848 30.3903C73.6415 30.7672 73.34 31.0635 72.9594 31.1993C72.5796 31.3344 72.1587 31.2963 71.8087 31.0948C71.7273 31.047 71.646 31 71.5662 30.9538C70.9729 30.612 70.7214 29.8859 70.9759 29.25C71.4079 28.1717 71.9997 26.6926 71.9997 26.6926L71.9714 26.7411L68.9281 24.9844C68.9281 24.9844 67.9632 26.206 67.2535 27.1045C66.8296 27.6411 66.0766 27.7851 65.4848 27.4433C65.4684 27.4336 65.4512 27.4239 65.4341 27.4142C65.0848 27.212 64.8415 26.8672 64.7684 26.4702C64.696 26.0724 64.8012 25.6635 65.0564 25.3508C67.5259 22.3291 73.7594 14.6993 75.9064 12.0709ZM26.3311 25.0605L20.2751 17.3254L20.2258 17.3538L23.9214 26.4523L26.3311 25.0605ZM63.6229 5.32989C64.0258 4.63212 64.9184 4.39257 65.6169 4.7963C65.6662 4.82466 65.7161 4.85377 65.7661 4.88212C66.4647 5.28586 66.7035 6.17839 66.3005 6.87615C65.1453 8.87765 63.0244 12.5508 63.0244 12.5508L65.8975 14.2097C65.8975 14.2097 68.0184 10.5366 69.1736 8.53511C69.5766 7.8366 70.4691 7.5978 71.1676 8.00078C71.2176 8.02989 71.2676 8.05824 71.3176 8.08735C72.0154 8.49033 72.255 9.38287 71.852 10.0814C70.0288 13.2381 65.2945 21.4388 63.4721 24.5956C63.0691 25.2941 62.1758 25.5329 61.4781 25.1299C61.4281 25.1008 61.3781 25.0724 61.3281 25.0433C60.6296 24.6403 60.3908 23.7478 60.7938 23.0493C62.0512 20.8717 64.4915 16.6441 64.4915 16.6441L61.6191 14.9859C61.6191 14.9859 59.1781 19.2127 57.9206 21.3903C57.5176 22.0888 56.6251 22.3284 55.9266 21.9247C55.8773 21.8963 55.8266 21.8672 55.7773 21.8388C55.0788 21.4351 54.84 20.5426 55.243 19.8448C57.0654 16.6881 61.7997 8.4866 63.6229 5.32989ZM37.7311 24.1709C37.5467 23.8523 37.4975 23.4739 37.5923 23.1187C37.6878 22.7635 37.9199 22.4605 38.2385 22.2762C38.2982 22.2418 38.3579 22.2075 38.4176 22.1732C38.7363 21.9888 39.1147 21.9396 39.4699 22.0344C39.8251 22.1299 40.1281 22.362 40.3117 22.6806C40.346 22.7403 40.3803 22.8 40.4147 22.8597C40.599 23.1784 40.649 23.5568 40.5535 23.912C40.4587 24.2672 40.2258 24.5702 39.9072 24.7538C39.8475 24.7881 39.7878 24.8224 39.7288 24.8567C39.4102 25.0411 39.0318 25.0911 38.6766 24.9956C38.3214 24.9008 38.0184 24.6679 37.8341 24.3493C37.7997 24.2903 37.7654 24.2299 37.7311 24.1709ZM72.9908 24.2456L76.6609 15.1329L76.6124 15.1045L70.5803 22.8538L72.9908 24.2456ZM42.8438 21.2187C42.6594 20.9 42.6102 20.5217 42.705 20.1665C42.8005 19.8112 43.0326 19.5082 43.3512 19.3247C43.4109 19.2903 43.4706 19.2553 43.5303 19.2209C43.849 19.0373 44.2273 18.9873 44.5826 19.0829C44.9378 19.1776 45.2408 19.4105 45.4244 19.7291C45.4587 19.7881 45.493 19.8478 45.5281 19.9075C45.7117 20.2262 45.7617 20.6045 45.6661 20.9597C45.5714 21.315 45.3385 21.6179 45.0199 21.8023C44.9609 21.8366 44.9005 21.8709 44.8415 21.9053C44.5229 22.0888 44.1445 22.1388 43.7893 22.0441C43.4341 21.9485 43.1311 21.7165 42.9467 21.3978C42.9124 21.3381 42.8781 21.2784 42.8438 21.2187ZM32.7438 15.6456C32.7438 15.6456 30.5244 11.8015 29.3497 9.76645C29.1617 9.44033 29.1102 9.05227 29.2079 8.68809C29.3057 8.32466 29.5438 8.01421 29.8699 7.82541C29.9423 7.78362 30.0147 7.74183 30.087 7.70003C30.4132 7.51197 30.8012 7.46048 31.1654 7.55824C31.5288 7.656 31.8393 7.89406 32.0281 8.22018C33.2027 10.2553 35.4221 14.0993 35.4221 14.0993C35.4221 14.0993 36.9423 17.1597 37.7393 18.7665C38.0072 19.3053 37.8102 19.959 37.2885 20.2605C37.2415 20.2873 37.1938 20.315 37.146 20.3426C36.6251 20.6433 35.9602 20.4873 35.6273 19.9859C34.6348 18.4918 32.7438 15.6456 32.7438 15.6456ZM37.8564 12.6933C37.8564 12.6933 35.637 8.84929 34.4624 6.81496C34.2744 6.48809 34.2229 6.10078 34.3206 5.7366C34.4184 5.37242 34.6564 5.06198 34.9826 4.87392C35.055 4.83212 35.1273 4.79033 35.1997 4.74854C35.5258 4.55974 35.9139 4.50899 36.2781 4.60675C36.6423 4.70377 36.952 4.94183 37.1408 5.26869C38.3154 7.30302 40.5348 11.147 40.5348 11.147C40.5348 11.147 42.055 14.2082 42.8527 15.8142C43.1199 16.3538 42.9229 17.0075 42.4012 17.3082C42.3542 17.3359 42.3064 17.3635 42.2587 17.3903C41.7378 17.6918 41.0729 17.5351 40.74 17.0344C39.7475 15.5403 37.8564 12.6933 37.8564 12.6933Z" fill="white"/>
    </svg>
    