<svg width="100" height="100" viewBox="0 0 100 100" fill="none" xmlns="http://www.w3.org/2000/svg">
    <path fill-rule="evenodd" clip-rule="evenodd" d="M22.615 24.7789C23.1988 24.4183 23.9645 24.5994 24.325 25.1832C24.6855 25.7669 24.5045 26.5326 23.9207 26.8931C20.875 28.7812 18.2533 30.9304 16.0033 33.3439C14.284 35.188 12.7824 37.1871 11.475 39.3423C18.684 38.5248 26.0244 35.9734 31.2437 31.9314C33.5486 30.1464 35.4303 28.0724 36.6853 25.7334C37.9187 23.4349 38.5471 20.8668 38.3732 18.0507C38.1711 14.7728 36.885 11.1408 34.2119 7.17984C32.3211 11.9316 27.9045 14.2609 23.2523 16.7136C16.5326 20.2564 9.27109 24.0896 10.049 36.9357C11.2732 35.0578 12.6455 33.2957 14.1811 31.6486C16.575 29.0806 19.3678 26.7919 22.615 24.7789ZM68.724 40.105H31.4115V43.3845H68.724V40.105ZM54.8457 94.0994V76.191H45.2896V94.115C46.8355 94.2906 48.4074 94.3806 50.0004 94.3806C51.6396 94.3806 53.2563 94.2851 54.8457 94.0994ZM42.7951 93.7545C40.2182 93.3013 37.7232 92.6095 35.3346 91.7025V45.8789H64.8008V91.6503C62.4127 92.5668 59.9178 93.2681 57.34 93.7302V74.9437C57.34 74.2548 56.7816 73.6964 56.0928 73.6964H44.0422C43.3533 73.6964 42.7949 74.2548 42.7949 74.9437L42.7951 93.7545ZM41.3391 57.1498H42.7951V63.673C42.7951 64.3619 43.3535 64.9203 44.0424 64.9203H56.093C56.7818 64.9203 57.3402 64.3619 57.3402 63.673V57.1498H58.7963C59.4852 57.1498 60.0436 56.5914 60.0436 55.9025C60.0436 55.2136 59.4852 54.6552 58.7963 54.6552H41.3393C40.6504 54.6552 40.092 55.2136 40.092 55.9025C40.092 56.5914 40.6502 57.1498 41.3391 57.1498ZM48.8203 62.4257V57.1498H45.2895V62.4257H48.8203ZM51.3146 57.1498V62.4257H54.8455V57.1498H51.3146ZM26.6754 69.6373H23.0691V73.6964H26.6754V69.6373ZM21.8219 67.1429H27.9225C28.6113 67.1429 29.1697 67.7013 29.1697 68.3902V74.9439C29.1697 75.6326 28.6113 76.1912 27.9225 76.1912H21.8219C21.133 76.1912 20.5746 75.6328 20.5746 74.9439V68.3902C20.5746 67.7013 21.133 67.1429 21.8219 67.1429ZM76.4682 60.9853H73.3625V64.5068H76.4682V60.9853ZM72.1154 58.4908H77.7154C78.4043 58.4908 78.9627 59.0492 78.9627 59.738V65.7539C78.9627 66.4427 78.4043 67.0011 77.7154 67.0011H72.1154C71.4266 67.0011 70.8682 66.4427 70.8682 65.7539V59.738C70.8682 59.0492 71.4266 58.4908 72.1154 58.4908ZM76.4682 72.3365H73.3625V75.858H76.4682V72.3365ZM72.1154 69.8421H77.7154C78.4043 69.8421 78.9627 70.4005 78.9627 71.0894V77.1052C78.9627 77.7941 78.4043 78.3525 77.7154 78.3525H72.1154C71.4266 78.3525 70.8682 77.7941 70.8682 77.1052V71.0894C70.8682 70.4005 71.4266 69.8421 72.1154 69.8421ZM32.84 58.2961H14.4342V61.0757H32.84V58.2961ZM32.84 63.5701V90.6595C28.3252 88.5959 24.2465 85.7435 20.7809 82.2777C19.2816 80.7785 17.8975 79.1644 16.6418 77.4502V63.5699H32.84V63.5701ZM67.2951 52.7984H85.1897V50.0187H67.2951V52.7984ZM82.5359 78.5359C81.5061 79.8496 80.3982 81.0992 79.2195 82.2779C75.7885 85.7089 71.7563 88.5388 67.2951 90.5976V55.2927H82.5355V78.5127L82.5359 78.5357V78.5359ZM85.0301 55.2929V74.9873C89.0168 68.632 91.3225 61.1146 91.3225 53.0587C91.3225 41.6478 86.6973 31.3171 79.2195 23.8394C71.7418 16.3617 61.4111 11.7365 50.0002 11.7365C49.3113 11.7365 48.7531 11.1781 48.7531 10.4894C48.7531 9.80074 49.3115 9.24234 50.0002 9.24234C62.0996 9.24234 73.0537 14.1468 80.983 22.0761C88.9123 30.0054 93.8168 40.9595 93.8168 53.0589C93.8168 65.1584 88.9123 76.1127 80.983 84.0418C73.0537 91.9711 62.0996 96.8755 50.0002 96.8755C37.9008 96.8755 26.9465 91.9711 19.0174 84.0418C17.3402 82.3646 15.799 80.5515 14.4102 78.6216C14.391 78.5972 14.3729 78.5718 14.3557 78.5461C9.21191 71.3652 6.18359 62.5658 6.18359 53.0589C6.18359 50.741 6.36855 48.4453 6.72441 46.1871C7.0209 44.3062 7.43398 42.4724 7.95566 40.6935C5.3332 23.3523 14.0643 18.7451 22.0928 14.5123C26.9643 11.9437 31.5482 9.52691 32.483 4.16187C32.5986 3.48394 33.2422 3.02789 33.9201 3.14371C34.2666 3.20269 34.5549 3.39976 34.7389 3.66871C38.7266 8.83531 40.5926 13.6041 40.8578 17.9054C41.0613 21.206 40.3242 24.2171 38.8775 26.9132C37.4525 29.5689 35.3395 31.9056 32.7635 33.9005C26.7988 38.5197 18.3 41.3144 10.1797 41.9687C9.76035 43.4748 9.4252 45.0093 9.17969 46.5671C8.84941 48.6627 8.67773 50.8304 8.67773 53.0591C8.67773 60.5439 10.6676 67.5636 14.1473 73.6185V63.5707H13.1869C12.498 63.5707 11.9396 63.0123 11.9396 62.3234V57.0494C11.9396 56.3605 12.498 55.8021 13.1869 55.8021H32.84V45.8794H30.1641C29.4752 45.8794 28.9168 45.3211 28.9168 44.6322V38.8584C28.9168 38.1695 29.4752 37.6111 30.1641 37.6111H69.9711C70.66 37.6111 71.2184 38.1695 71.2184 38.8584V44.6322C71.2184 45.3209 70.66 45.8794 69.9711 45.8794H67.2951V47.5248H86.4369C87.1258 47.5248 87.6842 48.0832 87.6842 48.772V54.0461C87.6842 54.7349 87.1258 55.2933 86.4369 55.2933H85.0299L85.0301 55.2929Z" fill="#FF2B00"/>
    </svg>
    