<svg width="100" height="100" viewBox="0 0 100 100" fill="none" xmlns="http://www.w3.org/2000/svg">
    <path d="M21.423 23.0582C20.1698 22.0943 18.6564 21.9045 17.3907 23.5502L15.4411 26.0851C14.1759 27.7306 14.7478 29.1447 16.0009 30.1084C17.3689 31.1605 18.9612 31.2279 19.9396 29.9554C20.3812 29.3816 20.245 29.0634 19.7282 28.6666C19.3458 28.372 18.947 28.2177 18.6458 28.5498C18.3302 28.9007 17.8335 29.4474 17.0683 28.8589C16.5134 28.432 16.4333 27.883 16.9337 27.2328L18.8831 24.6976C19.3835 24.0472 19.9345 23.9839 20.4798 24.4033C21.2931 25.0287 20.8509 25.6629 20.6692 25.9191C20.4235 26.2781 20.6679 26.6336 21.0696 26.9423C21.5767 27.3324 21.9187 27.3824 22.3603 26.8084C23.2948 25.5933 22.7911 24.1101 21.423 23.0582Z" fill="white"/>
    <path d="M27.8321 27.9864L25.8518 26.4635C25.5745 26.2502 25.2309 26.3209 25.0469 26.56L20.368 32.6446C20.1327 32.9506 20.3879 33.3905 20.7612 33.6774C21.1342 33.9643 21.6251 34.0981 21.8604 33.7918L23.6335 31.4866L24.2649 31.9719L23.6184 35.5246C23.569 35.8065 23.6919 36.0229 23.8833 36.17C24.3233 36.5082 25.1295 36.4889 25.4165 36.1161C25.4534 36.0682 25.4954 35.9938 25.5012 35.9069L25.96 32.8952C26.8284 33.152 27.787 32.9149 28.611 31.8434C29.81 30.2842 29.1424 28.9944 27.8321 27.9864ZM27.0085 30.8393C26.4934 31.509 25.9989 31.4791 25.4633 31.0668L24.5163 30.3385L25.8844 28.5592L26.8317 29.2875C27.3672 29.6995 27.5233 30.1698 27.0085 30.8393Z" fill="white"/>
    <path d="M32.5372 31.6046C32.1642 31.3179 31.6882 31.1648 31.4452 31.4806L26.7665 37.565C26.5311 37.871 26.7862 38.3107 27.1595 38.5978C27.5325 38.8845 28.0233 39.0187 28.2587 38.7124L32.9378 32.6283C33.1804 32.3124 32.9104 31.8915 32.5372 31.6046Z" fill="white"/>
    <path d="M40.1629 37.4686C39.6272 37.0565 39.3536 36.9376 38.4317 37.3247L36.1221 38.2888L36.461 35.8093C36.5985 34.8188 36.4129 34.585 35.8772 34.1729C35.5042 33.8862 34.9766 33.8001 34.5573 34.3452L30.1063 40.1331C29.871 40.4392 30.1262 40.879 30.4995 41.1661C30.8723 41.4528 31.3633 41.5868 31.5987 41.2808L34.4311 37.5977L34.0596 39.9612C34.0051 40.2696 34.1428 40.4665 34.3149 40.5989C34.4967 40.7388 34.7395 40.819 35.0256 40.7042L37.1506 39.8413L34.3919 43.4288C34.1567 43.7347 34.412 44.1747 34.785 44.4618C35.1583 44.7485 35.6491 44.8823 35.8844 44.5763L40.3352 38.7888C40.7546 38.2434 40.5456 37.763 40.1629 37.4686Z" fill="white"/>
    <path d="M67.6076 58.5741L64.2022 55.9549C63.877 55.7049 63.4338 55.6077 63.1985 55.9139L58.5268 61.9883C58.2914 62.2944 58.4991 62.6977 58.8242 62.9475L62.2297 65.5666C62.5453 65.8092 62.9369 65.5774 63.1723 65.2713C63.4444 64.9176 63.5172 64.4864 63.2301 64.2659L60.6664 62.294L61.917 60.668L63.3522 61.7715C63.668 62.0141 64.0371 61.8112 64.2358 61.5528C64.4711 61.2467 64.5219 60.8444 64.235 60.6235L62.8 59.52L64.0434 57.9032L66.6073 59.8748C66.8942 60.0955 67.2922 59.9145 67.5643 59.5608C67.7996 59.2547 67.9233 58.8168 67.6076 58.5741Z" fill="white"/>
    <path d="M73.6599 63.2287C73.2867 62.942 72.8107 62.7887 72.5679 63.1045L70.0667 66.3572L70.7902 62.2094C70.9638 61.2312 70.7998 61.0291 70.2638 60.617C69.8908 60.3303 69.4074 60.1865 69.1646 60.5025L64.4931 66.5771C64.2576 66.8832 64.513 67.3232 64.8861 67.6104C65.2593 67.8971 65.7501 68.0309 65.9855 67.7248L68.4867 64.4723L67.7587 69.1803C67.6832 69.6547 67.9378 69.957 68.282 70.2219C68.655 70.5088 69.146 70.6426 69.3814 70.3365L74.0601 64.2521C74.3031 63.9365 74.0328 63.5156 73.6599 63.2287Z" fill="white"/>
    <path d="M80.3069 68.3425L76.9011 65.7236C76.5761 65.4734 76.1331 65.3763 75.8976 65.6824L71.2261 71.7572C70.9907 72.0632 71.198 72.4665 71.5233 72.7167L74.929 75.3355C75.2446 75.5785 75.6362 75.3464 75.8716 75.0404C76.1438 74.6865 76.2167 74.2554 75.9296 74.0347L73.3657 72.0628L74.6165 70.4367L76.0515 71.5404C76.3673 71.7831 76.7364 71.58 76.9351 71.3214C77.1704 71.0154 77.2212 70.6128 76.9341 70.3923L75.4993 69.2886L76.7425 67.672L79.3064 69.6435C79.5933 69.8642 79.9915 69.6831 80.2636 69.3292C80.4989 69.0232 80.6226 68.5853 80.3069 68.3425Z" fill="white"/>
    <path d="M23.6407 72.0186C23.2087 71.4374 22.8657 71.4819 22.3431 71.871C21.9556 72.1589 21.6985 72.5004 21.9358 72.8805C22.1876 73.2797 22.5784 73.9065 21.8038 74.4827C21.2419 74.9003 20.6919 74.828 20.2022 74.1694L18.2936 71.6034C17.8042 70.9448 17.8932 70.3975 18.445 69.987C19.2682 69.3749 19.7579 69.9727 19.9552 70.2174C20.2337 70.5516 20.6423 70.4133 21.0489 70.1108C21.5622 69.729 21.7034 69.4135 21.2714 68.8325C20.3567 67.6024 18.7925 67.6833 17.4077 68.7133C16.1391 69.6567 15.5444 71.0614 16.7833 72.7272L18.6917 75.2934C19.9306 76.9588 21.447 76.7936 22.7155 75.8501C24.1003 74.8202 24.5987 73.3065 23.6407 72.0186Z" fill="white"/>
    <path d="M31.0625 68.4264C31.0264 68.3777 30.9662 68.3172 30.8842 68.2879L28.1111 67.0266C28.5945 66.2609 28.6275 65.274 27.8209 64.1893C26.6471 62.6109 25.2242 62.9022 23.8975 63.8887L21.893 65.3795C21.6123 65.5883 21.5867 65.9383 21.7666 66.1803L26.3473 72.3391C26.5777 72.649 27.0705 72.5231 27.4482 72.242C27.8258 71.9611 28.0883 71.5252 27.8578 71.2154L26.1223 68.8818L26.7611 68.4065L30.0037 69.9957C30.2613 70.1197 30.5031 70.0605 30.6969 69.9164C31.1422 69.5852 31.3432 68.8041 31.0625 68.4264ZM26.2166 67.0066L25.258 67.7197L23.9184 65.9186L24.8771 65.2055C25.4193 64.8023 25.9144 64.7801 26.4184 65.458C26.9225 66.1359 26.759 66.6035 26.2166 67.0066Z" fill="white"/>
    <path d="M34.3319 66.3993L29.7516 60.2405C29.5139 59.9209 29.0352 60.0663 28.6575 60.3471C28.2799 60.628 28.003 61.0442 28.2407 61.3641L32.8213 67.5227C33.0518 67.8327 33.5444 67.7067 33.9223 67.4256C34.2998 67.1448 34.5625 66.709 34.3319 66.3993Z" fill="white"/>
    <path d="M42.0498 60.6588L37.6926 54.8002C37.282 54.2483 36.7629 54.3186 36.3754 54.6067C35.833 55.01 35.6439 55.2409 35.7654 56.2334L36.0642 58.7182L33.7707 57.717C32.8551 57.3151 32.5797 57.4299 32.0373 57.8332C31.6597 58.1141 31.4332 58.5983 31.8437 59.1502L36.2011 65.0088C36.4316 65.3188 36.9244 65.1928 37.3021 64.9117C37.6797 64.6309 37.9422 64.1952 37.7117 63.8852L34.9388 60.1571L37.1121 61.158C37.3939 61.2944 37.6209 61.2155 37.7953 61.086C37.9795 60.9491 38.1226 60.7373 38.0902 60.4307L37.8386 58.151L40.5394 61.7825C40.7699 62.0924 41.2627 61.9664 41.6404 61.6856C42.0179 61.4045 42.2802 60.9686 42.0498 60.6588Z" fill="white"/>
    <path d="M48.3476 55.6908C48.0812 55.3326 47.6863 55.1451 47.3959 55.3613L44.8004 57.2912L43.5762 55.6451L45.0287 54.5648C45.3482 54.327 45.2533 53.9166 45.0588 53.6551C44.8283 53.3451 44.4549 53.1869 44.1644 53.4029L42.7119 54.4832L41.4947 52.8467L44.0898 50.9164C44.3803 50.7004 44.3144 50.268 44.0482 49.91C43.8178 49.5998 43.4303 49.3619 43.1105 49.5996L39.6631 52.1633C39.334 52.4082 39.1197 52.808 39.3504 53.1178L43.9238 59.267C44.1543 59.577 44.5988 59.4869 44.9277 59.242L48.3752 56.6783C48.6947 56.4406 48.5781 56.0008 48.3476 55.6908Z" fill="white"/>
    <path d="M55.9535 47.8516C54.1389 45.4115 51.2062 47.8785 50.4861 46.91C50.2629 46.6098 50.3348 46.1201 51.0223 45.6088C51.8164 45.0186 52.274 45.2494 52.6226 44.9902C53.0486 44.6733 52.8268 44.011 52.6324 43.7496C52.0707 42.9942 50.5849 43.949 50.0717 44.3307C48.8613 45.2311 48.0031 46.7264 49.0834 48.1789C50.7685 50.4445 53.6871 47.9582 54.5586 49.1301C54.9043 49.5949 54.54 50.1363 54.0945 50.4678C53.1939 51.1375 52.3703 50.6369 51.9152 50.9754C51.5473 51.2492 51.6168 51.9494 51.8615 52.2785C52.3369 52.9176 53.8631 52.7453 55.1316 51.802C56.5357 50.7574 56.9906 49.2461 55.9535 47.8516Z" fill="white"/>
    <path d="M62.2656 43.2942C61.834 42.7133 61.491 42.7578 60.968 43.1465C60.5805 43.4346 60.3234 43.7764 60.5609 44.1563C60.8125 44.5555 61.2037 45.1824 60.4289 45.7584C59.867 46.176 59.317 46.1037 58.8275 45.4455L56.9187 42.8791C56.4293 42.2211 56.5184 41.6735 57.0701 41.2627C57.8934 40.6506 58.3834 41.2488 58.5803 41.4934C58.8588 41.8276 59.2674 41.6891 59.6742 41.3865C60.1875 41.0049 60.3285 40.6891 59.8967 40.1084C58.982 38.8785 57.4174 38.959 56.0326 39.9889C54.7641 40.9324 54.1695 42.3371 55.4082 44.0026L57.3166 46.5688C58.5555 48.2344 60.0719 48.069 61.3404 47.1256C62.725 46.0955 63.2236 44.582 62.2656 43.2942Z" fill="white"/>
    <path d="M69.3942 40.0368C69.128 39.6788 68.7329 39.4913 68.4425 39.7075L65.847 41.6374L64.6229 39.9913L66.0755 38.911C66.395 38.6733 66.3001 38.2628 66.1056 38.0012C65.8751 37.6913 65.5017 37.5331 65.2112 37.7491L63.7587 38.8294L62.5415 37.1928L65.1366 35.2626C65.4271 35.0465 65.3612 34.6143 65.095 34.2561C64.8646 33.9462 64.477 33.7081 64.1573 33.9458L60.7099 36.5094C60.3808 36.7544 60.1667 37.1542 60.3972 37.4639L64.9704 43.6132C65.2009 43.9231 65.6454 43.8329 65.9743 43.588L69.4218 41.0243C69.7413 40.7866 69.6247 40.3467 69.3942 40.0368Z" fill="white"/>
    <path d="M75.9591 35.4412L71.3782 29.2826C71.1407 28.9628 70.6622 29.1083 70.2844 29.389C69.9071 29.6701 69.6298 30.0863 69.8676 30.406L72.3165 33.6984L68.5221 31.8728C67.6284 31.4396 67.3891 31.5425 66.8468 31.9458C66.4692 32.2267 66.1995 32.6527 66.4372 32.9724L71.0104 39.1214C71.2409 39.4314 71.7337 39.3054 72.1116 39.0246C72.4889 38.7435 72.7514 38.3076 72.5212 37.9978L70.0725 34.7056L74.4046 36.6878C74.8403 36.8898 75.2007 36.7271 75.5493 36.4679C75.9268 36.1871 76.1893 35.7511 75.9591 35.4412Z" fill="white"/>
    <path d="M82.2536 30.474C81.9872 30.116 81.5921 29.9285 81.3017 30.1447L78.7063 32.0748L77.4821 30.4285L78.9349 29.3484C79.2544 29.1107 79.1595 28.7002 78.9647 28.4384C78.7343 28.1285 78.3608 27.9703 78.0706 28.1863L76.6179 29.2664L75.4009 27.63L77.9962 25.6998C78.2866 25.4838 78.2208 25.0513 77.9544 24.6931C77.7239 24.3832 77.3364 24.1451 77.0167 24.3828L73.5694 26.9468C73.2401 27.1914 73.0261 27.5914 73.2565 27.9011L77.8298 34.0502C78.0603 34.3601 78.5048 34.2703 78.8339 34.0254L82.281 31.4613C82.6007 31.2236 82.4841 30.7839 82.2536 30.474Z" fill="white"/>
    <path d="M12.8775 23.2116C13.6275 23.2116 14.2355 22.6036 14.2355 21.8536C14.2355 21.1036 13.6275 20.4956 12.8775 20.4956C12.1275 20.4956 11.5195 21.1036 11.5195 21.8536C11.5195 22.6036 12.1275 23.2116 12.8775 23.2116Z" fill="white"/>
    <path d="M86.5729 79.0905C87.3229 79.0905 87.9309 78.4825 87.9309 77.7325C87.9309 76.9825 87.3229 76.3745 86.5729 76.3745C85.8228 76.3745 85.2148 76.9825 85.2148 77.7325C85.2148 78.4825 85.8228 79.0905 86.5729 79.0905Z" fill="white"/>
    <path d="M12.815 79.0085C13.565 79.0085 14.173 78.4005 14.173 77.6505C14.173 76.9005 13.565 76.2925 12.815 76.2925C12.065 76.2925 11.457 76.9005 11.457 77.6505C11.457 78.4005 12.065 79.0085 12.815 79.0085Z" fill="white"/>
    <path d="M86.6354 23.2917C87.3854 23.2917 87.9934 22.6837 87.9934 21.9337C87.9934 21.1837 87.3854 20.5757 86.6354 20.5757C85.8853 20.5757 85.2773 21.1837 85.2773 21.9337C85.2773 22.6837 85.8853 23.2917 86.6354 23.2917Z" fill="white"/>
    <path d="M45.4586 33.0606L13.9143 9.14403C13.4205 8.76981 12.81 8.60965 12.1971 8.69461C11.5832 8.77899 11.0389 9.09735 10.6649 9.5911L0.471525 23.0354C0.0973065 23.5292 -0.0624591 24.1391 0.0221112 24.7528C0.106096 25.3667 0.42465 25.9108 0.918205 26.285L28.2819 47.0317C28.5467 47.2325 28.8579 47.3296 29.1664 47.3296C29.6094 47.3296 30.0473 47.1294 30.3356 46.7493C30.8247 46.1042 30.6983 45.1847 30.0532 44.6956L3.17719 24.3188L12.6309 11.8501L43.6873 35.3968C44.3325 35.886 45.2522 35.7593 45.7411 35.1143C46.2301 34.4692 46.1038 33.5497 45.4586 33.0606Z" fill="white"/>
    <path d="M99.9773 75.2489C99.893 74.6352 99.5746 74.0909 99.0809 73.7165L71.7682 53.0083C71.1228 52.5192 70.2037 52.6456 69.7145 53.2907C69.2254 53.9358 69.3518 54.8554 69.9969 55.3444L96.8219 75.6827L87.3684 88.1517L56.4258 64.6913C55.7807 64.202 54.8615 64.3286 54.3721 64.9737C53.883 65.6188 54.0094 66.5384 54.6545 67.0274L86.0852 90.8577C86.5031 91.1745 86.9951 91.3276 87.4832 91.3276C88.185 91.3276 88.8787 91.0114 89.3346 90.4106L99.5275 76.9665C99.902 76.4726 100.062 75.8626 99.9773 75.2489Z" fill="white"/>
    <path d="M99.5289 23.035L89.3353 9.59051C88.5627 8.57215 87.1054 8.37157 86.0857 9.14364L44.4107 40.7411L43.408 39.9641C43.0828 39.7141 42.6396 39.6169 42.4043 39.9231L38.0896 45.5337L0.91851 73.7163C0.42476 74.0907 0.106401 74.6348 0.0220256 75.2485C-0.0623494 75.8624 0.0974163 76.4722 0.471635 76.9659L10.665 90.4102C11.1207 91.0112 11.8144 91.3274 12.516 91.3274C13.0043 91.3274 13.4964 91.1741 13.9146 90.8571L54.7978 59.86C55.998 60.4893 57.2669 60.3761 58.0959 59.2981C58.5373 58.7243 58.4011 58.4063 57.8847 58.0091C57.7673 57.9186 57.6484 57.8419 57.5312 57.7878L59.3738 56.3909C59.8025 56.6776 60.1195 56.6671 60.5164 56.1511C60.7525 55.844 60.8962 55.5198 60.958 55.1897L99.082 26.2847C100.101 25.512 100.301 24.0544 99.5289 23.035ZM12.631 88.1514L3.1773 75.6825L87.3687 11.8499L96.8222 24.3188L12.631 88.1514Z" fill="white"/>
    </svg>
    