<svg width="32" height="32" viewBox="0 0 32 32" fill="none" xmlns="http://www.w3.org/2000/svg">
        <path d="M23.2 5.5H20.7V4.8C20.8 4.3 20.4 4 20 4C19.6 4 19.2 4.3 19.2 4.8V5.6H12.7V4.8C12.8 4.3 12.4 4 12 4C11.6 4 11.2 4.3 11.2 4.8V5.6H8.8C6.1 5.5 4 7.7 4 10.3V22.3C4 24.9 6.1 27 8.8 27H23.3C25.9 27 28.1 24.9 28.1 22.2V10.2C28 7.7 25.9 5.5 23.2 5.5ZM8.8 7H11.3V7.2C11.3 7.7 11.6 8 12 8C12.4 8 12.8 7.7 12.8 7.2V7H19.3V7.2C19.3 7.7 19.6 8 20 8C20.4 8 20.8 7.7 20.8 7.2V7H23.3C25.1 7 26.5 8.5 26.5 10.2V10.4H5.5V10.2C5.5 8.5 7 7 8.8 7ZM23.2 25.5H8.8C7 25.5 5.6 24 5.6 22.3V12H26.6V22.3C26.5 24 25 25.5 23.2 25.5Z" fill="#FF2B00"/>
        <path d="M10 18.1C9.4 18.1 9 18.5 9 19.1V19.8C9 20.4 9.4 20.8 10 20.8C10.6 20.8 11 20.4 11 19.8V19.1C11 18.6 10.5 18.1 10 18.1Z" fill="#FF2B00"/>
        <path d="M22 18.1C21.4 18.1 21 18.5 21 19.1V19.8C21 20.4 21.4 20.8 22 20.8C22.6 20.8 23 20.4 23 19.8V19.1C23 18.6 22.5 18.1 22 18.1Z" fill="#FF2B00"/>
        <path d="M14 18.1C13.4 18.1 13 18.5 13 19.1V19.8C13 20.4 13.4 20.8 14 20.8C14.6 20.8 15 20.4 15 19.8V19.1C15 18.6 14.5 18.1 14 18.1Z" fill="#FF2B00"/>
        <path d="M18 18.1C17.4 18.1 17 18.5 17 19.1V19.8C17 20.4 17.4 20.8 18 20.8C18.6 20.8 19 20.4 19 19.8V19.1C19 18.6 18.5 18.1 18 18.1Z" fill="#FF2B00"/>
        </svg>
        