<svg width="68" height="68" viewBox="0 0 68 68" fill="none" xmlns="http://www.w3.org/2000/svg">
    <path d="M24.3497 51.27C23.8006 51.27 23.3555 51.715 23.3555 52.2642V57.5002C23.3555 58.0494 23.8006 58.4944 24.3497 58.4944C24.8988 58.4944 25.3439 58.0494 25.3439 57.5002V52.2642C25.3439 51.715 24.8988 51.27 24.3497 51.27Z" fill="#FF2B00"/>
    <path d="M43.5958 51.27C43.0467 51.27 42.6016 51.715 42.6016 52.2642V57.5002C42.6016 58.0494 43.0467 58.4944 43.5958 58.4944C44.1449 58.4944 44.59 58.0494 44.59 57.5002V52.2642C44.59 51.715 44.1449 51.27 43.5958 51.27Z" fill="#FF2B00"/>
    <path d="M62.9148 47.7988L59.5857 46.4632V45.6129C60.2393 45.2497 60.826 44.7771 61.3198 44.2193C63.4256 44.4679 65.4404 43.6273 66.7447 41.9362C68.0935 40.1874 68.3741 37.9337 67.4955 35.9075L66.0006 32.4606C65.8882 32.2015 65.8109 31.9283 65.7706 31.6489C65.4485 29.4099 64.3295 27.361 62.6198 25.8798C60.9102 24.3984 58.7229 23.5827 56.4608 23.5827C54.1988 23.5827 52.0115 24.3984 50.3018 25.8798C48.5923 27.361 47.4732 29.4098 47.1511 31.6489C47.1108 31.9285 47.0335 32.2017 46.9211 32.4606L45.4263 35.9075C44.5477 37.9336 44.8283 40.1873 46.1771 41.9362C47.331 43.4321 49.0405 44.2658 50.8772 44.2657C51.1141 44.2657 51.3533 44.2516 51.5938 44.2234C52.0419 44.7315 52.5673 45.1691 53.1526 45.5175V46.4631L49.8237 47.7988C49.6067 47.8859 49.3948 47.9844 49.1883 48.0933C48.5442 46.9086 47.6246 45.8726 46.4803 45.0856L42.1443 42.1036C42.1694 41.556 41.9504 41.0044 41.5043 40.6259L39.7424 39.1309C39.5754 38.989 39.3877 38.8819 39.1894 38.8091V36.7963C41.0517 35.4455 42.3723 33.3932 42.7594 31.0296H42.8655C44.7611 31.0296 46.3033 29.4873 46.3033 27.5918C46.3033 26.7825 46.0215 26.038 45.5518 25.4501L46.2625 20.398C46.7747 16.756 44.2321 13.353 40.5941 12.8118L40.4527 12.7909C39.2894 10.8923 37.4878 9.52255 35.3261 8.90958L35.0659 8.83574C32.1998 8.02313 29.1342 8.50818 26.655 10.1668C26.1986 10.4721 26.0761 11.0896 26.3814 11.5459C26.6867 12.0021 27.304 12.1248 27.7606 11.8193C29.7545 10.4855 32.2193 10.0954 34.5234 10.7488L34.7836 10.8226C36.5925 11.3355 38.0773 12.5308 38.9647 14.1884C39.5751 15.3288 39.8446 16.583 39.7668 17.8376L39.0929 17.2583C38.4768 16.7288 37.571 16.7148 36.9392 17.2251L36.0552 17.9392H31.0086C27.7339 17.9392 25.0697 20.6035 25.0697 23.8782V24.1543C24.806 24.1552 24.5496 24.1868 24.3031 24.2442C23.1791 21.0799 23.496 17.5148 25.1854 14.5985C25.4606 14.1233 25.2986 13.5151 24.8235 13.2397C24.3484 12.9647 23.7402 13.1265 23.4649 13.6016C21.4218 17.1286 21.0905 21.4649 22.5593 25.2599C21.9921 25.8731 21.6447 26.6925 21.6447 27.5918C21.6447 29.4873 23.1869 31.0296 25.0825 31.0296H25.1886C25.5757 33.3932 26.8963 35.4455 28.7586 36.7963V38.8091C28.5603 38.8818 28.3726 38.989 28.2057 39.1307L26.4437 40.6259C25.9976 41.0044 25.7786 41.5561 25.8037 42.1036L21.4677 45.0856C20.5865 45.6915 19.8384 46.445 19.2466 47.3005C18.8631 47.0886 18.4634 46.9075 18.0496 46.7609L15.1056 45.7182V44.9346C16.6051 44.0081 17.6831 42.4638 17.9834 40.6593H18.4283C20.1727 40.6593 21.5918 39.2402 21.5918 37.496C21.5918 36.7128 21.3052 35.9959 20.832 35.4428L21.0095 33.3416C21.2562 30.3157 19.9359 27.4455 17.4775 25.6642C15.0192 23.8827 11.8805 23.5217 9.0818 24.6984L7.10012 25.5315C4.03169 26.2089 1.98081 29.1492 2.41893 32.2723L2.86222 35.4326C2.38393 35.987 2.09375 36.708 2.09375 37.496C2.09375 39.2402 3.51284 40.6593 5.25723 40.6593H5.70211C5.98288 42.3467 6.94409 43.8061 8.29385 44.7461V45.7182L5.34989 46.7608C4.93762 46.9069 4.53145 47.0898 4.14277 47.3048C3.66223 47.5705 3.48805 48.1754 3.7537 48.6559C3.93505 48.984 4.27454 49.1692 4.62464 49.1692C4.7873 49.1692 4.95234 49.1292 5.10478 49.0449C5.39815 48.8826 5.70397 48.7447 6.0135 48.6351L8.55739 47.7341C9.07252 48.9619 10.2868 49.8264 11.6995 49.8264C13.1122 49.8264 14.3265 48.9619 14.8417 47.7341L17.3855 48.6352C17.7056 48.7484 18.0144 48.8894 18.3104 49.0548C17.9155 50.0559 17.7038 51.1347 17.7038 52.2417V58.14C17.7038 58.6892 18.149 59.1342 18.698 59.1342C19.2471 59.1342 19.6923 58.6892 19.6923 58.14V52.2417C19.6923 50.0364 20.7772 47.9737 22.5942 46.7241L26.7349 43.8764L28.4321 46.1456C28.797 46.6334 29.369 46.9082 29.959 46.9082C30.1427 46.9082 30.3283 46.8816 30.5098 46.8263L32.9796 46.0746V58.5562C32.9796 59.1055 33.4247 59.5505 33.9738 59.5505C34.5229 59.5505 34.968 59.1055 34.968 58.5562V46.0746L37.4381 46.8264C37.6195 46.8816 37.8049 46.9082 37.9886 46.9082C38.5785 46.9082 39.1507 46.6333 39.5155 46.1456L41.2125 43.8764L45.3533 46.7241C47.1704 47.9737 48.2552 50.0364 48.2552 52.2417V58.14C48.2552 58.6892 48.7003 59.1342 49.2494 59.1342C49.7985 59.1342 50.2436 58.6892 50.2436 58.14V52.2417C50.2436 51.4587 50.1375 50.6897 49.936 49.9521C50.1375 49.8345 50.347 49.7314 50.5638 49.6444L53.4506 48.4861C53.962 49.5869 55.0776 50.3525 56.3691 50.3525C57.6607 50.3525 58.7762 49.587 59.2876 48.4862L62.1746 49.6444C64.0001 50.3767 65.1795 52.1208 65.1795 54.0877V55.7706C65.1795 56.3198 65.6247 56.7648 66.1737 56.7648C66.7228 56.7648 67.168 56.3198 67.168 55.7706V54.0877C67.1678 51.3039 65.4983 48.8354 62.9148 47.7988ZM23.6327 27.5917C23.6327 26.7968 24.276 26.1499 25.0693 26.1429V29.0402C24.2762 29.0333 23.6327 28.3865 23.6327 27.5917ZM18.428 38.6707H18.069V36.3207H18.428C19.076 36.3207 19.6031 36.8479 19.6031 37.4957C19.6031 38.1435 19.076 38.6707 18.428 38.6707ZM4.08193 37.4958C4.08193 36.8479 4.609 36.3208 5.25697 36.3208H5.61595V38.6709H5.25697C4.60913 38.6707 4.08193 38.1437 4.08193 37.4958ZM6.82346 31.2676C6.16396 32.1783 5.76521 33.2271 5.65108 34.3322H5.25697C5.07456 34.3322 4.89613 34.3487 4.72207 34.3784L4.38788 31.9958C4.09068 29.8775 5.50009 27.8845 7.59644 27.4586C7.6606 27.4456 7.72343 27.4262 7.78388 27.4008L9.85239 26.531C12.0055 25.6258 14.4197 25.9037 16.3107 27.2739C18.2017 28.6444 19.2174 30.8521 19.0279 33.1767L18.9269 34.3717C18.7643 34.3459 18.5978 34.3321 18.428 34.3321H18.0603C17.9747 33.4891 17.2608 32.829 16.3956 32.829H13.9405C12.1908 32.829 10.4594 32.2466 9.06537 31.1894L8.78407 30.9761C8.48872 30.7521 8.10879 30.6548 7.74252 30.7094C7.37585 30.764 7.04087 30.9675 6.82346 31.2676ZM8.43397 32.4339C8.4337 32.4343 8.43357 32.4346 8.43344 32.4349C8.43357 32.4346 8.43384 32.4343 8.43397 32.4339ZM7.60452 34.994C7.60452 34.275 7.77778 33.5801 8.10959 32.9544C9.80281 34.1579 11.8614 34.8177 13.9406 34.8177H16.0806V39.6342C16.0806 41.9712 14.1794 43.8724 11.8426 43.8724C9.50574 43.8724 7.60452 41.9712 7.60452 39.6342V34.994ZM11.6994 47.838C10.9178 47.838 10.282 47.2021 10.282 46.4206V45.6626C10.7809 45.7919 11.3038 45.8608 11.8426 45.8608C12.2792 45.8608 12.7053 45.8152 13.1169 45.7292V46.4206C13.1169 47.2021 12.481 47.838 11.6994 47.838ZM42.8779 29.0402V26.1429C43.6712 26.1498 44.3145 26.7968 44.3145 27.5917C44.3145 28.3865 43.6712 29.0333 42.8779 29.0402ZM44.293 20.1207L43.7108 24.2593C43.4441 24.1916 43.1651 24.1551 42.8778 24.154V24.0736C42.8778 22.4706 42.382 20.9288 41.4842 19.6404C41.8756 18.1326 41.8618 16.5803 41.4566 15.1049C43.377 15.9245 44.5966 17.963 44.293 20.1207ZM27.0579 29.5858V23.8779C27.0579 21.6995 28.8301 19.9274 31.0084 19.9274H36.4063C36.6337 19.9274 36.8541 19.8495 37.031 19.7067L37.9898 18.9321L38.8805 19.6977C40.1572 20.795 40.8893 22.3902 40.8893 24.0736V29.5857C40.8893 33.3991 37.787 36.5015 33.9735 36.5015C30.1601 36.5015 27.0579 33.3991 27.0579 29.5858ZM33.9737 38.4901C35.1117 38.4901 36.1993 38.2732 37.2006 37.8824V39.1563L33.9737 40.7386L30.7467 39.1563V37.8824C31.7479 38.2731 32.8356 38.4901 33.9737 38.4901ZM29.9883 44.9062L27.8466 42.0428L29.4105 40.7157L32.9793 42.4655V43.9959L29.9883 44.9062ZM37.9589 44.9062L34.9679 43.9961V42.4656L38.5367 40.7158L40.1006 42.0429L37.9589 44.9062ZM47.7515 40.7218C46.8514 39.5547 46.664 38.0509 47.2505 36.6987L48.7453 33.2518C48.928 32.8308 49.0538 32.3869 49.1191 31.9322C49.641 28.3059 52.7972 25.5713 56.4608 25.5713C60.1245 25.5713 63.2807 28.3059 63.8024 31.9322C63.8678 32.3867 63.9936 32.8307 64.1763 33.2518L65.671 36.6987C66.2574 38.0507 66.0702 39.5547 65.1701 40.7218C64.5036 41.5858 63.5591 42.1178 62.5224 42.2454C62.7365 41.6892 62.8761 41.0963 62.9274 40.4782C62.9727 39.931 62.5658 39.4506 62.0187 39.4053C61.472 39.3609 60.9912 39.7669 60.9457 40.314C60.7542 42.6268 58.7841 44.4386 56.4608 44.4386C53.9783 44.4386 51.9589 42.4191 51.9589 39.9366V35.1671C51.9589 34.1095 52.2701 33.0694 52.8435 32.1866C54.13 33.1686 55.7158 33.7303 57.3358 33.7731L60.9628 33.8688V36.1589C60.9628 36.7082 61.408 37.1532 61.957 37.1532C62.5061 37.1532 62.9513 36.7082 62.9513 36.1589V33.5996C62.9513 32.6645 62.219 31.9127 61.2843 31.8882L57.3881 31.7856C56.1265 31.7522 54.8928 31.2952 53.914 30.4992L53.6571 30.2901C53.3541 30.0437 52.9735 29.9307 52.585 29.9725C52.1967 30.014 51.8485 30.2049 51.6047 30.5096C50.5507 31.8265 49.97 33.4806 49.97 35.1675V39.937C49.97 40.7492 50.1213 41.5264 50.395 42.2436C49.3602 42.115 48.4171 41.5847 47.7515 40.7218ZM56.369 48.3639C55.6917 48.3639 55.1407 47.8129 55.1407 47.1356V46.2918C55.5671 46.3802 56.0085 46.4271 56.4607 46.4271C56.8475 46.4271 57.2271 46.3908 57.5972 46.324V47.1357C57.5973 47.813 57.0462 48.3639 56.369 48.3639Z" fill="#FF2B00"/>
    <path d="M2.13095 50.3713C1.63675 50.1315 1.04221 50.3386 0.802801 50.8328C0.270163 51.9332 0 53.1101 0 54.3309V57.5002C0 58.0494 0.445146 58.4944 0.994222 58.4944C1.5433 58.4944 1.98844 58.0494 1.98844 57.5002V54.3309C1.98844 53.4127 2.19166 52.5275 2.59267 51.6993C2.83194 51.2052 2.62528 50.6105 2.13095 50.3713Z" fill="#FF2B00"/>
    </svg>
    