<svg width="32" height="32" viewBox="0 0 32 32" fill="none" xmlns="http://www.w3.org/2000/svg">
    <path d="M13 11.5C8.8645 11.5 5.5 14.8645 5.5 19C5.5 23.1355 8.8645 26.5 13 26.5C17.1355 26.5 20.5 23.1355 20.5 19C20.5 14.8645 17.1355 11.5 13 11.5ZM16.6715 24.3585L16.1835 23.513L15.3175 24.013L15.804 24.855C15.0965 25.195 14.321 25.4115 13.501 25.4745V24H12.501V25.4745C11.681 25.4115 10.905 25.1955 10.198 24.855L10.6845 24.013L9.8185 23.513L9.3305 24.3585C8.67 23.9045 8.0975 23.332 7.643 22.671L8.4885 22.183L7.9885 21.317L7.1465 21.8035C6.8065 21.096 6.59 20.3205 6.527 19.5005H8V18.5005H6.5255C6.5885 17.6805 6.8045 16.9045 7.145 16.1975L7.987 16.684L8.487 15.818L7.6415 15.33C8.0955 14.6695 8.668 14.097 9.329 13.6425L9.817 14.488L10.683 13.988L10.1965 13.146C10.904 12.806 11.6795 12.5895 12.4995 12.5265V14H13.4995V12.5255C14.3195 12.5885 15.0955 12.8045 15.8025 13.145L15.316 13.987L16.182 14.487L16.67 13.6415C17.3305 14.0955 17.903 14.668 18.3575 15.329L17.512 15.817L18.012 16.683L18.854 16.1965C19.194 16.904 19.4105 17.6795 19.4735 18.4995H18V19.4995H19.4745C19.4115 20.3195 19.1955 21.0955 18.855 21.8025L18.013 21.316L17.513 22.182L18.3585 22.67C17.9045 23.332 17.332 23.9045 16.6715 24.3585Z" fill="white"/>
    <path d="M13.5 15H12.5V19C12.5 19.176 12.5925 19.3385 12.7425 19.4285L15.2425 20.9285L15.757 20.071L13.5 18.717V15Z" fill="white"/>
    <path d="M24.8 0.599997C24.6485 0.485497 24.4455 0.467996 24.2765 0.552496C24.107 0.637496 24 0.810496 24 0.999996V3H5V4H24.5C24.7765 4 25 3.7765 25 3.5V2L29.6945 5.5205L25 9.4325V7.5C25 7.2235 24.7765 7 24.5 7H13C6.3835 7 1 12.3835 1 19C1 25.6165 6.3835 31 13 31V30.5L13.0105 31L13.072 30.9995V29.9995L12.998 30C6.9335 29.999 2 25.065 2 19C2 12.9345 6.9345 8 13 8H24V10.5C24 10.694 24.1125 10.8705 24.288 10.9525C24.463 11.035 24.671 11.0085 24.82 10.884L30.82 5.884C30.937 5.786 31.0035 5.64 30.9995 5.487C30.9955 5.334 30.922 5.1915 30.7995 5.1L24.8 0.599997Z" fill="white"/>
    <path d="M18.1209 29.8555C18.4369 29.7055 18.7469 29.542 19.0429 29.3695L18.5389 28.505C18.2674 28.6635 17.9829 28.8135 17.6924 28.952L18.1209 29.8555Z" fill="white"/>
    <path d="M19.3418 27.9891L19.9198 28.8056C20.2018 28.6056 20.4793 28.3911 20.7438 28.1676L20.0983 27.4041C19.8558 27.6086 19.6013 27.8051 19.3418 27.9891Z" fill="white"/>
    <path d="M23.6309 21.8364L24.5969 22.0944C24.6864 21.7609 24.7614 21.4179 24.8214 21.0754L23.8359 20.9034C23.7809 21.2174 23.7124 21.5309 23.6309 21.8364Z" fill="white"/>
    <path d="M23.959 19.955L24.955 20.041C24.985 19.696 25 19.3455 25 19H24C24 19.3175 23.9865 19.6385 23.959 19.955Z" fill="white"/>
    <path d="M22.0273 25.287L22.8468 25.861C23.0438 25.58 23.2323 25.2835 23.4068 24.979L22.5398 24.481C22.3798 24.7595 22.2073 25.0305 22.0273 25.287Z" fill="white"/>
    <path d="M22.9795 23.633L23.8865 24.054C24.0325 23.739 24.167 23.415 24.2845 23.09L23.345 22.748C23.237 23.046 23.114 23.344 22.9795 23.633Z" fill="white"/>
    <path d="M15.1494 30.808L14.9709 29.8235C14.6629 29.8795 14.3439 29.923 14.0234 29.953L14.1164 30.949C14.4654 30.9165 14.8129 30.869 15.1494 30.808Z" fill="white"/>
    <path d="M16.8138 29.3215C16.5143 29.432 16.2083 29.53 15.9033 29.6135L16.1668 30.5785C16.4998 30.487 16.8338 30.3805 17.1593 30.26L16.8138 29.3215Z" fill="white"/>
    <path d="M20.8018 26.7545L21.5108 27.4605C21.7533 27.2165 21.9898 26.957 22.2138 26.6895L21.4463 26.048C21.2408 26.2935 21.0243 26.531 20.8018 26.7545Z" fill="white"/>
    <path d="M1 3H2V4H1V3Z" fill="white"/>
    <path d="M3 3H4V4H3V3Z" fill="white"/>
    </svg>
    