<svg xmlns="http://www.w3.org/2000/svg" id="fi_17396531" viewBox="0 0 64 64"><path d="M40.02413,32.01366a7.5163,7.5163,0,0,0-5.80375,2.21551A1.00108,1.00108,0,1,0,35.64,35.641a5.59191,5.59191,0,0,1,7.88825-.00189A1.00088,1.00088,0,0,0,44.944,35.639C46.44468,33.83884,41.37773,31.91391,40.02413,32.01366Z"></path><path d="M57.91641,51.09387l-3.38652-2.45133c7.48655-9.58225,7.16731-24.5087-.3519-33.75891C43.31853.4423,20.76346.40423,9.864,14.83019c-7.72407,9.45991-7.88267,24.79326.04178,34.41674,8.88194,11.865,27.03175,14.31388,38.73636,5.27954L51.07726,57.891a4.90356,4.90356,0,1,0,6.83915-6.79711Zm-5.6701-4.10429c-.03575.00072-2.47332-1.80962-2.50882-1.816a11.61871,11.61871,0,0,0-.62123-12.17239H57.99A25.64294,25.64294,0,0,1,52.9084,47.46879Zm-7.273.53659a9.666,9.666,0,0,1-14.08-3.90871c-4.31838-9.67943,7.675-18.19727,15.3756-10.90023A9.64606,9.64606,0,0,1,44.97335,47.52617ZM32.20237,58.0259c-3.5782.11949-6.76063-4.72739-8.67976-12.38737a55.39293,55.39293,0,0,1,5.87431-.56284,11.56306,11.56306,0,0,0,9.29515,6.05182C36.88919,55.37066,34.57132,57.86507,32.20237,58.0259ZM10.99653,47.3368A25.639,25.639,0,0,1,6.00992,33.00116H20.011C20.4029,49.558,24.75184,40.77812,10.99653,47.3368ZM10.988,16.65893c13.72188,6.56179,9.39656-2.24384,9.00808,14.34L5.99452,30.99878A25.879,25.879,0,0,1,10.988,16.65893ZM32,5.96915c3.45508,0,6.64886,5.01717,8.459,12.38967A56.70208,56.70208,0,0,1,32,18.98456a56.70393,56.70393,0,0,1-8.49291-.63075C25.39829,10.62988,28.77418,5.96915,32,5.96915ZM58.00544,30.99878H47.34151a11.44312,11.44312,0,0,0-3.40852-2.1409,59.42517,59.42517,0,0,0-1.05551-8.87458A37.33694,37.33694,0,0,0,53.012,16.65893,25.879,25.879,0,0,1,58.00544,30.99878ZM28.55969,43.11347c-1.882.10486-3.70776.29436-5.45745.56378a59.70422,59.70422,0,0,1-1.089-10.67609H30.0589A11.61584,11.61584,0,0,0,28.55969,43.11347Zm3.27383-12.11469h-9.835a59.41651,59.41651,0,0,1,1.07281-10.686,59.76046,59.76046,0,0,0,17.8239.00493,57.078,57.078,0,0,1,1.00289,7.91687,11.11349,11.11349,0,0,0-1.62466-.21736A11.50864,11.50864,0,0,0,31.83352,30.99878ZM51.7448,15.06537a36.052,36.052,0,0,1-9.29843,2.96206c-1.24066-5.10058-3.14557-9.15232-5.44376-11.57095A26.03482,26.03482,0,0,1,51.7448,15.06537ZM26.96741,6.46186c-2.30345,2.42053-4.19705,6.47134-5.4283,11.56307a36.03653,36.03653,0,0,1-9.284-2.95956A26.03514,26.03514,0,0,1,26.96741,6.46186ZM12.2493,48.93806a36.01536,36.01536,0,0,1,9.29647-2.964c1.258,5.22506,3.12895,9.18941,5.37465,11.55323A25.84177,25.84177,0,0,1,12.2493,48.93806ZM37.08406,57.5148A19.92956,19.92956,0,0,0,40.875,51.07523,11.56084,11.56084,0,0,0,45.164,49.722l2.30436,3.1834A25.56842,25.56842,0,0,1,37.08406,57.5148Zm20.09515-.3356a2.91353,2.91353,0,0,1-4.46328-.43709L46.83707,48.6206a11.81087,11.81087,0,0,0,1.785-1.78421l8.14557,5.89614A2.91674,2.91674,0,0,1,57.17921,57.1792Z"></path></svg>