<svg width="185" height="54" viewBox="0 0 185 54" fill="none" xmlns="http://www.w3.org/2000/svg">
<path d="M27.5191 26.1001L0.789062 52.8301" stroke="#D8D9DA" stroke-width="0.7797" stroke-miterlimit="10"/>
<path d="M40.5386 26.1001L13.8086 52.8301" stroke="#D8D9DA" stroke-width="0.7797" stroke-miterlimit="10"/>
<path d="M53.5599 26.1001L26.8398 52.8301" stroke="#D8D9DA" stroke-width="0.7797" stroke-miterlimit="10"/>
<path d="M66.5793 26.1001L39.8594 52.8301" stroke="#D8D9DA" stroke-width="0.7797" stroke-miterlimit="10"/>
<path d="M79.5989 26.1001L52.8789 52.8301" stroke="#D8D9DA" stroke-width="0.7797" stroke-miterlimit="10"/>
<path d="M92.6284 26.1001L65.8984 52.8301" stroke="#D8D9DA" stroke-width="0.7797" stroke-miterlimit="10"/>
<path d="M105.648 26.1001L78.918 52.8301" stroke="#D8D9DA" stroke-width="0.7797" stroke-miterlimit="10"/>
<path d="M118.668 26.1001L91.9375 52.8301" stroke="#D8D9DA" stroke-width="0.7797" stroke-miterlimit="10"/>
<path d="M131.691 26.1001L104.961 52.8301" stroke="#D8D9DA" stroke-width="0.7797" stroke-miterlimit="10"/>
<path d="M144.71 26.1001L117.98 52.8301" stroke="#D8D9DA" stroke-width="0.7797" stroke-miterlimit="10"/>
<path d="M157.73 26.1001L131 52.8301" stroke="#D8D9DA" stroke-width="0.7797" stroke-miterlimit="10"/>
<path d="M170.75 26.1001L144.02 52.8301" stroke="#D8D9DA" stroke-width="0.7797" stroke-miterlimit="10"/>
<path d="M183.771 26.1001L157.051 52.8301" stroke="#D8D9DA" stroke-width="0.7797" stroke-miterlimit="10"/>
<path d="M118.659 0.110107H0.789062V10.0001H118.659V0.110107Z" fill="#FF2B00"/>
<path d="M183.769 0.110107H134.629V10.0001H183.769V0.110107Z" fill="#FDFDFD"/>
</svg>
