<svg width="100" height="100" viewBox="0 0 100 100" fill="none" xmlns="http://www.w3.org/2000/svg">
    <path d="M50.0003 93.75C57.5361 93.75 64.9442 91.8035 71.5067 88.0991C78.0693 84.3946 83.5636 79.0579 87.4574 72.6059C91.3513 66.154 93.5125 58.8057 93.7317 51.273C93.951 43.7403 92.2208 36.2787 88.7088 29.6112C88.5128 29.2484 88.1812 28.9777 87.7865 28.8583C87.3918 28.7389 86.9659 28.7803 86.6016 28.9736C86.2373 29.167 85.9642 29.4964 85.8419 29.8903C85.7195 30.2841 85.7578 30.7104 85.9484 31.0761C89.0245 36.9093 90.6299 43.4054 90.6253 50C88.3987 103.886 11.6014 103.887 9.37525 49.9997C8.99897 19.8722 42.5006 -0.321335 68.9245 14.0524C69.2906 14.2466 69.7189 14.2874 70.1151 14.1658C70.5113 14.0443 70.843 13.7703 71.0372 13.4042C71.2315 13.0381 71.2723 12.6098 71.1507 12.2136C71.0292 11.8173 70.7552 11.4856 70.389 11.2914C64.1045 7.97623 57.1056 6.24565 50.0003 6.25001C-8.03167 8.64776 -8.031 91.3533 50.0003 93.75Z" fill="#FF2B00"/>
    <path d="M50.0012 37.5C51.3541 37.4991 52.6978 37.7237 53.9769 38.1645C54.3686 38.2994 54.7979 38.2732 55.1703 38.0916C55.5427 37.9101 55.8278 37.588 55.9628 37.1963C56.6493 34.4323 51.7827 34.5426 50.0013 34.3748C29.2751 35.2314 29.2761 64.7693 50.0013 65.625C54.1439 65.6204 58.1155 63.9727 61.0447 61.0434C63.9739 58.1141 65.6216 54.1425 65.6262 50C65.4666 48.1862 65.5723 43.3704 62.8203 44.0543C62.6262 44.121 62.4472 44.2253 62.2935 44.3613C62.1398 44.4972 62.0144 44.6621 61.9245 44.8466C61.8345 45.031 61.7818 45.2314 61.7694 45.4362C61.7569 45.6411 61.785 45.8463 61.8519 46.0403C62.2868 47.315 62.5062 48.6532 62.5012 50C61.8747 66.5573 38.1277 66.5579 37.5012 49.9998C37.505 46.6858 38.8232 43.5086 41.1666 41.1653C43.51 38.8219 46.6872 37.5038 50.0012 37.5Z" fill="#FF2B00"/>
    <path d="M64.9592 26.1482C65.0587 25.9688 65.1219 25.7715 65.1452 25.5676C65.1685 25.3638 65.1513 25.1573 65.0948 24.9601C65.0383 24.7628 64.9434 24.5787 64.8157 24.4181C64.688 24.2575 64.5298 24.1237 64.3504 24.0242C59.9575 21.5927 55.0196 20.3156 49.9987 20.3125C10.6199 21.94 10.6204 78.0607 49.9989 79.6875C55.1632 79.6905 60.2388 78.3455 64.724 75.7855C69.2091 73.2255 72.9483 69.5392 75.572 65.091C78.1956 60.6429 79.6128 55.5869 79.6834 50.4231C79.754 45.2593 78.4756 40.1665 75.9745 35.6483C75.8755 35.468 75.7418 35.309 75.5812 35.1805C75.4206 35.052 75.2362 34.9565 75.0386 34.8994C74.8409 34.8423 74.634 34.8249 74.4296 34.848C74.2252 34.8711 74.0274 34.9343 73.8475 35.0341C73.6676 35.1338 73.5092 35.2681 73.3813 35.4292C73.2534 35.5903 73.1586 35.7751 73.1023 35.973C73.046 36.1708 73.0294 36.3778 73.0533 36.5821C73.0772 36.7864 73.1412 36.984 73.2417 37.1635C83.1456 54.3398 69.8411 76.9065 49.9983 76.5622C42.956 76.5544 36.2043 73.7533 31.2247 68.7737C26.245 63.794 23.444 57.0423 23.4362 50C23.0959 30.1578 45.6566 16.8517 62.8354 26.7575C63.0148 26.8573 63.2121 26.9208 63.416 26.9442C63.6199 26.9676 63.8265 26.9505 64.0238 26.8939C64.2211 26.8373 64.4053 26.7423 64.5658 26.6143C64.7264 26.4863 64.86 26.328 64.9592 26.1482Z" fill="#FF2B00"/>
    <path d="M68.0069 21.7163L68.5807 29.2106L48.8961 48.8953C48.613 49.1904 48.4568 49.5846 48.461 49.9934C48.4652 50.4023 48.6295 50.7932 48.9187 51.0823C49.2078 51.3714 49.5987 51.5357 50.0076 51.5398C50.4164 51.544 50.8106 51.3878 51.1056 51.1047L70.7902 31.4201L78.2844 31.9939C78.509 32.0111 78.7347 31.9795 78.9459 31.9013C79.1572 31.8231 79.349 31.7001 79.5082 31.5408L90.8806 20.1692C91.0875 19.9561 91.2299 19.6888 91.2913 19.3982C91.3526 19.1076 91.3305 18.8055 91.2273 18.527C91.1242 18.2484 90.9443 18.0048 90.7085 17.8242C90.4727 17.6436 90.1906 17.5335 89.8948 17.5065L83.0208 16.9801L82.4943 10.1059C82.4673 9.8102 82.357 9.52818 82.1764 9.29246C81.9958 9.05674 81.7522 8.87695 81.4737 8.77387C81.1952 8.67078 80.8932 8.64861 80.6026 8.70993C80.312 8.77124 80.0448 8.91353 79.8317 9.12035L68.4601 20.4926C68.3007 20.6517 68.1776 20.8435 68.0994 21.0548C68.0211 21.266 67.9896 21.4917 68.0069 21.7163ZM79.6379 13.7329C80.2632 21.0095 79.0326 19.7286 86.2679 20.3628L77.8068 28.8231L71.6492 28.3516L71.1777 22.1939L79.6379 13.7329Z" fill="#FF2B00"/>
    </svg>
    