<svg width="54" height="54" viewBox="0 0 54 54" fill="none" xmlns="http://www.w3.org/2000/svg">
    <path d="M35.7939 32.6699H29.7768L31.0304 28.5041C31.4138 27.2586 31.2932 25.9123 30.6946 24.7546C30.0959 23.597 29.067 22.7205 27.8289 22.3134C27.4734 22.1962 27.0974 22.1537 26.7247 22.1886C26.3519 22.2234 25.9904 22.3348 25.6627 22.5159C25.335 22.6969 25.0482 22.9437 24.8203 23.2407C24.5924 23.5377 24.4283 23.8786 24.3382 24.242L24.1454 25.052C23.418 27.9707 21.9115 30.6371 19.7868 32.7663L18.6875 33.8463C18.4082 33.4944 18.0536 33.2096 17.6498 33.0127C17.246 32.8158 16.8032 32.7118 16.3539 32.7084H14.9461C14.1548 32.7084 13.3953 33.02 12.8322 33.5759C12.2691 34.1318 11.9476 34.8872 11.9375 35.6784V48.0984C11.9375 48.8964 12.2545 49.6616 12.8187 50.2258C13.3829 50.79 14.1481 51.107 14.9461 51.107H16.3539C16.8718 51.1058 17.3805 50.9701 17.8301 50.7132C18.2798 50.4562 18.655 50.0869 18.9189 49.6413L19.1889 49.7763C20.932 50.6467 22.8528 51.1022 24.8011 51.107H31.7246C32.8692 51.1126 33.9972 50.8335 35.0072 50.2948C36.0171 49.7562 36.8773 48.9749 37.5104 48.0213C38.8577 46.0067 39.576 43.6371 39.5739 41.2134V36.4113C39.574 35.9167 39.4759 35.427 39.2855 34.9705C39.0951 34.5141 38.816 34.0999 38.4645 33.752C38.113 33.404 37.696 33.1293 37.2376 32.9435C36.7792 32.7578 36.2885 32.6648 35.7939 32.6699ZM17.3568 48.0984C17.3568 48.3849 17.243 48.6596 17.0405 48.8621C16.8379 49.0646 16.5632 49.1784 16.2768 49.1784H14.9461C14.6596 49.1784 14.3849 49.0646 14.1824 48.8621C13.9799 48.6596 13.8661 48.3849 13.8661 48.0984V35.6784C13.8661 35.392 13.9799 35.1173 14.1824 34.9148C14.3849 34.7122 14.6596 34.5984 14.9461 34.5984H16.3539C16.6268 34.618 16.8821 34.7403 17.0682 34.9408C17.2543 35.1412 17.3575 35.4049 17.3568 35.6784V48.0984ZM37.6068 41.2134C37.6148 43.2715 37.0106 45.2854 35.8711 46.9991C35.4151 47.6808 34.7983 48.2397 34.0752 48.6265C33.352 49.0133 32.5447 49.2161 31.7246 49.217H24.8011C23.1545 49.2154 21.5307 48.8325 20.0568 48.0984L19.2854 47.7127V35.8713L21.0596 34.097C23.4335 31.7235 25.1197 28.751 25.9389 25.4956L26.1318 24.7049C26.1891 24.4933 26.3277 24.313 26.5175 24.2034C26.6148 24.161 26.7199 24.139 26.8261 24.139C26.9323 24.139 27.0373 24.161 27.1346 24.2034C27.5147 24.3298 27.8661 24.5299 28.1688 24.7922C28.4715 25.0545 28.7195 25.3739 28.8986 25.7322C29.0777 26.0904 29.1844 26.4805 29.2127 26.88C29.2409 27.2795 29.1901 27.6807 29.0632 28.0606L27.4432 33.4799C27.4013 33.6236 27.3934 33.7751 27.4202 33.9224C27.447 34.0696 27.5077 34.2087 27.5975 34.3284C27.6851 34.4505 27.8011 34.5494 27.9355 34.6166C28.07 34.6838 28.2187 34.7173 28.3689 34.7141H35.6782C35.9163 34.7141 36.152 34.761 36.372 34.8521C36.5919 34.9432 36.7918 35.0768 36.9601 35.2451C37.1284 35.4135 37.262 35.6133 37.3531 35.8333C37.4442 36.0532 37.4911 36.2889 37.4911 36.527L37.6068 41.2134Z" fill="#FF2B00"/>
    <path d="M21.2155 14.0786L20.5984 17.6465C20.5242 18.0413 20.5647 18.4492 20.715 18.8217C20.8654 19.1943 21.1194 19.516 21.447 19.7486C21.8095 20.0189 22.2484 20.1674 22.7005 20.1729C23.0496 20.1674 23.3928 20.0816 23.7034 19.9222L27.0013 18.2251L30.222 19.9222C30.5761 20.1092 30.976 20.1921 31.3753 20.1614C31.7746 20.1307 32.157 19.9876 32.4784 19.7486C32.8026 19.5175 33.0544 19.199 33.2047 18.8302C33.3549 18.4615 33.3973 18.0577 33.327 17.6658L32.787 14.0786L35.3134 11.5715C35.6052 11.2955 35.8126 10.9424 35.9116 10.5532C36.0106 10.164 35.9971 9.75475 35.8727 9.37292C35.7481 8.9915 35.5197 8.65233 35.2131 8.39344C34.9065 8.13455 34.5339 7.96618 34.137 7.9072L30.5305 7.38649L28.9298 4.08863C28.7498 3.73162 28.4741 3.4316 28.1336 3.22198C27.7931 3.01236 27.4011 2.90137 27.0013 2.90137C26.6014 2.90137 26.2094 3.01236 25.8689 3.22198C25.5284 3.4316 25.2528 3.73162 25.0727 4.08863L23.472 7.34792L19.8655 7.86863C19.4686 7.92761 19.096 8.09598 18.7894 8.35487C18.4829 8.61376 18.2545 8.95293 18.1298 9.33435C17.9974 9.72146 17.9797 10.1386 18.079 10.5355C18.1782 10.9325 18.3901 11.2922 18.6891 11.5715L21.2155 14.0786ZM20.0584 9.77792L24.1663 9.18006C24.3518 9.19207 24.5368 9.14907 24.698 9.05645C24.8593 8.96383 24.9896 8.82569 25.0727 8.65935L27.0013 4.9372C27.0182 4.90028 27.0454 4.86898 27.0795 4.84704C27.1137 4.8251 27.1535 4.81344 27.1941 4.81344C27.2347 4.81344 27.2745 4.8251 27.3087 4.84704C27.3429 4.86898 27.3701 4.90028 27.387 4.9372L29.3155 8.65935C29.3849 8.80018 29.4881 8.92152 29.6161 9.01243C29.744 9.10335 29.8926 9.16096 30.0484 9.18006L34.1563 9.77792C34.1962 9.78606 34.2333 9.80462 34.2638 9.83171C34.2943 9.85881 34.3171 9.89348 34.3298 9.9322C34.3485 9.96445 34.3583 10.001 34.3583 10.0383C34.3583 10.0755 34.3485 10.1121 34.3298 10.1443L31.3598 13.0372C31.2475 13.1495 31.1629 13.2863 31.1127 13.437C31.0625 13.5876 31.048 13.7479 31.0706 13.9051L31.7841 17.9743C31.7972 18.0154 31.7946 18.0598 31.7768 18.099C31.759 18.1382 31.7272 18.1694 31.6877 18.1865C31.6543 18.2115 31.6137 18.2251 31.572 18.2251C31.5303 18.2251 31.4896 18.2115 31.4563 18.1865L27.792 16.2579C27.6565 16.1819 27.5038 16.142 27.3484 16.142C27.1931 16.142 27.0403 16.1819 26.9048 16.2579L23.2213 18.1865C23.1909 18.2099 23.1536 18.2227 23.1152 18.2227C23.0768 18.2227 23.0395 18.2099 23.0091 18.1865C22.9696 18.1694 22.9378 18.1382 22.92 18.099C22.9022 18.0598 22.8996 18.0154 22.9127 17.9743L23.6263 13.9051C23.6488 13.7479 23.6343 13.5876 23.5841 13.437C23.5339 13.2863 23.4493 13.1495 23.337 13.0372L20.367 10.1443C20.3484 10.1121 20.3386 10.0755 20.3386 10.0383C20.3386 10.001 20.3484 9.96445 20.367 9.9322C20.3169 9.93505 20.2672 9.92153 20.2255 9.89371C20.1838 9.86588 20.1522 9.82524 20.1355 9.77792H20.0584Z" fill="#FF2B00"/>
    <path d="M14.1568 25.5538C14.444 25.559 14.7288 25.5 14.9904 25.3811C15.2519 25.2621 15.4836 25.0862 15.6684 24.8663C15.8533 24.6463 15.9866 24.3878 16.0588 24.1097C16.1309 23.8316 16.14 23.5409 16.0853 23.2588L15.5646 20.3274L17.7246 18.2252C17.9968 17.9755 18.1915 17.6528 18.2856 17.2957C18.3797 16.9385 18.3692 16.5618 18.2555 16.2104C18.1417 15.859 17.9294 15.5476 17.6439 15.3133C17.3583 15.079 17.0115 14.9317 16.6446 14.8888L13.6939 14.4645L12.3632 11.7838C12.1856 11.4753 11.9299 11.2191 11.6218 11.041C11.3137 10.8628 10.9641 10.769 10.6082 10.769C10.2523 10.769 9.90267 10.8628 9.59457 11.041C9.28646 11.2191 9.03075 11.4753 8.85319 11.7838L7.52248 14.4645L4.57176 14.8888C4.2049 14.9317 3.85807 15.079 3.57251 15.3133C3.28695 15.5476 3.07467 15.859 2.96092 16.2104C2.84717 16.5618 2.83672 16.9385 2.93083 17.2957C3.02493 17.6528 3.21963 17.9755 3.49176 18.2252L5.63248 20.3274L5.11176 23.2588C5.04495 23.6222 5.08396 23.9972 5.22414 24.3391C5.36431 24.681 5.59977 24.9754 5.90248 25.1874C6.19813 25.4035 6.54921 25.5309 6.91464 25.5548C7.28007 25.5787 7.64476 25.4981 7.96605 25.3224L10.6082 23.9338L13.2503 25.3224C13.5289 25.4727 13.8402 25.5522 14.1568 25.5538ZM10.6082 21.8895C10.4528 21.8886 10.2998 21.9285 10.1646 22.0052L7.02105 23.5867L7.71534 20.1538C7.72607 19.9887 7.69658 19.8235 7.62939 19.6723C7.56221 19.5212 7.45934 19.3886 7.32962 19.2859L4.84176 16.7981L8.31319 16.2967C8.46667 16.2779 8.61281 16.2202 8.7377 16.1291C8.8626 16.038 8.96211 15.9164 9.02676 15.7759L10.6275 12.6324L12.1896 15.7759C12.2543 15.9164 12.3538 16.038 12.4787 16.1291C12.6036 16.2202 12.7497 16.2779 12.9032 16.2967L16.3746 16.8559L13.8868 19.2859C13.7744 19.3982 13.6898 19.5351 13.6396 19.6857C13.5894 19.8363 13.575 19.9966 13.5975 20.1538L14.1568 23.6252L11.0518 22.0052C10.9166 21.9285 10.7636 21.8886 10.6082 21.8895Z" fill="#FF2B00"/>
    <path d="M51.0112 16.2195C50.901 15.8705 50.6938 15.5601 50.4138 15.3244C50.1338 15.0888 49.7925 14.9377 49.4298 14.8888L46.4791 14.4645L45.1483 11.7838C44.9708 11.4753 44.7151 11.2191 44.407 11.041C44.0989 10.8628 43.7493 10.769 43.3933 10.769C43.0374 10.769 42.6878 10.8628 42.3797 11.041C42.0716 11.2191 41.8159 11.4753 41.6384 11.7838L40.3076 14.4645L37.3569 14.8888C36.9901 14.9317 36.6432 15.079 36.3577 15.3133C36.0721 15.5476 35.8598 15.859 35.7461 16.2104C35.6323 16.5618 35.6219 16.9385 35.716 17.2957C35.8101 17.6528 36.0048 17.9755 36.2769 18.2252L38.4176 20.3274L37.8969 23.2588C37.8301 23.6222 37.8691 23.9972 38.0093 24.3391C38.1495 24.681 38.3849 24.9754 38.6876 25.1874C38.9833 25.4035 39.3344 25.5309 39.6998 25.5548C40.0652 25.5787 40.4299 25.4981 40.7512 25.3224L43.3933 23.9338L46.0355 25.3224C46.3141 25.4727 46.6254 25.5522 46.9419 25.5538C47.2292 25.559 47.514 25.5 47.7755 25.3811C48.0371 25.2621 48.2687 25.0862 48.4536 24.8663C48.6384 24.6463 48.7718 24.3878 48.8439 24.1097C48.9161 23.8316 48.9251 23.5409 48.8705 23.2588L48.3498 20.3274L50.4905 18.2252C50.7592 17.9751 50.9509 17.6535 51.0431 17.2982C51.1354 16.943 51.1243 16.5687 51.0112 16.2195ZM46.6719 19.2859C46.5596 19.3982 46.475 19.5351 46.4248 19.6857C46.3746 19.8363 46.3601 19.9966 46.3826 20.1538L46.9419 23.6252L43.8369 22.0052C43.7014 21.9292 43.5487 21.8893 43.3933 21.8893C43.238 21.8893 43.0853 21.9292 42.9498 22.0052L39.8062 23.5867L40.5005 20.1538C40.5112 19.9887 40.4817 19.8235 40.4145 19.6723C40.3474 19.5212 40.2445 19.3886 40.1148 19.2859L37.6269 16.7981L41.0983 16.2967C41.2518 16.2779 41.398 16.2202 41.5229 16.1291C41.6478 16.038 41.7473 15.9164 41.8119 15.7759L43.4126 12.6324L44.9748 15.7759C45.0394 15.9164 45.1389 16.038 45.2638 16.1291C45.3887 16.2202 45.5349 16.2779 45.6884 16.2967L49.1598 16.8559L46.6719 19.2859Z" fill="#FF2B00"/>
    </svg>
    