<svg width="62" height="62" viewBox="0 0 62 62" fill="none" xmlns="http://www.w3.org/2000/svg">
    <g clip-path="url(#clip0_1215_52)">
    <path d="M15.8441 46.1559C15.3714 45.6831 14.6048 45.683 14.1315 46.1559L0.354653 59.9327C-0.118218 60.4056 -0.118218 61.1723 0.354653 61.6453C0.591149 61.8817 0.901028 61.9999 1.21091 61.9999C1.52079 61.9999 1.83079 61.8816 2.06716 61.6452L15.8441 47.8684C16.317 47.3956 16.317 46.6287 15.8441 46.1559Z" fill="#505050"/>
    <path d="M22.6843 47.5697C22.2113 47.0969 21.4448 47.0969 20.9717 47.5697L9.96012 58.5813C9.48725 59.0542 9.48725 59.8209 9.96012 60.2939C10.1966 60.5304 10.5065 60.6486 10.8164 60.6486C11.1263 60.6486 11.4361 60.5304 11.6726 60.2939L22.6842 49.2824C23.1572 48.8094 23.1572 48.0426 22.6843 47.5697Z" fill="#505050"/>
    <path d="M28.5926 48.2078L23.3195 53.4809C22.8466 53.9538 22.8466 54.7206 23.3195 55.1936C23.556 55.4301 23.8659 55.5483 24.1758 55.5483C24.4856 55.5483 24.7955 55.4301 25.032 55.1936L30.3052 49.9204C30.778 49.4476 30.778 48.6808 30.3052 48.2078C29.8322 47.7349 29.0656 47.7349 28.5926 48.2078Z" fill="#505050"/>
    <path d="M2.56259 52.3929C2.87259 52.3929 3.18235 52.2747 3.41884 52.0382L14.4304 41.0266C14.9033 40.5538 14.9033 39.787 14.4304 39.314C13.9574 38.8411 13.1909 38.8411 12.7178 39.314L1.70622 50.3255C1.23334 50.7984 1.23334 51.5652 1.70622 52.0382C1.94283 52.2747 2.25271 52.3929 2.56259 52.3929Z" fill="#505050"/>
    <path d="M7.66415 39.037C7.97415 39.037 8.28391 38.9188 8.52041 38.6823L13.7936 33.4092C14.2664 32.9363 14.2664 32.1696 13.7936 31.6966C13.3206 31.2237 12.554 31.2237 12.0809 31.6966L6.80778 36.9698C6.33491 37.4427 6.33491 38.2095 6.80778 38.6825C7.04427 38.9188 7.35415 39.037 7.66415 39.037Z" fill="#505050"/>
    <path d="M61.6444 0.354765C61.3649 0.0754022 60.9671 -0.050172 60.5773 0.0186092L31.4134 5.17442C30.9688 5.25301 30.6048 5.57233 30.4692 6.00294C30.3336 6.43355 30.4487 6.90388 30.7679 7.22308L35.9137 12.3688L31.9348 16.3477C31.4619 16.8206 31.4619 17.5874 31.9348 18.0604C32.4078 18.5332 33.1743 18.5334 33.6474 18.0604L38.4827 13.2252C38.7097 12.9982 38.8374 12.6901 38.8374 12.369C38.8374 12.0478 38.7097 11.7398 38.4827 11.5127L34.1247 7.15466L59.2945 2.70507L54.8446 27.8747L50.4866 23.5166C50.0136 23.0437 49.2471 23.0437 48.774 23.5166L32.2541 40.0367L21.9626 29.7451L25.941 25.7667C26.4139 25.2938 26.4139 24.527 25.941 24.0541C25.468 23.5813 24.7015 23.5813 24.2284 24.0541L19.3937 28.8888C18.9208 29.3618 18.9208 30.1284 19.3937 30.6014L31.3979 42.6056C31.625 42.8326 31.933 42.9603 32.2541 42.9603C32.5753 42.9603 32.8832 42.8326 33.1104 42.6056L49.6302 26.0856L54.776 31.2314C55.0953 31.5506 55.5655 31.6655 55.9961 31.5301C56.4267 31.3944 56.7461 31.0305 56.8248 30.5859L61.9804 1.42209C62.0494 1.03265 61.9238 0.634371 61.6444 0.354765Z" fill="#505050"/>
    <path d="M28.938 22.2678C29.6067 22.2678 30.1489 21.7257 30.1489 21.0569C30.1489 20.3881 29.6067 19.8459 28.938 19.8459H28.937C28.2683 19.8459 27.7266 20.3881 27.7266 21.0569C27.7266 21.7257 28.2692 22.2678 28.938 22.2678Z" fill="#505050"/>
    </g>
    <defs>
    <clipPath id="clip0_1215_52">
    <rect width="62" height="62" fill="white"/>
    </clipPath>
    </defs>
    </svg>
    