<svg width="32" height="32" viewBox="0 0 32 32" fill="none" xmlns="http://www.w3.org/2000/svg">
    <path d="M16.241 10.207C15.957 10.207 15.6755 10.217 15.395 10.233C15.2696 10.0612 15.1053 9.92141 14.9156 9.82514C14.726 9.72886 14.5162 9.67878 14.3035 9.67896H13.6535C13.5845 9.67871 13.5171 9.65852 13.4593 9.62081C13.4016 9.58311 13.356 9.5295 13.328 9.46646C13.325 9.45796 13.322 9.44946 13.3185 9.44146C13.2912 9.37555 13.2845 9.30298 13.299 9.23316C13.3135 9.16334 13.3487 9.09951 13.4 9.04996L13.85 8.59696C13.9778 8.47216 14.0793 8.32307 14.1486 8.15846C14.2179 7.99386 14.2535 7.81705 14.2535 7.63846C14.2548 7.45821 14.2201 7.27952 14.1514 7.11287C14.0827 6.94621 13.9814 6.79495 13.8535 6.66796L13.1795 5.99446C12.9245 5.74009 12.579 5.59724 12.2188 5.59724C11.8585 5.59724 11.513 5.74009 11.258 5.99446L10.8005 6.45146C10.7512 6.50044 10.6888 6.53425 10.6208 6.54888C10.5529 6.5635 10.4821 6.55832 10.417 6.53396L10.3945 6.52446C10.3295 6.49602 10.2741 6.44934 10.235 6.39006C10.196 6.33077 10.1749 6.26144 10.1745 6.19046V5.54996C10.1734 5.18859 10.0291 4.8424 9.77308 4.58734C9.51709 4.33228 9.17037 4.18919 8.809 4.18946H7.859C7.49737 4.18879 7.15027 4.33171 6.89395 4.58681C6.63763 4.84191 6.49306 5.18833 6.492 5.54996V6.19396C6.49212 6.26573 6.47076 6.33589 6.43066 6.39542C6.39056 6.45494 6.33356 6.5011 6.267 6.52796L6.246 6.53696C6.1814 6.56151 6.11106 6.56679 6.04351 6.55214C5.97597 6.5375 5.91413 6.50356 5.8655 6.45446L5.4085 5.99746C5.15197 5.74399 4.80588 5.60185 4.44525 5.60185C4.08462 5.60185 3.73853 5.74399 3.482 5.99746L2.8055 6.67146C2.55258 6.92767 2.41077 7.27319 2.41077 7.63321C2.41077 7.99322 2.55258 8.33875 2.8055 8.59496L3.2635 9.05246C3.3136 9.10225 3.34781 9.1658 3.36178 9.23504C3.37575 9.30429 3.36887 9.37612 3.342 9.44146C3.339 9.44846 3.336 9.45646 3.333 9.46446C3.3041 9.52807 3.25754 9.58204 3.19887 9.61998C3.1402 9.65791 3.07187 9.67821 3.002 9.67846H2.3605C1.99905 9.67952 1.65278 9.82395 1.39771 10.0801C1.14264 10.3362 0.999602 10.683 1 11.0445V11.9945C0.999734 12.3558 1.14283 12.7025 1.39789 12.9585C1.65294 13.2145 1.99913 13.3589 2.3605 13.36H3.0045C3.07434 13.3603 3.14262 13.3807 3.20127 13.4186C3.25992 13.4565 3.3065 13.5104 3.3355 13.574C3.3385 13.582 3.3415 13.59 3.3445 13.597C3.37144 13.6623 3.37832 13.7342 3.36425 13.8035C3.35018 13.8728 3.3158 13.9363 3.2655 13.986L2.8085 14.4435C2.55444 14.6985 2.41179 15.0437 2.41179 15.4037C2.41179 15.7637 2.55444 16.109 2.8085 16.364L3.487 17.05C3.54957 17.1108 3.61789 17.1653 3.691 17.213C2.24491 19.5402 1.47966 22.226 1.482 24.966V25.0815C1.482 25.2141 1.53468 25.3412 1.62845 25.435C1.72222 25.5288 1.84939 25.5815 1.982 25.5815H13.5545C13.6711 26.2086 14.0034 26.7751 14.4939 27.1828C14.9844 27.5906 15.6022 27.8138 16.24 27.8138C16.8778 27.8138 17.4956 27.5906 17.9861 27.1828C18.4766 26.7751 18.8089 26.2086 18.9255 25.5815H30.5C30.6326 25.5815 30.7598 25.5288 30.8536 25.435C30.9473 25.3412 31 25.2141 31 25.0815V24.966C30.9956 21.053 29.4393 17.3015 26.6724 14.5346C23.9055 11.7677 20.154 10.2113 16.241 10.207ZM4.19 16.3365L3.5155 15.657C3.44851 15.5896 3.41091 15.4985 3.41091 15.4035C3.41091 15.3085 3.44851 15.2173 3.5155 15.15L3.9725 14.6925C4.1613 14.505 4.2905 14.2659 4.34388 14.0053C4.39725 13.7446 4.37242 13.474 4.2725 13.2275C4.269 13.218 4.2655 13.208 4.2615 13.1985C4.15865 12.9495 3.98407 12.7367 3.75997 12.5872C3.53588 12.4377 3.27238 12.3583 3.003 12.359H2.3605C2.26427 12.3582 2.17228 12.3192 2.1047 12.2507C2.03712 12.1822 1.99947 12.0897 2 11.9935V11.0435C1.99947 10.9472 2.03712 10.8547 2.1047 10.7862C2.17228 10.7177 2.26427 10.6787 2.3605 10.678H3.0045C3.27388 10.6786 3.53738 10.5992 3.76147 10.4497C3.98557 10.3002 4.16015 10.0874 4.263 9.83846C4.267 9.82896 4.2705 9.81946 4.274 9.80946C4.37352 9.56281 4.39814 9.2923 4.34479 9.03174C4.29143 8.77118 4.16246 8.53213 3.974 8.34446L3.5165 7.88696C3.44932 7.81868 3.41167 7.72674 3.41167 7.63096C3.41167 7.53517 3.44932 7.44323 3.5165 7.37496L4.1865 6.70496C4.25483 6.63702 4.34713 6.59867 4.44349 6.59821C4.53984 6.59774 4.63252 6.63518 4.7015 6.70246L5.1585 7.15946C5.34767 7.3504 5.58954 7.48053 5.85312 7.53317C6.1167 7.58582 6.38999 7.55858 6.638 7.45496L6.6645 7.44346C6.90997 7.33943 7.11936 7.1654 7.26652 6.94309C7.41369 6.72079 7.49211 6.46006 7.492 6.19346V5.54996C7.49279 5.45372 7.53172 5.36173 7.60023 5.29415C7.66875 5.22657 7.76127 5.18892 7.8575 5.18946H8.8075C8.90374 5.18892 8.99625 5.22657 9.06477 5.29415C9.13329 5.36173 9.17221 5.45372 9.173 5.54996V6.19396C9.17269 6.46008 9.25057 6.72043 9.39698 6.94266C9.54338 7.16489 9.75186 7.33921 9.9965 7.44396L10.0245 7.45646C10.2732 7.55902 10.5467 7.5856 10.8104 7.53283C11.0742 7.48005 11.3164 7.3503 11.5065 7.15996L11.9635 6.70296C12.0309 6.63594 12.1222 6.59832 12.2173 6.59832C12.3123 6.59832 12.4036 6.63594 12.471 6.70296L13.145 7.37646C13.1793 7.41038 13.2064 7.45081 13.2249 7.49537C13.2434 7.53993 13.2527 7.58772 13.2525 7.63596C13.2523 7.68356 13.2425 7.73065 13.2237 7.77438C13.2049 7.81811 13.1774 7.85759 13.143 7.89046L12.693 8.34596C12.5046 8.5328 12.3754 8.77102 12.3216 9.03087C12.2678 9.29072 12.2918 9.56066 12.3905 9.80696C12.3939 9.81839 12.3981 9.82958 12.403 9.84046C12.5327 10.153 12.7742 10.406 13.0805 10.55C12.6235 10.65 12.1745 10.7706 11.7335 10.912C11.6375 10.3611 11.4092 9.8417 11.0684 9.39836C10.7276 8.95502 10.2844 8.60095 9.77672 8.36649C9.26905 8.13204 8.71209 8.0242 8.1536 8.05223C7.59511 8.08025 7.05174 8.2433 6.57009 8.52739C6.08843 8.81148 5.68286 9.20815 5.38814 9.68337C5.09342 10.1586 4.91835 10.6982 4.87793 11.2559C4.83751 11.8137 4.93296 12.3729 5.15608 12.8856C5.3792 13.3984 5.72334 13.8494 6.159 14.2C5.45344 14.8611 4.81408 15.5896 4.25 16.375C4.22888 16.364 4.2088 16.3511 4.19 16.3365ZM6.921 13.532C6.58227 13.2973 6.30802 12.9812 6.1235 12.6128C5.93899 12.2443 5.85014 11.8354 5.86514 11.4236C5.88014 11.0118 5.99851 10.6104 6.20934 10.2564C6.42018 9.90234 6.7167 9.60704 7.07161 9.39767C7.42652 9.1883 7.8284 9.0716 8.24025 9.0583C8.6521 9.045 9.06067 9.13554 9.42834 9.32157C9.79602 9.50761 10.111 9.78317 10.3442 10.1229C10.5774 10.4626 10.7215 10.8555 10.763 11.2655C9.37497 11.8221 8.07954 12.5863 6.921 13.532ZM16.24 26.813C15.7815 26.8123 15.342 26.6303 15.0173 26.3066C14.6926 25.9829 14.5091 25.5439 14.507 25.0855V25.0815V25.076C14.5076 24.7331 14.6098 24.3981 14.8007 24.1134C14.9916 23.8286 15.2627 23.6068 15.5796 23.476C15.8965 23.3453 16.2451 23.3114 16.5813 23.3787C16.9175 23.446 17.2262 23.6114 17.4684 23.8541C17.7105 24.0967 17.8754 24.4058 17.942 24.7421C18.0086 25.0784 17.974 25.4269 17.8426 25.7436C17.7112 26.0602 17.4888 26.3308 17.2037 26.5212C16.9185 26.7115 16.5828 26.8131 16.24 26.813ZM18.9265 24.5815C18.8547 24.1945 18.6998 23.8277 18.4725 23.5065L23.029 17.9835C24.261 19.0818 25.2044 20.4658 25.7765 22.014C25.812 22.1098 25.8759 22.1924 25.9598 22.2508C26.0436 22.3092 26.1433 22.3405 26.2455 22.3405C26.3048 22.3405 26.3635 22.3298 26.419 22.309C26.4806 22.2862 26.5371 22.2515 26.5853 22.2069C26.6335 22.1623 26.6724 22.1086 26.6998 22.0489C26.7273 21.9893 26.7427 21.9248 26.7452 21.8591C26.7477 21.7935 26.7373 21.728 26.7145 21.6665C26.0808 19.9525 25.033 18.4219 23.6645 17.211L24.5355 16.1555C24.62 16.0531 24.6603 15.9215 24.6477 15.7894C24.6351 15.6573 24.5706 15.5357 24.4683 15.4512C24.3659 15.3667 24.2343 15.3264 24.1022 15.339C23.9701 15.3516 23.8485 15.4161 23.764 15.5185L22.8895 16.579C21.1342 15.2884 19.0321 14.5542 16.855 14.4715C14.5952 14.3965 12.3669 15.0183 10.4724 16.2526C8.57797 17.4869 7.10892 19.274 6.2645 21.3715C6.21922 21.4935 6.22332 21.6284 6.27592 21.7474C6.32853 21.8665 6.42549 21.9604 6.5462 22.0091C6.66691 22.0578 6.80186 22.0575 6.92236 22.0082C7.04286 21.959 7.13942 21.8647 7.1915 21.7455C7.95727 19.8375 9.2918 18.2116 11.0138 17.0885C12.7358 15.9654 14.7618 15.3996 16.8165 15.468C18.7752 15.5424 20.6675 16.1974 22.253 17.35L17.753 22.803C17.3769 22.5521 16.9445 22.3985 16.4944 22.356C16.0443 22.3135 15.5907 22.3835 15.1743 22.5596C14.758 22.7357 14.3919 23.0124 14.1089 23.365C13.8259 23.7175 13.6349 24.1349 13.553 24.5795H2.4875C2.58876 20.9991 4.0822 17.5994 6.65044 15.1028C9.21867 12.6062 12.6592 11.2095 16.241 11.2095C19.8228 11.2095 23.2633 12.6062 25.8316 15.1028C28.3998 17.5994 29.8932 20.9991 29.9945 24.5795L18.9265 24.5815Z" fill="white"/>
    </svg>
    