<svg width="40" height="40" viewBox="0 0 40 40" fill="none" xmlns="http://www.w3.org/2000/svg">
<g clip-path="url(#clip0_399_16)">
<mask id="mask0_399_16" style="mask-type:luminance" maskUnits="userSpaceOnUse" x="0" y="0" width="40" height="40">
<path d="M40 0H0V40H40V0Z" fill="white"/>
</mask>
<g mask="url(#mask0_399_16)">
<mask id="mask1_399_16" style="mask-type:luminance" maskUnits="userSpaceOnUse" x="0" y="0" width="40" height="40">
<path d="M40 0H0V40H40V0Z" fill="white"/>
</mask>
<g mask="url(#mask1_399_16)">
<path d="M21.4718 1.81338L26.7626 12.5335L38.5929 14.2525C39.9392 14.4481 40.4767 16.1025 39.5026 17.0521L30.9419 25.3965L32.9628 37.179C33.1928 38.5198 31.7854 39.5423 30.5814 38.9092L19.9999 33.3463L9.41857 38.9092C8.21451 39.5422 6.80718 38.5198 7.03717 37.179L9.05803 25.3965L0.497435 17.0521C-0.476702 16.1025 0.0608735 14.4482 1.40712 14.2525L13.2375 12.5334L18.5281 1.81338C19.1303 0.593457 20.8697 0.593457 21.4718 1.81338Z" fill="url(#paint0_linear_399_16)"/>
<path d="M26.7624 12.5335L21.4718 1.81336C21.1708 1.20344 20.5854 0.898438 20 0.898438V21.1944L26.7624 12.5335Z" fill="url(#paint1_linear_399_16)"/>
<path d="M30.942 25.397L39.5025 17.0525C39.983 16.5841 40.0952 15.9443 39.9243 15.3926L20 21.1948L30.942 25.397Z" fill="url(#paint2_linear_399_16)"/>
<path d="M32.3148 38.7805L20 21.1943V33.3463L30.5814 38.9093C31.1856 39.2269 31.8408 39.1275 32.3148 38.7805Z" fill="url(#paint3_linear_399_16)"/>
<path d="M19.9994 21.1943L9.0574 25.3965L7.03662 37.179C6.92202 37.847 7.21405 38.4358 7.68459 38.7805L19.9994 21.1943Z" fill="url(#paint4_linear_399_16)"/>
<path d="M0.0742188 15.3929L19.9985 21.1951L13.236 12.5342L1.4057 14.2533C0.723591 14.3524 0.249687 14.8262 0.0742188 15.3929Z" fill="url(#paint5_linear_399_16)"/>
<path d="M9.05756 25.3969L0.496966 17.0525C0.0164206 16.5841 -0.0956884 15.9443 0.0751703 15.3926L19.9995 21.1948L9.05756 25.3969Z" fill="url(#paint6_linear_399_16)"/>
</g>
</g>
</g>
<defs>
<linearGradient id="paint0_linear_399_16" x1="20.0006" y1="5.3538" x2="20.0006" y2="49.4892" gradientUnits="userSpaceOnUse">
<stop stop-color="#CBCACA"/>
<stop offset="0.427" stop-color="#CBCACA"/>
<stop offset="1" stop-color="#CBCACA"/>
</linearGradient>
<linearGradient id="paint1_linear_399_16" x1="30.3675" y1="11.0454" x2="17.0255" y2="11.0454" gradientUnits="userSpaceOnUse">
<stop stop-color="#8C8C8C" stop-opacity="0"/>
<stop offset="0.203" stop-color="#8C8C8C" stop-opacity="0.203"/>
<stop offset="0.499" stop-color="#8C8C8C" stop-opacity="0.499"/>
<stop offset="0.852" stop-color="#8C8C8C" stop-opacity="0.852"/>
<stop offset="1" stop-color="#8C8C8C"/>
</linearGradient>
<linearGradient id="paint2_linear_399_16" x1="32.6468" y1="31.4875" x2="29.1134" y2="14.0871" gradientUnits="userSpaceOnUse">
<stop stop-color="#8C8C8C" stop-opacity="0"/>
<stop offset="0.203" stop-color="#8C8C8C" stop-opacity="0.203"/>
<stop offset="0.499" stop-color="#8C8C8C" stop-opacity="0.499"/>
<stop offset="0.852" stop-color="#8C8C8C" stop-opacity="0.852"/>
<stop offset="1" stop-color="#8C8C8C"/>
</linearGradient>
<linearGradient id="paint3_linear_399_16" x1="15.5138" y1="40.6314" x2="29.3526" y2="26.7927" gradientUnits="userSpaceOnUse">
<stop stop-color="#8C8C8C" stop-opacity="0"/>
<stop offset="0.203" stop-color="#8C8C8C" stop-opacity="0.203"/>
<stop offset="0.499" stop-color="#8C8C8C" stop-opacity="0.499"/>
<stop offset="0.852" stop-color="#8C8C8C" stop-opacity="0.852"/>
<stop offset="1" stop-color="#8C8C8C"/>
</linearGradient>
<linearGradient id="paint4_linear_399_16" x1="5.64462" y1="23.131" x2="15.8449" y2="31.6646" gradientUnits="userSpaceOnUse">
<stop stop-color="#8C8C8C" stop-opacity="0"/>
<stop offset="0.203" stop-color="#8C8C8C" stop-opacity="0.203"/>
<stop offset="0.499" stop-color="#8C8C8C" stop-opacity="0.499"/>
<stop offset="0.852" stop-color="#8C8C8C" stop-opacity="0.852"/>
<stop offset="1" stop-color="#8C8C8C"/>
</linearGradient>
<linearGradient id="paint5_linear_399_16" x1="13.2903" y1="9.05534" x2="9.15682" y2="20.789" gradientUnits="userSpaceOnUse">
<stop stop-color="#8C8C8C" stop-opacity="0"/>
<stop offset="0.203" stop-color="#8C8C8C" stop-opacity="0.203"/>
<stop offset="0.499" stop-color="#8C8C8C" stop-opacity="0.499"/>
<stop offset="0.852" stop-color="#8C8C8C" stop-opacity="0.852"/>
<stop offset="1" stop-color="#8C8C8C"/>
</linearGradient>
<linearGradient id="paint6_linear_399_16" x1="28.8505" y1="10.2804" x2="-1.51697" y2="23.2141" gradientUnits="userSpaceOnUse">
<stop stop-color="#8C8C8C" stop-opacity="0"/>
<stop offset="0.203" stop-color="#8C8C8C" stop-opacity="0.203"/>
<stop offset="0.499" stop-color="#8C8C8C" stop-opacity="0.499"/>
<stop offset="0.852" stop-color="#8C8C8C" stop-opacity="0.852"/>
<stop offset="1" stop-color="#8C8C8C"/>
</linearGradient>
<clipPath id="clip0_399_16">
<rect width="40" height="40" fill="white"/>
</clipPath>
</defs>
</svg>
