<svg width="30" height="30" viewBox="0 0 30 30" fill="none" xmlns="http://www.w3.org/2000/svg">
    <g clip-path="url(#clip0_1318_40)">
    <path d="M18.7245 15.2527L20.4284 13.5488C20.5523 14.0126 20.625 14.4976 20.625 15.0001C20.625 18.1018 18.1017 20.6251 15 20.6251C14.4975 20.6251 14.0126 20.5524 13.5487 20.4284L15.2527 18.7245C17.1157 18.5975 18.5974 17.1158 18.7245 15.2527ZM29.8819 14.5447C29.7666 14.3372 28.1311 11.4715 24.9342 9.04295L23.5699 10.4072C25.901 12.1212 27.378 14.1202 27.9595 15.0015C26.8484 16.6934 22.4895 22.5001 15 22.5001C13.8769 22.5001 12.8325 22.3564 11.8498 22.1272L10.3092 23.6677C11.7255 24.102 13.2823 24.3751 15 24.3751C24.814 24.3751 29.6796 15.8194 29.8819 15.4554C30.0394 15.1721 30.0394 14.828 29.8819 14.5447ZM25.9753 5.35037L5.35031 25.9754C5.16727 26.1584 4.92727 26.2501 4.6875 26.2501C4.44773 26.2501 4.20773 26.1584 4.02469 25.9754C3.65836 25.609 3.65836 25.0158 4.02469 24.6497L6.64875 22.0257C2.40656 19.4647 0.251016 15.6947 0.118125 15.4554C-0.039375 15.1721 -0.039375 14.8278 0.118125 14.5444C0.320391 14.1807 5.18602 5.62506 15 5.62506C17.5376 5.62506 19.7355 6.20396 21.6145 7.0599L24.6497 4.02475C25.016 3.65842 25.6092 3.65842 25.9753 4.02475C26.3414 4.39107 26.3416 4.98428 25.9753 5.35037ZM8.0468 20.6276L10.4203 18.2541C9.76477 17.3344 9.375 16.2129 9.375 15.0001C9.375 11.8983 11.8983 9.37506 15 9.37506C16.2129 9.37506 17.3344 9.76482 18.2541 10.4201L20.1734 8.50084C18.657 7.89357 16.9338 7.50006 15 7.50006C7.51055 7.50006 3.15164 13.3067 2.0407 14.9987C2.74617 16.0679 4.77398 18.7744 8.0468 20.6276ZM11.7813 16.8929L16.8928 11.7814C16.3352 11.4521 15.6933 11.2501 15 11.2501C12.9323 11.2501 11.25 12.9324 11.25 15.0001C11.25 15.6933 11.452 16.3353 11.7813 16.8929Z" fill="white"/>
    </g>
    <defs>
    <clipPath id="clip0_1318_40">
    <rect width="30" height="30" fill="white"/>
    </clipPath>
    </defs>
    </svg>
    