<svg width="190" height="190" viewBox="0 0 190 190" fill="none" xmlns="http://www.w3.org/2000/svg">
    <path fill-rule="evenodd" clip-rule="evenodd" d="M85.1967 80.7096C80.8568 85.0488 73.7685 85.048 69.4282 80.7096C65.0797 76.3629 65.0801 69.2877 69.4282 64.9411C73.7637 60.6059 80.862 60.6056 85.1971 64.9411C89.5452 69.2892 89.5456 76.3615 85.1967 80.7096Z" fill="#E7E7E7"/>
    <path fill-rule="evenodd" clip-rule="evenodd" d="M101.227 164.986L95.8646 144.972L83.8315 153.154L101.227 164.986ZM70.6314 153.154L58.7333 145.061L53.43 164.847L70.6314 153.154ZM73.5211 89.8726L70.1604 102.419L77.2402 110.335L84.432 102.296L81.1029 89.8726C78.5887 90.4226 76.0356 90.4226 73.5211 89.8726ZM70.215 79.9225C74.1193 83.8267 80.5054 83.8297 84.4093 79.9225C88.3247 76.0126 88.3247 69.6435 84.4093 65.7281C80.508 61.8265 74.1167 61.8298 70.215 65.7281C66.3014 69.6435 66.3014 76.0126 70.215 79.9225ZM90.5806 125.252L86.7249 110.862L82.2165 115.901L90.5806 125.252ZM72.2612 115.897L67.866 110.984L64.1068 125.003L72.2612 115.897ZM62.1006 138.377L77.2368 121.463L92.3622 138.377L77.2331 148.665L62.1006 138.377ZM114.265 184.958C114.795 186.936 113.619 188.972 111.641 189.503C111.317 189.588 110.996 189.629 110.675 189.629C109.038 189.629 107.54 188.535 107.094 186.876L104.171 175.958L77.2335 157.642L50.4917 175.825L47.5304 186.876C47.0858 188.535 45.5859 189.629 43.946 189.629C43.6309 189.629 43.307 189.589 42.9852 189.503C41.0073 188.972 39.8313 186.936 40.3616 184.958L66.694 86.6838C66.0936 86.2199 65.514 85.7193 64.9681 85.1734C58.1596 78.365 58.1596 67.2878 64.9681 60.4809C71.7443 53.6976 82.8812 53.6947 89.657 60.4809C96.4673 67.2878 96.4673 78.365 89.657 85.1734C89.1126 85.7197 88.5333 86.2199 87.9329 86.6838L114.265 184.958ZM105.683 72.829C105.683 57.1815 92.9556 44.4578 77.3103 44.4578C75.2626 44.4578 73.5997 42.7949 73.5997 40.7468C73.5997 38.6958 75.2626 37.0366 77.3103 37.0366C97.0491 37.0366 113.106 53.0898 113.106 72.829C113.106 74.8767 111.443 76.5392 109.395 76.5392C107.344 76.5392 105.683 74.8763 105.683 72.829ZM77.3103 18.7042C107.157 18.7042 131.435 42.9801 131.435 72.829C131.435 74.8767 129.776 76.5392 127.724 76.5392C125.675 76.5392 124.014 74.8767 124.014 72.829C124.014 47.0744 103.065 26.1254 77.3103 26.1254C75.2626 26.1254 73.5997 24.4629 73.5997 22.4148C73.5997 20.3619 75.2626 18.7042 77.3103 18.7042ZM149.767 72.829C149.767 74.8767 148.109 76.5392 146.056 76.5392C144.008 76.5392 142.346 74.8767 142.346 72.829C142.346 36.9647 113.173 7.79334 77.3103 7.79334C75.2626 7.79334 73.5997 6.13085 73.5997 4.08315C73.5997 2.03174 75.2626 0.370728 77.3103 0.370728C117.266 0.370728 149.767 32.8763 149.767 72.829Z" fill="white"/>
    </svg>
    