<svg width="32" height="32" viewBox="0 0 32 32" fill="none" xmlns="http://www.w3.org/2000/svg">
    <g clip-path="url(#clip0_1252_52)">
    <path d="M8.29769 5.52316H7.64503C6.55531 5.52316 5.67188 4.63973 5.67188 3.55001V2.48837C5.67188 2.26056 5.85651 2.07593 6.08432 2.07593H6.32454C7.41426 2.07593 8.29769 2.95936 8.29769 4.04908V5.52316Z" fill="#FEE45A"/>
    <path d="M6.35156 7.3581L6.65437 7.93628C7.16 8.90165 8.35248 9.27432 9.31778 8.76869L10.2582 8.27611C10.46 8.17039 10.5379 7.92118 10.4322 7.71939L10.3207 7.50655C9.81512 6.54118 8.62264 6.16851 7.65734 6.67414L6.35156 7.3581Z" fill="#FEE45A"/>
    <path d="M4.80557 9.28403H4.15284C3.06312 9.28403 2.17969 8.40059 2.17969 7.31087V6.24924C2.17969 6.02142 2.36432 5.83679 2.59213 5.83679H2.83235C3.92207 5.83679 4.8055 6.72023 4.8055 7.80995V9.28403H4.80557Z" fill="#FEE45A"/>
    <path d="M2.84365 14.9287H2.19093C1.10121 14.9287 0.217773 14.0452 0.217773 12.9555V11.8939C0.217773 11.6661 0.402403 11.4814 0.630218 11.4814H0.870436C1.96016 11.4814 2.84359 12.3649 2.84359 13.4546L2.84365 14.9287Z" fill="#FEE45A"/>
    <path d="M2.9082 16.2512L3.52764 16.4569C4.56184 16.8003 5.67868 16.2403 6.0221 15.2061L6.35666 14.1986C6.42844 13.9824 6.31142 13.7489 6.09523 13.6771L5.86723 13.6014C4.83303 13.258 3.71619 13.818 3.37277 14.8522L2.9082 16.2512Z" fill="#FEE45A"/>
    <path d="M4.47442 22.6019L5.12214 22.5214C6.20357 22.387 6.97133 21.4014 6.83689 20.32L6.70598 19.2664C6.6779 19.0404 6.47187 18.8799 6.24579 18.908L6.00737 18.9376C4.92594 19.072 4.15818 20.0576 4.29262 21.139L4.47442 22.6019Z" fill="#FEE45A"/>
    <path d="M3.55523 20.6536L2.94459 20.8841C1.92505 21.269 0.786553 20.7545 0.401678 19.7351L0.0266988 18.7419C-0.0537594 18.5288 0.0537539 18.2908 0.266917 18.2103L0.491647 18.1255C1.51119 17.7406 2.64969 18.2551 3.03456 19.2745L3.55523 20.6536Z" fill="#FEE45A"/>
    <path d="M6.07267 24.9196L5.61113 25.3811C4.84054 26.1517 3.59119 26.1517 2.82067 25.3811L2.07 24.6305C1.90896 24.4694 1.90896 24.2083 2.07 24.0472L2.23985 23.8774C3.01044 23.1068 4.25979 23.1068 5.03031 23.8774L6.07267 24.9196Z" fill="#FEE45A"/>
    <path d="M10.1759 28.1003L9.85727 28.67C9.32529 29.6211 8.12305 29.9608 7.17194 29.4289L6.24539 28.9107C6.04656 28.7995 5.97555 28.5482 6.08672 28.3494L6.204 28.1397C6.73598 27.1886 7.93822 26.8489 8.88933 27.3808L10.1759 28.1003Z" fill="#FEE45A"/>
    <path d="M12.0955 28.8519L12.4218 28.2867C12.9667 27.3429 12.6434 26.1362 11.6996 25.5913L10.7802 25.0605C10.5829 24.9466 10.3307 25.0141 10.2168 25.2114L10.0967 25.4194C9.55183 26.3632 9.8752 27.57 10.819 28.1148L12.0955 28.8519Z" fill="#FEE45A"/>
    <path d="M23.7021 5.52316H24.3548C25.4445 5.52316 26.328 4.63973 26.328 3.55001V2.48837C26.328 2.26056 26.1433 2.07593 25.9155 2.07593H25.6753C24.5856 2.07593 23.7021 2.95936 23.7021 4.04908V5.52316Z" fill="#FEE45A"/>
    <path d="M25.6483 7.3581L25.3455 7.93628C24.8399 8.90165 23.6474 9.27432 22.6821 8.76869L21.7417 8.27611C21.5399 8.17039 21.462 7.92118 21.5677 7.71939L21.6791 7.50655C22.1848 6.54118 23.3772 6.16851 24.3425 6.67414L25.6483 7.3581Z" fill="#FEE45A"/>
    <path d="M27.1953 9.28403H27.848C28.9377 9.28403 29.8211 8.40059 29.8211 7.31087V6.24924C29.8211 6.02142 29.6365 5.83679 29.4087 5.83679H29.1685C28.0787 5.83679 27.1953 6.72023 27.1953 7.80995V9.28403Z" fill="#FEE45A"/>
    <path d="M29.1562 14.9287H29.8089C30.8986 14.9287 31.7821 14.0452 31.7821 12.9555V11.8939C31.7821 11.6661 31.5974 11.4814 31.3696 11.4814H31.1294C30.0397 11.4814 29.1562 12.3649 29.1562 13.4546V14.9287Z" fill="#FEE45A"/>
    <path d="M29.0917 16.2512L28.4722 16.4569C27.438 16.8003 26.3212 16.2403 25.9778 15.2061L25.6432 14.1986C25.5714 13.9824 25.6884 13.7489 25.9046 13.6771L26.1326 13.6014C27.1668 13.258 28.2837 13.818 28.6271 14.8522L29.0917 16.2512Z" fill="#FEE45A"/>
    <path d="M27.5252 22.602L26.8775 22.5215C25.7961 22.3871 25.0283 21.4015 25.1627 20.3201L25.2936 19.2666C25.3217 19.0405 25.5278 18.88 25.7538 18.9081L25.9923 18.9377C27.0737 19.0721 27.8414 20.0577 27.707 21.1391L27.5252 22.602Z" fill="#FEE45A"/>
    <path d="M28.4453 20.6536L29.0559 20.8841C30.0755 21.269 31.214 20.7545 31.5989 19.7351L31.9738 18.7419C32.0543 18.5288 31.9468 18.2908 31.7336 18.2103L31.5089 18.1255C30.4893 17.7406 29.3509 18.2551 28.966 19.2745L28.4453 20.6536Z" fill="#FEE45A"/>
    <path d="M25.9277 24.9196L26.3893 25.3811C27.1599 26.1517 28.4092 26.1517 29.1797 25.3811L29.9304 24.6305C30.0914 24.4694 30.0914 24.2083 29.9304 24.0472L29.7606 23.8774C28.99 23.1068 27.7406 23.1068 26.9701 23.8774L25.9277 24.9196Z" fill="#FEE45A"/>
    <path d="M21.8242 28.1003L22.1428 28.67C22.6748 29.6211 23.8771 29.9608 24.8282 29.4289L25.7547 28.9107C25.9535 28.7995 26.0246 28.5482 25.9134 28.3494L25.7961 28.1397C25.2641 27.1886 24.0619 26.8489 23.1108 27.3808L21.8242 28.1003Z" fill="#FEE45A"/>
    <path d="M19.9045 28.8519L19.5782 28.2867C19.0333 27.3429 19.3566 26.1362 20.3004 25.5913L21.2198 25.0605C21.4171 24.9466 21.6693 25.0141 21.7832 25.2114L21.9033 25.4194C22.4482 26.3632 22.1248 27.57 21.181 28.1148L19.9045 28.8519Z" fill="#FEE45A"/>
    <path d="M16.8071 7.68528L18.4221 10.9576C18.5532 11.2232 18.8066 11.4073 19.0997 11.4499L22.7109 11.9746C23.4491 12.0819 23.7438 12.989 23.2097 13.5098L20.5966 16.0569C20.3845 16.2637 20.2877 16.5616 20.3378 16.8535L20.9546 20.4501C21.0807 21.1853 20.309 21.746 19.6488 21.3988L16.4188 19.7007C16.1566 19.5629 15.8434 19.5629 15.5812 19.7007L12.3513 21.3988C11.691 21.7459 10.9193 21.1853 11.0454 20.4501L11.6623 16.8535C11.7124 16.5616 11.6156 16.2637 11.4034 16.0569L8.79034 13.5098C8.25618 12.9891 8.55096 12.082 9.28916 11.9746L12.9003 11.4499C13.1934 11.4073 13.4469 11.2232 13.578 10.9576L15.1929 7.68528C15.5231 7.01636 16.4769 7.01636 16.8071 7.68528Z" fill="#FED402"/>
    <path d="M14.8345 17.8201C14.8846 17.5281 14.7878 17.2302 14.5757 17.0235L11.9626 14.4763C11.4284 13.9556 11.7232 13.0485 12.4614 12.9412L16.0726 12.4165C16.3657 12.3738 16.6191 12.1897 16.7502 11.9241L17.8246 9.74707L16.807 7.68516C16.4769 7.01624 15.523 7.01624 15.1929 7.68516L13.578 10.9575C13.4469 11.2231 13.1935 11.4072 12.9003 11.4498L9.28913 11.9745C8.55093 12.0818 8.25622 12.9889 8.79031 13.5096L11.4034 16.0568C11.6155 16.2635 11.7123 16.5615 11.6623 16.8534L11.0454 20.45C10.9193 21.1852 11.691 21.7459 12.3512 21.3987L14.406 20.3184L14.8345 17.8201Z" fill="#FAC600"/>
    <path d="M15.9996 29.924C8.47943 29.924 2.36133 23.8059 2.36133 16.2858C2.36133 13.4664 3.21449 10.7607 4.82854 8.46091C6.40609 6.21322 8.59112 4.51062 11.1473 3.53709C11.3963 3.44236 11.6746 3.56723 11.7693 3.81593C11.864 4.06469 11.7391 4.34315 11.4904 4.43787C9.11487 5.34258 7.08407 6.9252 5.61757 9.01461C4.11798 11.1512 3.32535 13.6656 3.32535 16.2857C3.32535 23.2743 9.01102 28.96 15.9996 28.96C22.9883 28.96 28.6739 23.2743 28.6739 16.2857C28.6739 13.6656 27.8813 11.1513 26.3817 9.01461C24.9152 6.92514 22.8844 5.34258 20.5088 4.43787C20.2601 4.34315 20.1353 4.06469 20.23 3.81593C20.3247 3.56716 20.6032 3.4423 20.8519 3.53709C23.4082 4.51055 25.5932 6.21322 27.1707 8.46091C28.7848 10.7607 29.6379 13.4664 29.6379 16.2858C29.6378 23.8059 23.5197 29.924 15.9996 29.924Z" fill="#FED402"/>
    </g>
    <defs>
    <clipPath id="clip0_1252_52">
    <rect width="32" height="32" fill="white"/>
    </clipPath>
    </defs>
    </svg>
    