<svg width="30" height="30" viewBox="0 0 30 30" fill="none" xmlns="http://www.w3.org/2000/svg">
        <path d="M18.75 15.75H11.25C10.836 15.75 10.5 16.086 10.5 16.5C10.5 16.914 10.836 17.25 11.25 17.25H18.75C19.164 17.25 19.5 16.914 19.5 16.5C19.5 16.086 19.164 15.75 18.75 15.75ZM20.25 11.25H9.75C9.336 11.25 9 11.586 9 12C9 12.414 9.336 12.75 9.75 12.75H20.25C20.664 12.75 21 12.414 21 12C21 11.586 20.664 11.25 20.25 11.25ZM15 3C8.37302 3 3 7.70098 3 13.5C3 16.8143 4.75875 19.7647 7.5 21.6893V27L12.7567 23.8102C13.4843 23.9303 14.2327 24 15 24C21.6278 24 27 19.299 27 13.5C27 7.70098 21.6278 3 15 3ZM15 22.5C14.124 22.5 13.278 22.398 12.465 22.2247L8.93396 24.3472L8.98122 20.8687C6.27451 19.2405 4.5 16.5495 4.5 13.5C4.5 8.52977 9.20098 4.5 15 4.5C20.799 4.5 25.5 8.52977 25.5 13.5C25.5 18.4702 20.799 22.5 15 22.5Z" fill="#FF2B00"/>
        </svg>
        