<svg width="100" height="100" viewBox="0 0 100 100" fill="none" xmlns="http://www.w3.org/2000/svg">
    <path d="M1.17188 42.1876C1.17188 64.8036 19.5715 83.2032 42.1875 83.2032C45.659 83.2032 49.1084 82.7684 52.4398 81.911C53.4846 81.6421 54.1133 80.5772 53.8445 79.5327C53.5756 78.488 52.5105 77.8593 51.4662 78.128C48.4527 78.9036 45.3309 79.297 42.1875 79.297C21.7252 79.297 5.07812 62.6499 5.07812 42.1876C5.07812 36.4454 6.3543 30.9497 8.86543 25.8436L11.6705 28.0878C12.9352 29.0995 14.8438 28.2083 14.8438 26.5626V16.797C14.8438 15.5626 13.7127 14.6407 12.5076 14.8817L2.74199 16.8349C1.99746 16.9837 1.40684 17.5507 1.22734 18.2882C1.04785 19.0259 1.31211 19.8009 1.90488 20.2751L5.78086 23.3759C5.69355 23.4831 5.61563 23.6007 5.55059 23.7292C2.64512 29.4854 1.17188 35.6958 1.17188 42.1876ZM10.9375 19.1794V22.4989L7.61797 19.8433L10.9375 19.1794Z" fill="white"/>
    <path d="M25.9945 8.78789C31.0617 6.32637 36.5101 5.07812 42.1883 5.07812C63.0435 5.07812 79.9429 22.3754 79.2765 43.377L76.0092 42.2877C74.4965 41.7836 73.0433 43.2141 73.5316 44.7369L76.9676 55.4553C77.389 56.7699 79.006 57.2412 80.0679 56.3676L88.3508 49.5555C89.5349 48.5816 89.1838 46.6795 87.7279 46.1941L83.1273 44.6605C84.5347 21.0273 65.7135 1.17188 42.1883 1.17188C35.9138 1.17188 29.8912 2.55215 24.2877 5.27441C23.3174 5.7457 22.9129 6.91426 23.3844 7.88457C23.8556 8.85488 25.0242 9.25937 25.9945 8.78789ZM79.8088 51.5229L78.4267 47.2111L80.0054 47.7373C80.2803 47.9137 80.576 48.0133 80.9123 48.0396L83.1408 48.7824L79.8088 51.5229Z" fill="white"/>
    <path d="M63.6719 42.1875C63.6719 30.341 54.034 20.7031 42.1875 20.7031C30.341 20.7031 20.7031 30.341 20.7031 42.1875C20.7031 54.034 30.341 63.6719 42.1875 63.6719C54.034 63.6719 63.6719 54.034 63.6719 42.1875ZM42.1875 59.7656C32.4949 59.7656 24.6094 51.8801 24.6094 42.1875C24.6094 32.4949 32.4949 24.6094 42.1875 24.6094C51.8801 24.6094 59.7656 32.4949 59.7656 42.1875C59.7656 51.8801 51.8801 59.7656 42.1875 59.7656Z" fill="white"/>
    <path d="M96.875 94.9219H96.6326C99.7918 90.9256 99.5617 85.0807 95.8291 81.348L74.8186 60.3377C74.0557 59.5752 72.8193 59.5752 72.0563 60.3377L70.5078 61.8861L66.7621 58.1404C69.8564 53.391 71.4844 47.9107 71.4844 42.1875C71.4844 26.0332 58.3418 12.8906 42.1875 12.8906C26.0332 12.8906 12.8906 26.0332 12.8906 42.1875C12.8906 58.3418 26.0332 71.4844 42.1875 71.4844C47.9105 71.4844 53.3908 69.8566 58.1404 66.7619L61.8861 70.5078L60.3375 72.0564C59.5748 72.8191 59.5748 74.0559 60.3375 74.8187L80.4408 94.9219H3.125C2.04629 94.9219 1.17188 95.7965 1.17188 96.875C1.17188 97.9535 2.04629 98.8281 3.125 98.8281H96.875C97.9535 98.8281 98.8281 97.9535 98.8281 96.875C98.8281 95.7965 97.9535 94.9219 96.875 94.9219ZM16.7969 42.1875C16.7969 28.1871 28.1871 16.7969 42.1875 16.7969C56.1881 16.7969 67.5781 28.1871 67.5781 42.1875C67.5781 56.2051 56.2221 67.5781 42.1875 67.5781C28.1871 67.5781 16.7969 56.1881 16.7969 42.1875ZM61.2963 64.3934C62.4152 63.4293 63.5523 62.2729 64.3934 61.2963L67.7455 64.6484L64.6484 67.7455L61.2963 64.3934ZM84.1103 93.0668L64.4809 73.4375C65.8242 72.0941 65.2078 72.7107 73.4375 64.4809L93.0668 84.1103C95.5418 86.5853 95.5426 90.5916 93.0668 93.0668C91.8707 94.2631 90.2801 94.9219 88.5885 94.9219C86.8969 94.9219 85.3066 94.2631 84.1103 93.0668Z" fill="white"/>
    <path d="M50 36.3281H34.375C33.2963 36.3281 32.4219 37.2025 32.4219 38.2812C32.4219 39.36 33.2963 40.2344 34.375 40.2344H50C51.0785 40.2344 51.9531 39.36 51.9531 38.2812C51.9531 37.2025 51.0785 36.3281 50 36.3281Z" fill="white"/>
    <path d="M50 44.1406H34.375C33.2963 44.1406 32.4219 45.015 32.4219 46.0938C32.4219 47.1725 33.2963 48.0469 34.375 48.0469H50C51.0785 48.0469 51.9531 47.1725 51.9531 46.0938C51.9531 45.015 51.0785 44.1406 50 44.1406Z" fill="white"/>
    <path d="M87.1094 16.7969C90.3402 16.7969 92.9688 14.1684 92.9688 10.9375C92.9688 7.70664 90.3402 5.07812 87.1094 5.07812C83.8785 5.07812 81.25 7.70664 81.25 10.9375C81.25 14.1684 83.8785 16.7969 87.1094 16.7969ZM87.1094 8.98438C88.1863 8.98438 89.0625 9.86055 89.0625 10.9375C89.0625 12.0145 88.1863 12.8906 87.1094 12.8906C86.0324 12.8906 85.1562 12.0145 85.1562 10.9375C85.1562 9.86055 86.0324 8.98438 87.1094 8.98438Z" fill="white"/>
    <path d="M5.07812 85.1562C5.07812 88.3871 7.70664 91.0156 10.9375 91.0156C14.1684 91.0156 16.7969 88.3871 16.7969 85.1562C16.7969 81.9254 14.1684 79.2969 10.9375 79.2969C7.70664 79.2969 5.07812 81.9254 5.07812 85.1562ZM12.8906 85.1562C12.8906 86.2332 12.0145 87.1094 10.9375 87.1094C9.86055 87.1094 8.98438 86.2332 8.98438 85.1562C8.98438 84.0793 9.86055 83.2031 10.9375 83.2031C12.0145 83.2031 12.8906 84.0793 12.8906 85.1562Z" fill="white"/>
    </svg>
    