<svg id="fi_17405466" viewBox="0 0 64 64" xmlns="http://www.w3.org/2000/svg"><path d="m57 33v-23a3 3 0 0 0 -6 0v23h-35a1.00012 1.00012 0 0 0 .00006 2h40.99994a1.00067 1.00067 0 0 1 1 1v18a1.00067 1.00067 0 0 1 -1 1h-13a1.00011 1.00011 0 0 0 .00005 2h12.99995a3.00328 3.00328 0 0 0 3-3v-18a3.00328 3.00328 0 0 0 -3-3zm-2 0h-2v-23a1.00011 1.00011 0 0 1 2 0z"></path><path d="m40 55h-33a1.00067 1.00067 0 0 1 -1-1v-18a1.00067 1.00067 0 0 1 1-1h5a.99943.99943 0 0 0 1-1v-24a3 3 0 0 0 -6 0v23a3.00328 3.00328 0 0 0 -3 3v18a3.00328 3.00328 0 0 0 3 3h33a1.0001 1.0001 0 0 0 0-2zm-31-45a1.00011 1.00011 0 0 1 2 0v23h-2z"></path><path d="m55 45a3.00019 3.00019 0 0 0 -6 .00009 3.00019 3.00019 0 0 0 6-.00009zm-4 0a1.0001 1.0001 0 0 1 2 0 1.0001 1.0001 0 0 1 -2 0z"></path><path d="m11 47.5a1.0001 1.0001 0 0 0 0 2 1.0001 1.0001 0 0 0 0-2z"></path><path d="m16 49.5a1.0001 1.0001 0 0 0 0-2 1.0001 1.0001 0 0 0 0 2z"></path><path d="m21 49.5a1.0001 1.0001 0 0 0 0-2 1.0001 1.0001 0 0 0 0 2z"></path><path d="m26 49.5a1.0001 1.0001 0 0 0 0-2 1.0001 1.0001 0 0 0 0 2z"></path><path d="m11 40.5a1.0001 1.0001 0 0 0 0 2 1.0001 1.0001 0 0 0 0-2z"></path><path d="m16 42.5a1.0001 1.0001 0 0 0 0-2 1.0001 1.0001 0 0 0 0 2z"></path><path d="m21 42.5a1.0001 1.0001 0 0 0 0-2 1.0001 1.0001 0 0 0 0 2z"></path><path d="m26 42.5a1.0001 1.0001 0 0 0 0-2 1.0001 1.0001 0 0 0 0 2z"></path><path d="m17.15625 17.1582c7.85461-8.15672 21.83313-8.15653 29.68749.00023a1.00018 1.00018 0 0 0 1.41206-1.41629c-8.59775-8.92983-23.91406-8.92976-32.51165.0003a1 1 0 0 0 1.4121 1.41576z"></path><path d="m43.30957 21.69043a1.007 1.007 0 0 0 .706-1.708 17.05984 17.05984 0 0 0 -24.03119.0002 1 1 0 0 0 1.41215 1.41578 15.05141 15.05141 0 0 1 21.207.00021.99816.99816 0 0 0 .70604.29181z"></path><path d="m39.07031 25.92969a1.00675 1.00675 0 0 0 .707-1.707 10.99592 10.99592 0 0 0 -15.55463 0 1.00008 1.00008 0 0 0 1.4141 1.414 9.03922 9.03922 0 0 1 12.72652.00015.99708.99708 0 0 0 .70701.29285z"></path><path d="m28.46777 28.458a1.0001 1.0001 0 0 0 1.40434 1.42378 3.08191 3.08191 0 0 1 4.25582.00005.99992.99992 0 0 0 1.4043-1.42383 5.03138 5.03138 0 0 0 -7.06446 0z"></path></svg>