<svg width="100" height="100" viewBox="0 0 100 100" fill="none" xmlns="http://www.w3.org/2000/svg">
    <path d="M57.4531 47.6719C57.0764 46.4672 56.4134 45.3716 55.5209 44.4791C54.6284 43.5866 53.5329 42.9236 52.3281 42.5469H52.2188C51.5013 42.317 50.7534 42.1959 50 42.1875C48.4548 42.1875 46.9444 42.6457 45.6596 43.5041C44.3749 44.3626 43.3735 45.5827 42.7822 47.0103C42.1909 48.4378 42.0362 50.0087 42.3376 51.5241C42.6391 53.0396 43.3831 54.4317 44.4757 55.5243C45.5683 56.6169 46.9604 57.3609 48.4759 57.6624C49.9913 57.9638 51.5622 57.8091 52.9897 57.2178C54.4173 56.6265 55.6374 55.6252 56.4959 54.3404C57.3543 53.0556 57.8125 51.5452 57.8125 50C57.8107 49.2547 57.7055 48.5133 57.5 47.7969L57.4531 47.6719ZM52.0156 45.7969L52.3125 45.9375L52.5625 46.0938C52.8277 46.259 53.074 46.4529 53.2969 46.6719C53.5247 46.8967 53.7241 47.1486 53.8906 47.4219C53.9517 47.4992 54.0041 47.5831 54.0469 47.6719L54.1875 47.9844C53.9042 48.2656 53.524 48.4277 53.125 48.4375C52.7106 48.4375 52.3132 48.2729 52.0201 47.9799C51.7271 47.6868 51.5625 47.2894 51.5625 46.875C51.5683 46.4705 51.7307 46.084 52.0156 45.7969ZM50 54.6875C48.8939 54.6637 47.8319 54.2494 47.0018 53.5179C46.1718 52.7864 45.6272 51.7849 45.4645 50.6906C45.3017 49.5963 45.5313 48.4797 46.1126 47.5383C46.6938 46.597 47.5893 45.8916 48.6406 45.5469C48.5024 45.9759 48.4338 46.4243 48.4375 46.875C48.4375 48.1182 48.9314 49.3105 49.8104 50.1896C50.6895 51.0686 51.8818 51.5625 53.125 51.5625C53.5757 51.5662 54.0241 51.4976 54.4531 51.3594C54.1631 52.3167 53.5744 53.1561 52.7732 53.7549C51.972 54.3537 51.0002 54.6805 50 54.6875Z" fill="#FF2B00"/>
    <path d="M49.9984 37.5C37.1859 37.5 30.2015 48.7031 29.9203 49.1875C29.7831 49.425 29.7109 49.6945 29.7109 49.9687C29.7109 50.243 29.7831 50.5125 29.9203 50.75C30.2015 51.2969 37.1859 62.5 49.9984 62.5C62.8109 62.5 69.7953 51.2969 70.0765 50.8125C70.2137 50.575 70.2859 50.3055 70.2859 50.0313C70.2859 49.757 70.2137 49.4875 70.0765 49.25C69.7953 48.7031 62.8109 37.5 49.9984 37.5ZM49.9984 59.375C40.8421 59.375 34.9203 52.4219 33.139 50C34.9203 47.5781 40.8421 40.625 49.9984 40.625C59.1546 40.625 65.0765 47.5781 66.8578 50C65.0765 52.4219 59.1546 59.375 49.9984 59.375Z" fill="#FF2B00"/>
    <path d="M77.9063 49.2031C77.4688 48.4375 67.0938 31.25 50 31.25C32.9063 31.25 22.5313 48.4375 22.0938 49.2031L24.7812 50.7656C24.875 50.625 34.7031 34.375 50 34.375C65.2969 34.375 75.125 50.625 75.2188 50.7969L77.9063 49.2031Z" fill="#FF2B00"/>
    <path d="M93.0938 6.90625C87.0469 0.859375 76.8281 -0.171875 64.3438 3.98437C59.3464 5.70418 54.5397 7.93472 50 10.6406C39.9219 4.6875 29.9375 1.5625 21.875 1.5625C15.625 1.5625 10.5312 3.4375 6.98437 6.98437C3.4375 10.5312 1.5625 15.625 1.5625 21.875C1.5625 28.7188 3.8125 36.7969 8.0625 45.3125L10.7656 43.75C6.73437 35.75 4.6875 28.125 4.6875 21.875C4.6875 16.4531 6.25 12.1875 9.20312 9.20312C12.1562 6.21875 16.375 4.6875 21.875 4.6875C29 4.6875 37.8594 7.42187 46.875 12.5C39.99 16.9282 33.6085 22.0942 27.8437 27.9063C4.14062 51.6563 -5.28125 80.9063 6.90625 93.0938C10.5156 96.7031 15.625 98.4375 21.875 98.4375C28.6406 98.4375 36.6406 96.2656 45.2031 91.9531L43.75 89.2344C28.6406 96.8437 15.7031 97.4531 9.125 90.7969C3.95313 85.7187 3.125 76.6406 6.95312 65.3437C10.8437 53.6719 19.0625 41.1563 30.1094 30.1094C36.1062 24.0785 42.7808 18.7619 50 14.2656C57.2258 18.7525 63.9015 24.0699 69.8906 30.1094C75.9217 36.1307 81.2333 42.8318 85.7188 50.0781C81.2122 57.2619 75.9019 63.909 69.8906 69.8906C67.6719 72.1094 65.3594 74.2187 63.0156 76.2344L64.0625 68.9687L60.9375 68.5312L59.375 79.4687C59.3416 79.6907 59.3564 79.9172 59.4184 80.1329C59.4805 80.3486 59.5882 80.5484 59.7344 80.7187C59.8842 80.8894 60.0695 81.0254 60.2773 81.1171C60.4851 81.2089 60.7104 81.2542 60.9375 81.25H71.875V78.125H65.625C67.8437 76.2031 70.0312 74.2031 72.125 72.0937C77.9347 66.358 83.0912 59.9963 87.5 53.125C92.5469 62.1094 95.4375 70.9375 95.4375 78.2812C95.4375 83.7031 93.875 87.9687 90.9219 90.9531C87.9687 93.9375 83.6719 95.4687 78.25 95.4687C64.5313 95.4687 45.6562 85.4531 30.1562 69.9687C27.9375 67.75 25.8125 65.4375 23.8125 63.0938L31.0781 64.125L31.5156 61L20.5781 59.4375C20.3562 59.4041 20.1297 59.4189 19.914 59.4809C19.6983 59.543 19.4984 59.6507 19.3281 59.7969C19.1568 59.9355 19.0167 60.1088 18.917 60.3053C18.8174 60.5019 18.7605 60.7174 18.75 60.9375V71.875H21.875V65.625C23.7969 67.8437 25.7969 70.0312 27.9063 72.125C44.2031 88.3906 63.4687 98.5156 78.2031 98.5156C84.4531 98.5156 89.5469 96.6406 93.0938 93.0938C96.6406 89.5469 98.5156 84.3906 98.5156 78.2031C98.5156 69.7969 95.2031 59.9063 89.3438 49.9375C99.5469 32.3906 101.641 15.4531 93.0938 6.90625ZM72.0937 27.9063C66.321 22.0904 59.9287 16.9242 53.0312 12.5C56.953 10.2745 61.0753 8.42262 65.3437 6.96875C76.6406 3.20312 85.6562 3.96875 90.875 9.14062C98.25 16.5 96.3906 31.25 87.5 46.9688C83.0678 40.077 77.9023 33.6856 72.0937 27.9063Z" fill="#FF2B00"/>
    </svg>
    