<svg width="5334" height="3067" viewBox="0 0 5334 3067" fill="none" xmlns="http://www.w3.org/2000/svg">
    <g clip-path="url(#clip0_1305_27)">
    <path fill-rule="evenodd" clip-rule="evenodd" d="M5327.12 753.547L5332.34 757.84L5333.33 758.693V769.693L5326.97 764.213L5321.76 759.933L5327.12 753.547ZM5280.2 718.293L5284.76 721.387L5293.92 727.92L5289 734.654L5280 728.227L5275.44 725.133L5280.2 718.293ZM5230.48 687.147L5233.66 688.947L5244.93 695.613L5240.61 702.733L5229.49 696.16L5226.3 694.36L5230.48 687.147ZM5178.52 659.947C5183.53 662.28 5188.72 664.827 5193.64 667.347L5189.74 674.72C5184.94 672.24 5179.82 669.747 5174.92 667.454L5178.52 659.947ZM5124.86 636.507L5136.44 641.187L5140.36 642.854L5137.04 650.493L5133.25 648.893L5121.68 644.2L5124.86 636.507ZM5069.81 616.427L5076.77 618.747L5085.65 621.84L5082.84 629.68L5074.09 626.627L5067.13 624.32L5069.81 616.427ZM5013.77 599.413L5029.86 603.974L5027.53 611.974L5011.54 607.454L5013.77 599.413ZM4957.01 585.227L4965.89 587.24L4973.3 589.013L4971.3 597.107L4963.98 595.347L4955.12 593.347L4957.01 585.227ZM4899.73 573.454L4916.16 576.574L4914.45 584.733L4898.13 581.64L4899.73 573.454ZM4842 563.933L4847.68 564.76L4858.52 566.454L4857.18 574.68L4846.44 573L4840.76 572.174L4842 563.933ZM4784.02 556.36L4795.04 557.64L4800.61 558.333L4799.54 566.6L4794.04 565.907L4783.02 564.64L4784.02 556.36ZM4725.88 550.533L4742.5 552.027L4741.66 560.307L4725.1 558.827L4725.88 550.533ZM4667.56 546.254L4684.22 547.333L4683.65 555.64L4667.05 554.574L4667.56 546.254ZM4609.2 543.387L4612.36 543.507L4625.89 544.08L4625.5 552.413L4612.02 551.827L4608.88 551.72L4609.2 543.387ZM4492.4 541.227H4498.36L4509.09 541.28L4509.02 549.613L4498.34 549.56H4492.38L4492.4 541.227ZM4434 541.693L4440.38 541.587L4450.69 541.467L4450.76 549.8L4440.5 549.92L4434.12 550.027L4434 541.693ZM4375.62 543.027L4381.88 542.84L4392.3 542.56L4392.5 550.893L4382.12 551.16L4375.85 551.36L4375.62 543.027ZM4317.26 545.147L4333.94 544.467L4334.25 552.8L4317.61 553.467L4317.26 545.147ZM4258.96 547.947L4275.61 547.08L4276.02 555.413L4259.38 556.267L4258.96 547.947ZM4200.66 551.36L4217.32 550.333L4217.82 558.654L4201.2 559.68L4200.66 551.36ZM4142.44 555.307L4159.06 554.133L4159.64 562.454L4143.02 563.613L4142.44 555.307ZM4084.22 559.707L4100.85 558.413L4101.5 566.72L4084.9 568.013L4084.22 559.707ZM4026.08 564.507L4026.77 572.813L4043.37 571.413L4042.68 563.107L4026.08 564.507ZM3967.94 569.627L3984.54 568.133L3985.28 576.44L3968.68 577.933L3967.94 569.627ZM3909.84 575.013L3926.44 573.454L3927.2 581.76L3910.61 583.32L3909.84 575.013ZM3851.74 580.6L3868.34 578.987L3869.14 587.28L3852.56 588.893L3851.74 580.6ZM3793.68 586.32L3810.28 584.68L3811.09 592.974L3794.5 594.613L3793.68 586.32ZM3735.64 592.107L3752.21 590.454L3753.05 598.747L3736.46 600.4L3735.64 592.107ZM3677.58 597.907L3694.17 596.254L3695 604.547L3678.41 606.2L3677.58 597.907ZM3619.53 603.64L3636.12 602.013L3636.94 610.307L3620.34 611.933L3619.53 603.64ZM3561.48 609.24L3578.06 607.667L3578.86 615.96L3562.28 617.547L3561.48 609.24ZM3503.41 614.627L3520 613.12L3520.77 621.413L3504.17 622.933L3503.41 614.627ZM3445.32 619.72L3461.92 618.307L3462.65 626.6L3446.04 628.013L3445.32 619.72ZM3387.2 624.413L3387.85 632.72L3404.48 631.427L3403.81 623.107L3387.2 624.413ZM3329.06 628.587L3345.68 627.44L3346.26 635.76L3329.62 636.893L3329.06 628.587ZM3270.88 632.12L3280.24 631.613L3287.5 631.187L3288 639.507L3280.7 639.933L3271.34 640.44L3270.88 632.12ZM3212.65 634.88L3229.29 634.187L3229.69 642.507L3213.02 643.213L3212.65 634.88ZM3154.44 636.654L3161.86 636.507L3171.08 636.267L3171.32 644.587L3162.06 644.84L3154.62 644.987L3154.44 636.654ZM3096.2 637.267L3112.84 637.227L3112.89 645.56L3096.2 645.6V637.267ZM3037.97 636.387L3050.85 636.72L3054.6 636.8L3054.46 645.133L3050.66 645.054L3037.77 644.707L3037.97 636.387ZM2979.84 633.667L2991.13 634.374L2996.44 634.654L2996.04 642.974L2990.65 642.693L2979.36 641.987L2979.84 633.667ZM2921.89 628.68L2934.36 629.987L2938.42 630.374L2937.7 638.667L2933.54 638.28L2921.08 636.974L2921.89 628.68ZM2864.37 620.774L2867.88 621.374L2880.76 623.387H2880.72L2879.6 631.64L2866.53 629.6L2863.02 629L2864.37 620.774ZM2807.49 609.147L2818.52 611.76L2823.65 612.893L2821.93 621.054L2816.65 619.893L2805.62 617.267L2807.49 609.147ZM2751.98 592.627L2761.93 596.054L2767.69 597.907L2765.22 605.867L2759.29 603.96L2749.34 600.533L2751.98 592.627ZM2699.04 569.76L2702.06 571.347L2711.4 575.933L2713.78 577.027L2710.41 584.64L2707.84 583.467L2698.29 578.787L2695.26 577.187L2699.04 569.76ZM2650.54 538.92L2651.57 539.733L2659.3 545.507L2663.76 548.6L2659.12 555.52L2654.44 552.267L2646.46 546.32L2645.45 545.507L2650.54 538.92ZM2609.64 498.84L2611.04 500.627L2617.08 507.693L2620.32 511.2L2614.32 516.974L2610.85 513.227L2604.6 505.907L2603.18 504.133L2609.64 498.84ZM2579.58 450.2L2581.01 453.36L2585.26 461.84L2586.89 464.8L2579.69 468.974L2577.89 465.733L2573.49 456.947L2572.05 453.787L2579.58 450.2ZM2561.78 395.787L2562.05 397.187L2564.41 407.2L2565.65 411.68L2557.66 414.04L2556.34 409.267L2553.9 398.96L2553.64 397.56L2561.78 395.787ZM2555.08 338.613L2555.21 343L2555.9 354.4L2555.96 355L2547.68 355.907L2547.6 355.04L2546.89 343.374L2546.76 339L2555.08 338.613ZM2557.05 280.947L2556.97 281.68L2555.9 294.533L2555.76 297.347L2547.42 296.987L2547.6 293.947L2548.68 280.88L2548.76 280.147L2557.05 280.947ZM2565.58 223.654L2564.86 227.227L2562.57 239.96L2554.36 238.574L2556.68 225.654L2557.4 222.093L2565.58 223.654ZM2578.93 167.213C2577.46 172.387 2575.93 177.96 2574.7 183.174L2566.58 181.28C2567.96 175.88 2569.38 170.36 2570.89 165.013L2578.93 167.213ZM2596.01 111.667L2593.25 119.827L2590.82 127.427L2582.86 124.96L2585.34 117.227L2588.1 109.054L2596.01 111.667ZM2615.92 57.0267L2611.33 68.8934L2609.97 72.5468L2602.14 69.6934L2603.53 65.9468L2608.13 54.0801L2615.92 57.0267ZM2638.1 3.26684L2633.06 14.9202L2631.56 18.5335L2623.85 15.3736L2625.4 11.6536L2630.44 0.000176086L2638.1 3.26684Z" fill="#575757"/>
    <path fill-rule="evenodd" clip-rule="evenodd" d="M2797.32 3049.16L2798.96 3050.68L2808.45 3059.93L2809.41 3060.91L2803.39 3066.67L2802.57 3065.83L2793.21 3056.72L2791.57 3055.19L2797.32 3049.16ZM2752.6 3011.15L2759.17 3016.21L2765.76 3021.52L2760.44 3027.95L2754.01 3022.76L2747.44 3017.68L2752.6 3011.15ZM2704.23 2977.76L2705.59 2978.59L2716.64 2985.64L2718.43 2986.84L2713.71 2993.71L2712.08 2992.61L2701.17 2985.65L2699.81 2984.83L2704.23 2977.76ZM2653 2949.17L2659.85 2952.63L2667.89 2956.87L2663.92 2964.2L2656.04 2960.03L2649.19 2956.59L2653 2949.17ZM2599.53 2925.11L2611.73 2930.13L2614.99 2931.55L2611.61 2939.16L2608.49 2937.81L2596.29 2932.79L2599.53 2925.11ZM2544.31 2905.29L2548.52 2906.63L2560.2 2910.53L2557.49 2918.41L2545.93 2914.56L2541.72 2913.23L2544.31 2905.29ZM2487.93 2889.33L2495.67 2891.27L2504.13 2893.52L2501.92 2901.56L2493.59 2899.35L2485.85 2897.4L2487.93 2889.33ZM2430.73 2876.79L2440.99 2878.77L2447.13 2880.05L2445.4 2888.2L2439.35 2886.95L2429.11 2884.96L2430.73 2876.79ZM2372.99 2867.27L2384.63 2868.95L2389.52 2869.71L2388.19 2877.93L2383.39 2877.19L2371.75 2875.51L2372.99 2867.27ZM2314.87 2860.4L2326.75 2861.59L2331.49 2862.12L2330.53 2870.39L2325.87 2869.88L2314 2868.68L2314.87 2860.4ZM2256.56 2855.85L2267.51 2856.52L2273.23 2856.93L2272.6 2865.24L2266.95 2864.84L2256 2864.16L2256.56 2855.85ZM2198.13 2853.31L2207.07 2853.56L2214.83 2853.84L2214.49 2862.17L2206.8 2861.89L2197.87 2861.64L2198.13 2853.31ZM2139.68 2852.52H2145.59L2156.37 2852.59L2156.29 2860.92L2145.57 2860.85H2139.65L2139.68 2852.52ZM2081.24 2853.25L2097.93 2852.89L2098.08 2861.23L2081.44 2861.57L2081.24 2853.25ZM2022.87 2855.29L2039.55 2854.59L2039.84 2862.92L2023.21 2863.63L2022.87 2855.29ZM1964.53 2858.48L1972.47 2857.97L1981.19 2857.47L1981.67 2865.79L1972.97 2866.29L1965.04 2866.8L1964.53 2858.48ZM1906.28 2862.63L1922.91 2861.35L1923.53 2869.65L1906.92 2870.93L1906.28 2862.63ZM1848.11 2867.59L1864.72 2866.09L1865.43 2874.4L1848.84 2875.89L1848.11 2867.59ZM1789.99 2873.23L1806.59 2871.56L1807.4 2879.85L1790.83 2881.52L1789.99 2873.23ZM1731.96 2879.43L1748.53 2877.6L1749.41 2885.89L1732.85 2887.71L1731.96 2879.43ZM1673.96 2886.05L1690.52 2884.12L1691.47 2892.4L1674.93 2894.33L1673.96 2886.05ZM1616.01 2892.99L1632.57 2890.97L1633.56 2899.25L1617.03 2901.25L1616.01 2892.99ZM1558.11 2900.11L1574.65 2898.05L1575.67 2906.32L1559.13 2908.37L1558.11 2900.11ZM1500.21 2907.29L1516.76 2905.24L1517.79 2913.51L1501.24 2915.56L1500.21 2907.29ZM1442.32 2914.41L1458.87 2912.39L1459.88 2920.67L1443.33 2922.69L1442.32 2914.41ZM1384.41 2921.35L1400.96 2919.4L1401.95 2927.67L1385.39 2929.63L1384.41 2921.35ZM1326.48 2927.93L1343.04 2926.09L1343.97 2934.37L1327.4 2936.21L1326.48 2927.93ZM1268.5 2934L1285.07 2932.33L1285.93 2940.61L1269.34 2942.29L1268.5 2934ZM1210.47 2939.35L1227.05 2937.91L1227.81 2946.2L1211.19 2947.65L1210.47 2939.35ZM1152.37 2943.76L1164.94 2942.91L1168.98 2942.61L1169.6 2950.92L1152.95 2952.07L1152.37 2943.76ZM1094.23 2946.91C1099.76 2946.69 1105.31 2946.44 1110.84 2946.16L1111.29 2954.48C1105.73 2954.77 1100.15 2955.03 1094.59 2955.24L1094.23 2946.91ZM1036.04 2948.45L1043.57 2948.37L1052.67 2948.21L1052.86 2956.53L1043.69 2956.71L1036.16 2956.79L1036.04 2948.45ZM977.885 2947.93L980.443 2948.01L994.471 2948.33L994.389 2956.67L980.207 2956.35L977.648 2956.25L977.885 2947.93ZM919.873 2944.68L932.429 2945.67L936.397 2945.92L935.901 2954.24L931.837 2953.97L919.184 2952.99L919.873 2944.68ZM862.239 2937.85L864.949 2938.28L875.796 2939.85L878.613 2940.23L877.596 2948.49L874.663 2948.11L863.689 2946.52L860.979 2946.09L862.239 2937.85ZM805.455 2926.25L813.228 2928.21L821.58 2930.15L819.772 2938.28L811.269 2936.32L803.496 2934.36L805.455 2926.25ZM750.559 2908.32L757.061 2910.92L765.955 2914.21H765.939L763.315 2922.12L754.065 2918.69L747.564 2916.11L750.559 2908.32ZM699.393 2882.21L700.34 2882.83L707.833 2887.4L713.492 2890.61L709.481 2897.92L703.607 2894.57L695.892 2889.88L694.947 2889.27L699.393 2882.21ZM654.719 2846.23L659.824 2851.31L666.036 2857.07L666.564 2857.52L661.228 2863.93L660.48 2863.28L654.051 2857.32L648.944 2852.24L654.719 2846.23ZM620.165 2800.76L622.621 2804.97L627.247 2812.25L628.863 2814.6L622.088 2819.45L620.296 2816.85L615.504 2809.31L613.047 2805.09L620.165 2800.76ZM597.264 2748.21L599.872 2756.21L602.648 2763.84L594.869 2766.83L591.996 2758.93L589.387 2750.93L597.264 2748.21ZM585.296 2692L586.12 2698.33L587.719 2708.36L579.507 2709.8L577.871 2699.52L577.047 2693.19L585.296 2692ZM581.956 2634.35L581.957 2642.61L582.157 2650.92L573.831 2651.21L573.624 2642.72L573.621 2634.45L581.956 2634.35ZM593.229 2519.12L592.361 2523.96L590.487 2535.49L582.251 2534.23L584.148 2522.56L585.016 2517.72L593.229 2519.12ZM605.019 2462.27L601.313 2478.45L593.175 2476.67L596.909 2460.36L605.019 2462.27ZM619.768 2406L617.42 2414.23L615.305 2422L607.249 2419.87L609.392 2411.99L611.74 2403.76L619.768 2406ZM636.807 2350.37L632.952 2362.27L631.727 2366.2L623.756 2363.76L625.009 2359.73L628.864 2347.84L636.807 2350.37ZM655.733 2295.33L651.46 2307.23L650.149 2311L642.263 2308.29L643.601 2304.45L647.875 2292.56L655.733 2295.33ZM676.223 2240.84L673.011 2249.05L670.227 2256.36L662.425 2253.43L665.237 2246.04L668.448 2237.84L676.223 2240.84ZM698.004 2186.84L690.311 2183.64L683.956 2199.08L691.675 2202.23L698.004 2186.84ZM717.796 2131.57L716.252 2136.68L714.54 2142.12L712.753 2147.56L704.848 2144.92L706.607 2139.56L708.289 2134.23L709.835 2129.12L717.796 2131.57ZM730.447 2074L730.209 2075.79L729.5 2080.57L728.712 2085.4L727.759 2090.69L719.588 2089.05L720.497 2083.99L721.268 2079.28L721.957 2074.63L722.195 2072.84L730.447 2074ZM731.899 2014.89L732.236 2018.48L732.541 2022.59L732.773 2026.73L732.947 2031.83L724.612 2031.91L724.448 2027.12L724.227 2023.12L723.931 2019.19L723.593 2015.59L731.899 2014.89ZM716.415 1957.47L717.443 1959.68L718.892 1962.99L720.276 1966.33L721.591 1969.73L722.883 1973.33L714.956 1975.89L714.967 1975.93L713.783 1972.65L712.537 1969.43L711.223 1966.24L709.848 1963.12L708.82 1960.91L716.415 1957.47ZM681.36 1909.33L682.959 1910.85L685.473 1913.35L687.931 1915.89L690.329 1918.48L693.173 1921.71L686.767 1927.03L684.159 1924.08L681.88 1921.61L679.547 1919.2L677.155 1916.83L675.556 1915.31L681.36 1909.33ZM632.528 1875.63L635.384 1877.09L638.74 1878.87L642.047 1880.69L645.305 1882.56L647.365 1883.79L643.041 1890.92L641.101 1889.76L637.963 1887.96L634.772 1886.2L631.532 1884.48L628.675 1883.01L632.528 1875.63ZM577.32 1854.6L579.616 1855.24L583.633 1856.43L587.609 1857.64L591.545 1858.89L593.444 1859.53L590.764 1867.43L585.117 1865.6L581.236 1864.4L577.311 1863.25L575.015 1862.6L577.32 1854.6ZM519.72 1842.63L523.933 1843.24L528.433 1843.96L532.897 1844.69L536.283 1845.29L534.807 1853.49L531.493 1852.91L527.101 1852.19L522.673 1851.48L518.46 1850.87L519.72 1842.63ZM461.26 1837.04L467.475 1837.39L472.343 1837.69L478.009 1838.09L477.335 1846.4L471.785 1846L466.975 1845.71L460.816 1845.36L461.26 1837.04ZM402.664 1836.15C408.243 1836.05 413.819 1836 419.4 1836L419.372 1844.33C413.837 1844.33 408.308 1844.39 402.777 1844.48L402.664 1836.15ZM344.165 1838.88C349.728 1838.48 355.289 1838.11 360.857 1837.77L361.313 1846.09C355.787 1846.41 350.263 1846.8 344.741 1847.19L344.165 1838.88ZM285.909 1844.52C291.444 1843.87 296.979 1843.24 302.521 1842.64L303.391 1850.93C297.883 1851.52 292.38 1852.15 286.879 1852.8L285.909 1844.52ZM227.977 1852.6C233.483 1851.73 238.987 1850.88 244.497 1850.05L245.688 1858.31C240.209 1859.09 234.729 1859.97 229.26 1860.83L227.977 1852.6ZM170.381 1862.77C175.847 1861.72 181.321 1860.69 186.797 1859.67L188.305 1867.87C182.857 1868.88 177.409 1869.91 171.968 1870.96L170.381 1862.77ZM113.178 1874.84C118.607 1873.61 124.044 1872.4 129.483 1871.21L131.251 1879.36C125.835 1880.55 120.424 1881.75 115.017 1882.97L113.178 1874.84ZM56.3719 1888.65C61.7625 1887.25 67.1588 1885.88 72.5604 1884.53L74.5697 1892.63C69.1907 1893.96 63.8193 1895.33 58.4505 1896.72L56.3719 1888.65ZM0 1904.11C5.34948 1902.56 10.7026 1901.03 16.0631 1899.52L18.2995 1907.55C12.9604 1909.05 7.63125 1910.57 2.30521 1912.12L0 1904.11Z" fill="#575757"/>
    <path fill-rule="evenodd" clip-rule="evenodd" d="M2571.77 3066.67C2488.35 2626.75 2164.88 2505.05 1780.35 2494.68C1565.33 2488.88 1331.47 2517.93 1109.97 2545.47C794.739 2584.63 504.576 2620.69 331.321 2548.56C148.633 2472.52 95.8902 2274.56 281.347 1829.04C311.108 1757.55 320.991 1698.96 315.015 1651.51C306.691 1585.4 267.836 1541.04 209.135 1513.61C153.977 1487.85 81.264 1477.15 0 1477.43V1485.73C80.1208 1485.45 151.641 1495.92 205.619 1521.13C261.733 1547.35 298.859 1589.63 306.777 1652.51C312.577 1698.56 302.851 1755.75 273.664 1825.85C85.8193 2277.11 140.729 2478.24 328.131 2556.25C503.435 2629.23 794.625 2593.04 1110.98 2553.73C1332.27 2526.23 1565.89 2497.2 1780.16 2502.99C2160.07 2513.23 2479.76 2633.27 2563.16 3066.67L2571.77 3066.67Z" fill="white"/>
    <path fill-rule="evenodd" clip-rule="evenodd" d="M2915.2 -5.38222e-05C3031.24 195.187 3223.9 258.04 3438.07 264.467C3606.47 269.533 3787.96 239.6 3955.78 211.92C4172 176.267 4365.46 144.373 4477.15 196.133C4614.96 260.013 4628.84 453.387 4408.04 929.773C4377.11 996.547 4365.44 1052.07 4369.42 1097.79C4375.26 1164.93 4414.56 1210.79 4475.99 1239.93C4536.64 1268.71 4618.98 1281.07 4711.88 1281.53C4906.55 1282.51 5148.12 1231.21 5333.34 1169.33V1160.57C5148.55 1222.6 4906.62 1274.2 4711.91 1273.23C4620.19 1272.77 4539.04 1260.64 4479.55 1232.41C4420.82 1204.55 4383.27 1160.88 4377.72 1097.07C4373.86 1052.75 4385.31 998.627 4415.6 933.253C4639.04 451.173 4623.11 254.613 4480.64 188.587C4366.64 135.747 4172 167.84 3954.44 203.72C3786.98 231.333 3605.87 261.2 3438.3 256.173C3228.88 249.88 3040.31 188.827 2925.42 -5.38222e-05H2915.2Z" fill="white"/>
    <path fill-rule="evenodd" clip-rule="evenodd" d="M4709.52 2141.88L4104.51 1492.57L4110.6 1486.89L4715.63 2136.2L4709.52 2141.88Z" fill="#575757"/>
    <path fill-rule="evenodd" clip-rule="evenodd" d="M4059.27 1437.91C4055.28 1441.64 4049.01 1441.41 4045.28 1437.41C4041.56 1433.43 4041.79 1427.16 4045.77 1423.43C4049.77 1419.71 4056.04 1419.93 4059.77 1423.93C4063.49 1427.92 4063.27 1434.19 4059.27 1437.91Z" fill="#575757"/>
    <path fill-rule="evenodd" clip-rule="evenodd" d="M3991.45 1365.13C3987.45 1368.85 3981.2 1368.64 3977.47 1364.64C3973.75 1360.64 3973.96 1354.37 3977.96 1350.65C3981.96 1346.93 3988.23 1347.15 3991.95 1351.15C3995.68 1355.15 3995.45 1361.41 3991.45 1365.13Z" fill="#575757"/>
    <path fill-rule="evenodd" clip-rule="evenodd" d="M3923.64 1292.35C3919.64 1296.08 3913.37 1295.85 3909.65 1291.85C3905.92 1287.85 3906.15 1281.6 3910.15 1277.87C3914.15 1274.15 3920.4 1274.36 3924.13 1278.36C3927.85 1282.36 3927.64 1288.63 3923.64 1292.35Z" fill="#575757"/>
    <path fill-rule="evenodd" clip-rule="evenodd" d="M3855.83 1219.57C3851.83 1223.29 3845.56 1223.08 3841.84 1219.08C3838.11 1215.08 3838.33 1208.81 3842.33 1205.09C3846.33 1201.36 3852.59 1201.59 3856.32 1205.59C3860.04 1209.59 3859.81 1215.84 3855.83 1219.57Z" fill="#575757"/>
    <path fill-rule="evenodd" clip-rule="evenodd" d="M991.34 1315.31L512.016 800.907L518.112 795.213L997.092 1309.27L991.34 1315.31Z" fill="#575757"/>
    <path fill-rule="evenodd" clip-rule="evenodd" d="M466.783 746.241C462.784 749.974 456.521 749.747 452.796 745.747C449.071 741.761 449.292 735.494 453.289 731.761C457.287 728.041 463.554 728.267 467.276 732.267C471.002 736.254 470.779 742.521 466.783 746.241Z" fill="#575757"/>
    <path fill-rule="evenodd" clip-rule="evenodd" d="M398.962 673.467C394.965 677.187 388.701 676.973 384.976 672.973C381.25 668.973 381.472 662.707 385.47 658.987C389.466 655.267 395.733 655.48 399.456 659.48C403.181 663.48 402.96 669.747 398.962 673.467Z" fill="#575757"/>
    <path fill-rule="evenodd" clip-rule="evenodd" d="M331.149 600.68C327.152 604.414 320.889 604.187 317.165 600.187C313.438 596.187 313.658 589.934 317.657 586.2C321.654 582.48 327.92 582.707 331.644 586.693C335.369 590.693 335.145 596.96 331.149 600.68Z" fill="#575757"/>
    <path fill-rule="evenodd" clip-rule="evenodd" d="M3769.7 3066.67L3567.57 2849.75L3573.68 2844.07L3781.09 3066.67H3769.7Z" fill="#575757"/>
    <path fill-rule="evenodd" clip-rule="evenodd" d="M3522.34 2795.09C3518.34 2798.81 3512.08 2798.6 3508.36 2794.6C3504.64 2790.6 3504.85 2784.33 3508.85 2780.61C3512.85 2776.89 3519.12 2777.11 3522.84 2781.11C3526.56 2785.11 3526.34 2791.37 3522.34 2795.09Z" fill="#575757"/>
    <path fill-rule="evenodd" clip-rule="evenodd" d="M3454.54 2722.31C3450.54 2726.04 3444.27 2725.81 3440.55 2721.81C3436.82 2717.83 3437.04 2711.56 3441.04 2707.83C3445.04 2704.11 3451.3 2704.33 3455.03 2708.32C3458.75 2712.32 3458.52 2718.59 3454.54 2722.31Z" fill="#575757"/>
    <path fill-rule="evenodd" clip-rule="evenodd" d="M3386.71 2649.53C3382.72 2653.25 3376.45 2653.04 3372.72 2649.04C3369 2645.04 3369.23 2638.77 3373.21 2635.05C3377.21 2631.32 3383.48 2631.55 3387.2 2635.55C3390.93 2639.55 3390.71 2645.8 3386.71 2649.53Z" fill="#575757"/>
    <path fill-rule="evenodd" clip-rule="evenodd" d="M1151.3 286.454H1203.39V234.374H1151.3V286.454Z" fill="#575757"/>
    <path fill-rule="evenodd" clip-rule="evenodd" d="M1334.64 286.454H1386.72V234.374H1334.64V286.454Z" fill="#575757"/>
    <path fill-rule="evenodd" clip-rule="evenodd" d="M1517.98 286.454H1570.06V234.374H1517.98V286.454Z" fill="#575757"/>
    <path fill-rule="evenodd" clip-rule="evenodd" d="M1701.3 286.454H1753.38V234.374H1701.3V286.454Z" fill="#575757"/>
    <path fill-rule="evenodd" clip-rule="evenodd" d="M4286.71 2832.29H4338.8V2780.21H4286.71V2832.29Z" fill="#575757"/>
    <path fill-rule="evenodd" clip-rule="evenodd" d="M4470.04 2832.29H4522.13V2780.21H4470.04V2832.29Z" fill="#575757"/>
    <path fill-rule="evenodd" clip-rule="evenodd" d="M4653.38 2832.29H4705.47V2780.21H4653.38V2832.29Z" fill="#575757"/>
    <path fill-rule="evenodd" clip-rule="evenodd" d="M4836.71 2832.29H4888.8V2780.21H4836.71V2832.29Z" fill="#575757"/>
    <path fill-rule="evenodd" clip-rule="evenodd" d="M1273.89 1845.75C1279.55 1845.75 1284.17 1841.13 1284.17 1835.47C1284.17 1829.8 1279.55 1825.19 1273.89 1825.19C1268.23 1825.19 1263.61 1829.8 1263.61 1835.47C1263.61 1841.13 1268.23 1845.75 1273.89 1845.75Z" fill="white"/>
    <path fill-rule="evenodd" clip-rule="evenodd" d="M1273.89 1929.85C1279.55 1929.85 1284.17 1925.24 1284.17 1919.57C1284.17 1913.91 1279.55 1909.29 1273.89 1909.29C1268.23 1909.29 1263.61 1913.91 1263.61 1919.57C1263.61 1925.24 1268.23 1929.85 1273.89 1929.85Z" fill="white"/>
    <path fill-rule="evenodd" clip-rule="evenodd" d="M1273.89 2013.96C1279.55 2013.96 1284.17 2009.35 1284.17 2003.68C1284.17 1998.01 1279.55 1993.4 1273.89 1993.4C1268.23 1993.4 1263.61 1998.01 1263.61 2003.68C1263.61 2009.35 1268.23 2013.96 1273.89 2013.96Z" fill="white"/>
    <path fill-rule="evenodd" clip-rule="evenodd" d="M1273.89 2098.07C1279.55 2098.07 1284.17 2093.45 1284.17 2087.79C1284.17 2082.13 1279.55 2077.51 1273.89 2077.51C1268.23 2077.51 1263.61 2082.13 1263.61 2087.79C1263.61 2093.45 1268.23 2098.07 1273.89 2098.07Z" fill="white"/>
    <path fill-rule="evenodd" clip-rule="evenodd" d="M1333.71 1845.75C1339.36 1845.75 1343.99 1841.13 1343.99 1835.47C1343.99 1829.8 1339.36 1825.19 1333.71 1825.19C1328.04 1825.19 1323.42 1829.8 1323.42 1835.47C1323.42 1841.13 1328.04 1845.75 1333.71 1845.75Z" fill="white"/>
    <path fill-rule="evenodd" clip-rule="evenodd" d="M1333.71 1929.85C1339.36 1929.85 1343.99 1925.24 1343.99 1919.57C1343.99 1913.91 1339.36 1909.29 1333.71 1909.29C1328.04 1909.29 1323.42 1913.91 1323.42 1919.57C1323.42 1925.24 1328.04 1929.85 1333.71 1929.85Z" fill="white"/>
    <path fill-rule="evenodd" clip-rule="evenodd" d="M1333.71 2013.96C1339.36 2013.96 1343.99 2009.35 1343.99 2003.68C1343.99 1998.01 1339.36 1993.4 1333.71 1993.4C1328.04 1993.4 1323.42 1998.01 1323.42 2003.68C1323.42 2009.35 1328.04 2013.96 1333.71 2013.96Z" fill="white"/>
    <path fill-rule="evenodd" clip-rule="evenodd" d="M1333.71 2098.07C1339.36 2098.07 1343.99 2093.45 1343.99 2087.79C1343.99 2082.13 1339.36 2077.51 1333.71 2077.51C1328.04 2077.51 1323.42 2082.13 1323.42 2087.79C1323.42 2093.45 1328.04 2098.07 1333.71 2098.07Z" fill="white"/>
    <path fill-rule="evenodd" clip-rule="evenodd" d="M1393.52 1845.75C1399.18 1845.75 1403.8 1841.13 1403.8 1835.47C1403.8 1829.8 1399.18 1825.19 1393.52 1825.19C1387.86 1825.19 1383.24 1829.8 1383.24 1835.47C1383.24 1841.13 1387.86 1845.75 1393.52 1845.75Z" fill="white"/>
    <path fill-rule="evenodd" clip-rule="evenodd" d="M1393.52 1929.85C1399.18 1929.85 1403.8 1925.24 1403.8 1919.57C1403.8 1913.91 1399.18 1909.29 1393.52 1909.29C1387.86 1909.29 1383.24 1913.91 1383.24 1919.57C1383.24 1925.24 1387.86 1929.85 1393.52 1929.85Z" fill="white"/>
    <path fill-rule="evenodd" clip-rule="evenodd" d="M1393.52 2013.96C1399.18 2013.96 1403.8 2009.35 1403.8 2003.68C1403.8 1998.01 1399.18 1993.4 1393.52 1993.4C1387.86 1993.4 1383.24 1998.01 1383.24 2003.68C1383.24 2009.35 1387.86 2013.96 1393.52 2013.96Z" fill="white"/>
    <path fill-rule="evenodd" clip-rule="evenodd" d="M1393.52 2098.07C1399.18 2098.07 1403.8 2093.45 1403.8 2087.79C1403.8 2082.13 1399.18 2077.51 1393.52 2077.51C1387.86 2077.51 1383.24 2082.13 1383.24 2087.79C1383.24 2093.45 1387.86 2098.07 1393.52 2098.07Z" fill="white"/>
    <path fill-rule="evenodd" clip-rule="evenodd" d="M1453.33 1845.75C1459 1845.75 1463.61 1841.13 1463.61 1835.47C1463.61 1829.8 1459 1825.19 1453.33 1825.19C1447.67 1825.19 1443.05 1829.8 1443.05 1835.47C1443.05 1841.13 1447.67 1845.75 1453.33 1845.75Z" fill="white"/>
    <path fill-rule="evenodd" clip-rule="evenodd" d="M1453.33 1929.85C1459 1929.85 1463.61 1925.24 1463.61 1919.57C1463.61 1913.91 1459 1909.29 1453.33 1909.29C1447.67 1909.29 1443.05 1913.91 1443.05 1919.57C1443.05 1925.24 1447.67 1929.85 1453.33 1929.85Z" fill="white"/>
    <path fill-rule="evenodd" clip-rule="evenodd" d="M1453.33 2013.96C1459 2013.96 1463.61 2009.35 1463.61 2003.68C1463.61 1998.01 1459 1993.4 1453.33 1993.4C1447.67 1993.4 1443.05 1998.01 1443.05 2003.68C1443.05 2009.35 1447.67 2013.96 1453.33 2013.96Z" fill="white"/>
    <path fill-rule="evenodd" clip-rule="evenodd" d="M1453.33 2098.07C1459 2098.07 1463.61 2093.45 1463.61 2087.79C1463.61 2082.13 1459 2077.51 1453.33 2077.51C1447.67 2077.51 1443.05 2082.13 1443.05 2087.79C1443.05 2093.45 1447.67 2098.07 1453.33 2098.07Z" fill="white"/>
    <path fill-rule="evenodd" clip-rule="evenodd" d="M3354 1004.32C3354 1010 3349.4 1014.6 3343.72 1014.6C3338.04 1014.6 3333.44 1010 3333.44 1004.32C3333.44 998.641 3338.04 994.041 3343.72 994.041C3349.4 994.041 3354 998.641 3354 1004.32Z" fill="white"/>
    <path fill-rule="evenodd" clip-rule="evenodd" d="M3269.9 1004.32C3269.9 1010 3265.3 1014.6 3259.62 1014.6C3253.94 1014.6 3249.34 1010 3249.34 1004.32C3249.34 998.641 3253.94 994.041 3259.62 994.041C3265.3 994.041 3269.9 998.641 3269.9 1004.32Z" fill="white"/>
    <path fill-rule="evenodd" clip-rule="evenodd" d="M3185.79 1004.32C3185.79 1010 3181.19 1014.6 3175.51 1014.6C3169.83 1014.6 3165.23 1010 3165.23 1004.32C3165.23 998.641 3169.83 994.041 3175.51 994.041C3181.19 994.041 3185.79 998.641 3185.79 1004.32Z" fill="white"/>
    <path fill-rule="evenodd" clip-rule="evenodd" d="M3101.68 1004.32C3101.68 1010 3097.08 1014.6 3091.4 1014.6C3085.72 1014.6 3081.12 1010 3081.12 1004.32C3081.12 998.641 3085.72 994.041 3091.4 994.041C3097.08 994.041 3101.68 998.641 3101.68 1004.32Z" fill="white"/>
    <path fill-rule="evenodd" clip-rule="evenodd" d="M3354 1064.13C3354 1069.81 3349.4 1074.41 3343.72 1074.41C3338.04 1074.41 3333.44 1069.81 3333.44 1064.13C3333.44 1058.45 3338.04 1053.85 3343.72 1053.85C3349.4 1053.85 3354 1058.45 3354 1064.13Z" fill="white"/>
    <path fill-rule="evenodd" clip-rule="evenodd" d="M3269.9 1064.13C3269.9 1069.81 3265.3 1074.41 3259.62 1074.41C3253.94 1074.41 3249.34 1069.81 3249.34 1064.13C3249.34 1058.45 3253.94 1053.85 3259.62 1053.85C3265.3 1053.85 3269.9 1058.45 3269.9 1064.13Z" fill="white"/>
    <path fill-rule="evenodd" clip-rule="evenodd" d="M3185.79 1064.13C3185.79 1069.81 3181.19 1074.41 3175.51 1074.41C3169.83 1074.41 3165.23 1069.81 3165.23 1064.13C3165.23 1058.45 3169.83 1053.85 3175.51 1053.85C3181.19 1053.85 3185.79 1058.45 3185.79 1064.13Z" fill="white"/>
    <path fill-rule="evenodd" clip-rule="evenodd" d="M3101.68 1064.13C3101.68 1069.81 3097.08 1074.41 3091.4 1074.41C3085.72 1074.41 3081.12 1069.81 3081.12 1064.13C3081.12 1058.45 3085.72 1053.85 3091.4 1053.85C3097.08 1053.85 3101.68 1058.45 3101.68 1064.13Z" fill="white"/>
    <path fill-rule="evenodd" clip-rule="evenodd" d="M3838 1895.55C3833.37 1890.93 3827 1888.08 3819.95 1888.08C3812.89 1888.08 3806.51 1890.93 3801.91 1895.53L3801.88 1895.55C3797.28 1900.16 3794.43 1906.55 3794.43 1913.6C3794.43 1920.64 3797.28 1927.03 3801.91 1931.64C3806.52 1936.27 3812.91 1939.12 3819.95 1939.12C3827 1939.12 3833.39 1936.27 3838 1931.65C3842.61 1927.04 3845.47 1920.65 3845.47 1913.6C3845.47 1906.55 3842.61 1900.17 3838 1895.55ZM3819.95 1879.75C3829.29 1879.75 3837.76 1883.53 3843.89 1889.65C3850.01 1895.79 3853.8 1904.25 3853.8 1913.6C3853.8 1922.93 3850.01 1931.4 3843.89 1937.52L3843.87 1937.53C3837.75 1943.67 3829.28 1947.45 3819.95 1947.45C3810.6 1947.45 3802.13 1943.67 3796.01 1937.53C3789.88 1931.41 3786.09 1922.95 3786.09 1913.6C3786.09 1904.27 3789.88 1895.81 3796.01 1889.68L3796.03 1889.65C3802.16 1883.53 3810.63 1879.75 3819.95 1879.75Z" fill="#575757"/>
    <path fill-rule="evenodd" clip-rule="evenodd" d="M1303.58 944.493C1298.96 939.88 1292.58 937.013 1285.54 937.013C1278.48 937.013 1272.09 939.867 1267.49 944.48L1267.47 944.493C1262.87 949.093 1260.01 955.48 1260.01 962.533C1260.01 969.587 1262.87 975.96 1267.49 980.587C1272.11 985.2 1278.49 988.053 1285.54 988.053C1292.59 988.053 1298.97 985.2 1303.59 980.587C1308.2 975.973 1311.06 969.587 1311.06 962.533C1311.06 955.493 1308.2 949.107 1303.58 944.493ZM1285.54 928.68C1294.88 928.68 1303.35 932.48 1309.48 938.6C1315.6 944.72 1319.39 953.187 1319.39 962.533C1319.39 971.88 1315.6 980.333 1309.48 986.467L1309.46 986.48C1303.33 992.6 1294.87 996.387 1285.54 996.387C1276.19 996.387 1267.72 992.6 1261.6 986.48C1255.47 980.347 1251.68 971.88 1251.68 962.533C1251.68 953.213 1255.47 944.747 1261.6 938.613L1261.61 938.6C1267.75 932.48 1276.21 928.68 1285.54 928.68Z" fill="#575757"/>
    <path fill-rule="evenodd" clip-rule="evenodd" d="M2283.94 2142.48H2283.96C2289.97 2142.48 2294.89 2147.4 2294.89 2153.41V2162.8H2304.26C2310.28 2162.8 2315.2 2167.72 2315.2 2173.73C2315.2 2179.75 2310.28 2184.67 2304.26 2184.67H2294.89V2194.05C2294.89 2200.07 2289.97 2204.99 2283.96 2204.99H2283.94C2277.93 2204.99 2273.01 2200.07 2273.01 2194.05V2184.67H2263.64C2257.62 2184.67 2252.7 2179.75 2252.7 2173.73C2252.7 2167.72 2257.62 2162.8 2263.64 2162.8H2273.01V2153.41C2273.01 2147.4 2277.93 2142.48 2283.94 2142.48Z" fill="white"/>
    <path fill-rule="evenodd" clip-rule="evenodd" d="M3172.5 1408.11C3178.52 1408.11 3183.44 1413.03 3183.44 1419.05V1428.43H3192.82C3198.83 1428.43 3203.75 1433.35 3203.75 1439.36C3203.75 1445.37 3198.83 1450.31 3192.82 1450.31H3183.44V1459.68C3183.44 1465.69 3178.52 1470.61 3172.5 1470.61C3166.48 1470.61 3161.56 1465.69 3161.56 1459.68V1450.31H3152.19C3146.18 1450.31 3141.24 1445.37 3141.24 1439.36C3141.24 1433.35 3146.18 1428.43 3152.19 1428.43H3161.56V1419.05C3161.56 1413.03 3166.48 1408.11 3172.5 1408.11Z" fill="white"/>
    </g>
    <defs>
    <clipPath id="clip0_1305_27">
    <rect width="5333.33" height="3066.67" fill="white"/>
    </clipPath>
    </defs>
    </svg>
    