<svg width="51" height="131" viewBox="0 0 51 131" fill="none" xmlns="http://www.w3.org/2000/svg">
    <path d="M3.51923 6.2901C5.21474 6.2901 6.58923 4.91561 6.58923 3.22009C6.58923 1.52458 5.21474 0.150146 3.51923 0.150146C1.82371 0.150146 0.449219 1.52458 0.449219 3.22009C0.449219 4.91561 1.82371 6.2901 3.51923 6.2901Z" fill="white"/>
    <path d="M25.6989 6.2901C27.3944 6.2901 28.7689 4.91561 28.7689 3.22009C28.7689 1.52458 27.3944 0.150146 25.6989 0.150146C24.0034 0.150146 22.6289 1.52458 22.6289 3.22009C22.6289 4.91561 24.0034 6.2901 25.6989 6.2901Z" fill="white"/>
    <path d="M47.8786 6.2901C49.5741 6.2901 50.9486 4.91561 50.9486 3.22009C50.9486 1.52458 49.5741 0.150146 47.8786 0.150146C46.1831 0.150146 44.8086 1.52458 44.8086 3.22009C44.8086 4.91561 46.1831 6.2901 47.8786 6.2901Z" fill="white"/>
    <path d="M3.51923 27.0602C5.21474 27.0602 6.58923 25.6857 6.58923 23.9902C6.58923 22.2947 5.21474 20.9202 3.51923 20.9202C1.82371 20.9202 0.449219 22.2947 0.449219 23.9902C0.449219 25.6857 1.82371 27.0602 3.51923 27.0602Z" fill="white"/>
    <path d="M25.6989 27.0602C27.3944 27.0602 28.7689 25.6857 28.7689 23.9902C28.7689 22.2947 27.3944 20.9202 25.6989 20.9202C24.0034 20.9202 22.6289 22.2947 22.6289 23.9902C22.6289 25.6857 24.0034 27.0602 25.6989 27.0602Z" fill="white"/>
    <path d="M47.8786 27.0602C49.5741 27.0602 50.9486 25.6857 50.9486 23.9902C50.9486 22.2947 49.5741 20.9202 47.8786 20.9202C46.1831 20.9202 44.8086 22.2947 44.8086 23.9902C44.8086 25.6857 46.1831 27.0602 47.8786 27.0602Z" fill="white"/>
    <path d="M3.51923 47.8302C5.21474 47.8302 6.58923 46.4557 6.58923 44.7602C6.58923 43.0647 5.21474 41.6902 3.51923 41.6902C1.82371 41.6902 0.449219 43.0647 0.449219 44.7602C0.449219 46.4557 1.82371 47.8302 3.51923 47.8302Z" fill="white"/>
    <path d="M25.6989 47.8302C27.3944 47.8302 28.7689 46.4557 28.7689 44.7602C28.7689 43.0647 27.3944 41.6902 25.6989 41.6902C24.0034 41.6902 22.6289 43.0647 22.6289 44.7602C22.6289 46.4557 24.0034 47.8302 25.6989 47.8302Z" fill="white"/>
    <path d="M47.8786 47.8302C49.5741 47.8302 50.9486 46.4557 50.9486 44.7602C50.9486 43.0647 49.5741 41.6902 47.8786 41.6902C46.1831 41.6902 44.8086 43.0647 44.8086 44.7602C44.8086 46.4557 46.1831 47.8302 47.8786 47.8302Z" fill="white"/>
    <path d="M3.51923 68.6102C5.21474 68.6102 6.58923 67.2357 6.58923 65.5402C6.58923 63.8447 5.21474 62.4702 3.51923 62.4702C1.82371 62.4702 0.449219 63.8447 0.449219 65.5402C0.449219 67.2357 1.82371 68.6102 3.51923 68.6102Z" fill="white"/>
    <path d="M25.6989 68.6102C27.3944 68.6102 28.7689 67.2357 28.7689 65.5402C28.7689 63.8447 27.3944 62.4702 25.6989 62.4702C24.0034 62.4702 22.6289 63.8447 22.6289 65.5402C22.6289 67.2357 24.0034 68.6102 25.6989 68.6102Z" fill="white"/>
    <path d="M47.8786 68.6102C49.5741 68.6102 50.9486 67.2357 50.9486 65.5402C50.9486 63.8447 49.5741 62.4702 47.8786 62.4702C46.1831 62.4702 44.8086 63.8447 44.8086 65.5402C44.8086 67.2357 46.1831 68.6102 47.8786 68.6102Z" fill="white"/>
    <path d="M3.51923 89.3802C5.21474 89.3802 6.58923 88.0058 6.58923 86.3102C6.58923 84.6147 5.21474 83.2402 3.51923 83.2402C1.82371 83.2402 0.449219 84.6147 0.449219 86.3102C0.449219 88.0058 1.82371 89.3802 3.51923 89.3802Z" fill="white"/>
    <path d="M25.6989 89.3802C27.3944 89.3802 28.7689 88.0058 28.7689 86.3102C28.7689 84.6147 27.3944 83.2402 25.6989 83.2402C24.0034 83.2402 22.6289 84.6147 22.6289 86.3102C22.6289 88.0058 24.0034 89.3802 25.6989 89.3802Z" fill="white"/>
    <path d="M47.8786 89.3802C49.5741 89.3802 50.9486 88.0058 50.9486 86.3102C50.9486 84.6147 49.5741 83.2402 47.8786 83.2402C46.1831 83.2402 44.8086 84.6147 44.8086 86.3102C44.8086 88.0058 46.1831 89.3802 47.8786 89.3802Z" fill="white"/>
    <path d="M3.51923 110.15C5.21474 110.15 6.58923 108.776 6.58923 107.08C6.58923 105.385 5.21474 104.01 3.51923 104.01C1.82371 104.01 0.449219 105.385 0.449219 107.08C0.449219 108.776 1.82371 110.15 3.51923 110.15Z" fill="white"/>
    <path d="M25.6989 110.15C27.3944 110.15 28.7689 108.776 28.7689 107.08C28.7689 105.385 27.3944 104.01 25.6989 104.01C24.0034 104.01 22.6289 105.385 22.6289 107.08C22.6289 108.776 24.0034 110.15 25.6989 110.15Z" fill="white"/>
    <path d="M47.8786 110.15C49.5741 110.15 50.9486 108.776 50.9486 107.08C50.9486 105.385 49.5741 104.01 47.8786 104.01C46.1831 104.01 44.8086 105.385 44.8086 107.08C44.8086 108.776 46.1831 110.15 47.8786 110.15Z" fill="white"/>
    <path d="M3.51923 130.92C5.21474 130.92 6.58923 129.546 6.58923 127.85C6.58923 126.155 5.21474 124.78 3.51923 124.78C1.82371 124.78 0.449219 126.155 0.449219 127.85C0.449219 129.546 1.82371 130.92 3.51923 130.92Z" fill="white"/>
    <path d="M25.6989 130.92C27.3944 130.92 28.7689 129.546 28.7689 127.85C28.7689 126.155 27.3944 124.78 25.6989 124.78C24.0034 124.78 22.6289 126.155 22.6289 127.85C22.6289 129.546 24.0034 130.92 25.6989 130.92Z" fill="white"/>
    <path d="M47.8786 130.92C49.5741 130.92 50.9486 129.546 50.9486 127.85C50.9486 126.155 49.5741 124.78 47.8786 124.78C46.1831 124.78 44.8086 126.155 44.8086 127.85C44.8086 129.546 46.1831 130.92 47.8786 130.92Z" fill="white"/>
    </svg>
    