<svg width="525" height="310" viewBox="0 0 525 310" fill="none" xmlns="http://www.w3.org/2000/svg">
    <path d="M378.949 0.943604C378.949 105.392 294.232 190.066 189.73 190.066C85.2278 190.066 0.51123 105.392 0.51123 0.943604H378.949Z" fill="white"/>
    <mask id="mask0_1255_99" style="mask-type:luminance" maskUnits="userSpaceOnUse" x="255" y="40" width="270" height="270">
    <path d="M389.991 309.175C464.313 309.175 524.564 248.956 524.564 174.671C524.564 100.387 464.313 40.1672 389.991 40.1672C315.668 40.1672 255.418 100.387 255.418 174.671C255.418 248.956 315.668 309.175 389.991 309.175Z" fill="white"/>
    </mask>
    <g mask="url(#mask0_1255_99)">
    <path d="M300.724 -34.993L297.725 -30.5759L604.052 177.177L607.051 172.76L300.724 -34.993Z" fill="white"/>
    <path d="M288.391 -16.8268L285.398 -12.4182L591.726 195.334L594.719 190.926L288.391 -16.8268Z" fill="white"/>
    <path d="M276.059 1.33959L273.072 5.7395L579.399 213.492L582.386 209.092L276.059 1.33959Z" fill="white"/>
    <path d="M263.726 19.506L260.745 23.8973L567.072 231.65L570.054 227.259L263.726 19.506Z" fill="white"/>
    <path d="M251.392 37.674L248.417 42.0566L554.745 249.809L557.72 245.427L251.392 37.674Z" fill="white"/>
    <path d="M239.06 55.8406L236.09 60.2146L542.418 267.967L545.387 263.593L239.06 55.8406Z" fill="white"/>
    <path d="M226.729 74.0051L223.764 78.3722L530.091 286.125L533.056 281.758L226.729 74.0051Z" fill="white"/>
    <path d="M214.398 92.1725L211.439 96.531L517.767 304.284L520.726 299.925L214.398 92.1725Z" fill="white"/>
    <path d="M202.064 110.341L199.111 114.69L505.439 322.443L508.392 318.093L202.064 110.341Z" fill="white"/>
    <path d="M189.732 128.507L186.784 132.848L493.112 340.601L496.059 336.26L189.732 128.507Z" fill="white"/>
    <path d="M177.399 146.674L174.458 151.006L480.785 358.759L483.727 354.426L177.399 146.674Z" fill="white"/>
    <path d="M165.067 164.84L162.131 169.164L468.459 376.916L471.394 372.592L165.067 164.84Z" fill="white"/>
    </g>
    </svg>
    