<svg width="101" height="18" viewBox="0 0 101 18" fill="none" xmlns="http://www.w3.org/2000/svg">
    <path d="M14.1211 17.3602C10.9343 17.2202 8.8678 15.6702 7.01295 14.2702C5.07097 12.8102 3.39045 11.5402 0.527271 11.8602L0.128906 9.53022C4.36144 9.07022 6.82627 10.9202 9.00478 12.5602C10.9468 14.0202 12.6273 15.2902 15.4905 14.9702C18.3536 14.6602 19.5487 13.0802 20.943 11.2602C22.499 9.2202 24.2667 6.9102 28.4993 6.4502C32.7318 5.9902 35.1966 7.84017 37.3751 9.48017C39.3171 10.9402 40.9977 12.2102 43.8609 11.8902C46.7241 11.5802 47.9192 10.0002 49.3134 8.18018C50.8695 6.14018 52.6372 3.83018 56.8697 3.37018C61.1022 2.91018 63.5671 4.76021 65.7456 6.40021C67.6876 7.86021 69.3681 9.12019 72.2313 8.81019C75.0945 8.50019 76.2895 6.92016 77.6838 5.10016C79.2398 3.06016 81.0076 0.750166 85.2401 0.290166C89.4851 -0.169834 91.9499 1.68019 94.116 3.32019C96.0704 4.78019 97.751 6.04017 100.602 5.73017L101 8.06019C96.7675 8.52019 94.3027 6.67022 92.1242 5.03022C90.1698 3.57022 88.4892 2.31018 85.6385 2.62018C82.7753 2.93018 81.5802 4.5102 80.186 6.3302C78.6299 8.3702 76.8622 10.6802 72.6296 11.1402C68.3971 11.6002 65.9323 9.75017 63.7538 8.11017C61.8118 6.65017 60.1313 5.3902 57.2681 5.7002C54.4049 6.0102 53.2098 7.59016 51.8156 9.41016C50.2595 11.4502 48.4918 13.7602 44.2593 14.2202C40.0267 14.6802 37.5619 12.8302 35.3834 11.1902C33.4414 9.73019 31.7608 8.47022 28.8976 8.78022C26.0345 9.09022 24.8394 10.6702 23.4451 12.4902C21.8891 14.5302 20.1214 16.8402 15.8888 17.3002C15.2539 17.3602 14.6689 17.3802 14.1211 17.3602Z" fill="url(#paint0_linear_1212_117)"/>
    <defs>
    <linearGradient id="paint0_linear_1212_117" x1="0.258033" y1="6.52717" x2="100.574" y2="13.5191" gradientUnits="userSpaceOnUse">
    <stop stop-color="#ff0000"/>
    <stop offset="1" stop-color="#000"/>
    </linearGradient>
    </defs>
    </svg>
    