<svg width="388" height="422" viewBox="0 0 388 422" fill="none" xmlns="http://www.w3.org/2000/svg">
    <path d="M387.908 234.721V422H379.563V234.721C379.563 110.336 296.405 9.14208 194.191 9.14208C91.9776 9.14208 8.81943 110.336 8.81943 234.721V422H0.474609V234.721C0.474609 203.237 5.56495 172.686 15.6017 143.919C25.313 116.093 39.2217 91.0923 56.944 69.6112C74.7143 48.0696 95.4283 31.1487 118.508 19.3155C142.47 7.02984 167.934 0.801514 194.191 0.801514C220.448 0.801514 245.912 7.02984 269.874 19.3155C292.954 31.1487 313.668 48.0696 331.438 69.6112C349.161 91.0923 363.069 116.093 372.781 143.919C382.817 172.686 387.908 203.237 387.908 234.721Z" fill="white"/>
    <path d="M369.009 244.942V422H360.664V244.942C360.664 124.338 289.097 33.3882 194.191 33.3882C99.2856 33.3882 27.7184 124.338 27.7184 244.942V422H19.3735V244.942C19.3735 213.674 23.9569 183.94 32.9944 156.566C41.6876 130.233 54.234 106.835 70.2832 87.0242C86.1842 67.3968 104.889 52.0523 125.883 41.4181C147.325 30.5566 170.306 25.0476 194.191 25.0476C218.076 25.0476 241.058 30.5566 262.5 41.4181C283.493 52.0523 302.198 67.3968 318.099 87.0242C334.148 106.835 346.695 130.233 355.388 156.566C364.425 183.94 369.009 213.674 369.009 244.942Z" fill="white"/>
    <path d="M350.11 255.162V422H341.765V255.162C341.765 138.863 281.079 57.6362 194.191 57.6362C107.303 57.6362 46.6173 138.863 46.6173 255.162V422H38.2725V255.162C38.2725 224.112 42.3468 195.197 50.3828 169.223C58.0726 144.37 69.2547 122.576 83.6203 104.443C97.6625 86.7156 114.365 72.9474 133.261 63.5184C152.175 54.081 172.676 49.2957 194.191 49.2957C215.706 49.2957 236.207 54.081 255.121 63.5184C274.018 72.9474 290.72 86.7156 304.762 104.443C319.128 122.576 330.31 144.37 338 169.223C346.036 195.197 350.11 224.112 350.11 255.162Z" fill="white"/>
    <path d="M331.211 265.383V422H322.866V265.383C322.866 207.133 309.711 159.266 284.822 126.959C262.106 97.4708 230.764 81.8823 194.191 81.8823C157.618 81.8823 126.277 97.4708 103.56 126.959C78.6718 159.266 65.5162 207.133 65.5162 265.383V422H57.1714V265.383C57.1714 234.554 60.7388 206.463 67.7714 181.888C74.466 158.507 84.2816 138.315 96.949 121.871C109.153 106.028 123.855 93.8302 140.647 85.6168C157.023 77.6036 175.04 73.5417 194.191 73.5417C213.343 73.5417 231.359 77.6036 247.736 85.6168C264.528 93.8302 279.229 106.028 291.433 121.871C304.101 138.315 313.916 158.507 320.611 181.888C327.644 206.463 331.211 234.554 331.211 265.383Z" fill="white"/>
    <path d="M312.312 275.602V422H303.967V275.602C303.967 217.535 293.015 173.353 271.416 144.286C252.866 119.325 226.162 106.13 194.191 106.13C162.22 106.13 135.517 119.325 116.966 144.286C95.3677 173.353 84.4151 217.535 84.4151 275.602V422H76.0703V275.602C76.0703 215.705 87.5758 169.85 110.267 139.313C120.659 125.328 133.368 114.696 148.042 107.709C161.865 101.126 177.393 97.7898 194.191 97.7898C210.989 97.7898 226.517 101.126 240.34 107.709C255.014 114.696 267.724 125.328 278.115 139.313C300.807 169.85 312.312 215.705 312.312 275.602Z" fill="white"/>
    <path d="M293.413 285.824V422H285.068V285.824C285.068 228.762 275.96 186.963 257.996 161.591C243.123 140.587 222.253 130.376 194.191 130.376C166.13 130.376 145.259 140.587 130.387 161.591C112.422 186.963 103.314 228.762 103.314 285.824V422H94.9692V285.824C94.9692 255.452 97.5186 229.018 102.546 207.26C107.276 186.788 114.35 169.802 123.575 156.774C132.183 144.616 142.91 135.539 155.457 129.793C166.697 124.646 179.728 122.036 194.191 122.036C208.655 122.036 221.685 124.646 232.926 129.793C245.472 135.539 256.2 144.616 264.807 156.774C274.032 169.802 281.107 186.788 285.836 207.26C290.864 229.018 293.413 255.452 293.413 285.824Z" fill="white"/>
    </svg>
    