<svg width="100" height="100" viewBox="0 0 100 100" fill="none" xmlns="http://www.w3.org/2000/svg">
    <path fill-rule="evenodd" clip-rule="evenodd" d="M64.1589 99.9924H49.1297C49.1313 99.9924 49.1281 99.9924 49.1297 99.9924H35.8416C35.3412 99.9924 34.8953 99.6734 34.7334 99.1998C34.6755 99.0314 34.6194 98.8572 34.5647 98.6792L34.2099 97.3661C34.1649 97.1788 34.1243 96.9968 34.0837 96.8094C34.0293 96.5539 33.9878 96.3472 33.9479 96.1365L33.6932 94.6168C33.6256 94.1628 33.5647 93.7005 33.5093 93.226L33.3352 91.5224C33.2913 91.0269 33.253 90.5263 33.2189 90.0165L33.1158 88.1906C33.0904 87.643 33.0692 87.0907 33.0524 86.5306L33.0099 84.6233C32.9977 83.7721 32.9926 82.9114 32.9961 82.0456L33.0134 80.0813C33.0221 79.458 33.0351 78.8504 33.0498 78.2419L33.0791 77.1694C33.0964 76.5876 33.1158 76.0091 33.1379 75.4346L33.1804 74.3737C33.2297 73.2099 33.286 72.0634 33.3479 70.9416L33.4016 69.997C33.4358 69.4096 33.4699 68.8627 33.504 68.3233L33.514 68.1729C33.5481 67.6474 33.5822 67.1323 33.6182 66.6255L33.9638 62.1292C33.9638 62.1283 33.9737 62.0134 33.9737 62.0129L34.3211 58.1527C34.379 57.5515 34.8833 57.0917 35.4879 57.0917L42.1411 57.0908C42.4518 57.0908 42.7496 57.2145 42.9693 57.4343L50.0003 64.4676L57.0318 57.4359C57.2523 57.2163 57.5502 57.0924 57.8609 57.0924H64.5138C65.1173 57.0924 65.622 57.5512 65.6804 58.1533L66.028 62.0166L66.0377 62.1303L66.3844 66.6266C66.4195 67.1334 66.4546 67.6495 66.4887 68.1743L66.4991 68.3245C66.5332 68.864 66.5674 69.4117 66.599 69.9658L66.6544 70.9413C66.7171 72.0641 66.7732 73.2106 66.8221 74.3719L66.8645 75.4312C66.8862 76.0097 66.906 76.588 66.9231 77.1668L66.9517 78.2441C66.9672 78.8504 66.9785 79.4582 66.9884 80.0651L67.0061 82.047C67.0087 82.9123 67.0048 83.773 66.9914 84.6214L66.9489 86.5317C66.9319 87.09 66.91 87.6425 66.8857 88.1869L66.7833 90.0127C66.7492 90.5262 66.7102 91.0273 66.6661 91.5187L66.492 93.2232C66.4366 93.7009 66.3748 94.163 66.309 94.6114L66.053 96.133C66.0128 96.3462 65.9713 96.5568 65.9277 96.7612C65.8765 96.9988 65.8359 97.1804 65.7934 97.3573L65.5955 98.1326C65.56 98.2602 65.5249 98.3834 65.4889 98.5029L65.4384 98.6706C65.384 98.8544 65.3263 99.0279 65.2693 99.197C65.1069 99.6734 64.6611 99.9924 64.1589 99.9924ZM49.9962 97.6457L50.8792 97.6489H63.2956L63.5127 96.815C63.551 96.6554 63.5884 96.4895 63.6251 96.3202C63.6753 96.0858 63.7129 95.8964 63.7496 95.7017L63.9914 94.2645C64.0532 93.844 64.1109 93.4055 64.1637 92.9554L64.3323 91.3092C64.3739 90.8382 64.4115 90.354 64.4447 89.8617L64.5446 88.078C64.5688 87.5491 64.59 87.0088 64.6064 86.4621L64.6488 84.5838C64.6601 83.7534 64.6641 82.907 64.6618 82.0551L64.6445 80.1171C64.6345 79.5044 64.6232 78.903 64.6078 78.3028L64.5792 77.2393C64.5621 76.6663 64.5427 76.0942 64.5215 75.5249L64.48 74.4727C64.4311 73.3227 64.375 72.1857 64.3139 71.0738L64.2601 70.134C64.2269 69.554 64.1923 69.0112 64.1582 68.4765C64.1582 68.4726 64.1485 68.33 64.1478 68.3261C64.1153 67.8054 64.0802 67.2928 64.0454 66.7907L63.7019 62.3278L64.8597 62.1163L63.692 62.2139L63.4463 59.4385L58.3461 59.4392L50.8295 66.9552C50.3711 67.4133 49.6301 67.4133 49.1718 66.9552L41.6551 59.4392H36.5535L36.3079 62.218L35.1314 62.2309L36.2991 62.3292L35.9554 66.7916C35.9205 67.2942 35.8864 67.807 35.8523 68.3277L34.673 68.4024L35.8423 68.4781C35.8082 69.0126 35.7748 69.5545 35.7425 70.1044L35.6871 71.0745C35.6253 72.1859 35.569 73.3234 35.5203 74.4734L35.4788 75.5295C35.4576 76.0949 35.4389 76.667 35.4211 77.2414L35.3918 78.3064C35.3771 78.9035 35.3651 79.5042 35.3568 80.1039L35.339 82.0581C35.3365 82.9095 35.3404 83.7555 35.3528 84.5903L35.3944 86.4667C35.4105 87.01 35.4317 87.5498 35.4562 88.0826L35.557 89.8663C35.5902 90.3567 35.6276 90.8402 35.6691 91.3155L35.8377 92.9623C35.8896 93.4073 35.9485 93.8458 36.0112 94.2714L36.252 95.7084C36.2871 95.8948 36.3252 96.086 36.3651 96.2724C36.4121 96.4904 36.4497 96.6565 36.488 96.8191L36.7053 97.6498L49.9962 97.6457ZM89.534 99.5546H78.3005C77.6837 99.5546 77.172 99.0762 77.1314 98.4602C76.7196 92.2769 73.5936 87.0558 73.5625 87.0039C73.4192 86.7686 73.3639 86.4897 73.4063 86.2168L73.4259 86.0883C74.386 80.2705 76.2315 66.0077 72.6889 58.9962C72.4603 58.543 72.5479 57.9946 72.9078 57.6366C73.2672 57.2793 73.8139 57.1898 74.2672 57.4227C94.015 67.5171 90.8424 97.2539 90.6977 98.5156C90.6308 99.1087 90.1287 99.5546 89.534 99.5546ZM79.3721 97.2104H88.4567C88.8002 92.2331 89.4405 70.7116 75.9953 61.1997C78.1257 69.0905 76.6627 80.7734 75.7877 86.1705C76.5134 87.4701 78.77 91.8583 79.3721 97.2104ZM21.6999 99.5546H10.4664C9.87081 99.5546 9.37046 99.1078 9.30217 98.5165C9.1573 97.2554 5.98654 67.5183 25.7334 57.4237C26.1858 57.1925 26.7341 57.2788 27.093 57.6366C27.452 57.9946 27.5406 58.543 27.312 58.9956C24.8709 63.8257 24.5627 73.4602 26.4656 85.4309C26.4829 85.5391 26.4845 85.6489 26.4716 85.7562C26.4374 86.0376 26.3998 86.3158 26.3583 86.5917C26.3371 86.734 26.29 86.8724 26.2194 86.9977C26.1901 87.0491 23.2812 92.258 22.8678 98.46C22.8277 99.0761 22.3168 99.5546 21.6999 99.5546ZM11.5429 97.2104H20.6268C21.2385 91.5904 23.5306 87.051 24.0709 86.0429C24.0898 85.9077 24.1085 85.7709 24.1253 85.6343C23.1271 79.2983 21.9783 68.61 23.9968 61.2046C10.5456 70.7263 11.1973 92.2355 11.5429 97.2104Z" fill="#fff"/>
    <path fill-rule="evenodd" clip-rule="evenodd" d="M35.8576 99.9926C35.8636 99.9926 35.8518 99.9917 35.8576 99.9926H28.4099C27.9257 99.9926 27.4918 99.6948 27.3171 99.2431C25.0578 93.4001 19.3117 66.3627 26.0119 56.5879C28.2911 53.2623 31.7851 52.2542 36.2073 53.7043C36.7353 53.8778 37.0689 54.3982 37.0055 54.95C36.969 55.2764 33.3482 87.5243 36.8924 98.2692C36.9794 98.4334 37.0292 98.6216 37.0292 98.8198C37.0292 99.4676 36.5051 99.9926 35.8576 99.9926ZM29.2318 97.6491H34.279C31.4995 86.4994 33.9909 61.0918 34.5697 55.6711C31.6305 54.9502 29.4849 55.6663 27.9448 57.9136C22.4239 65.9666 26.6403 90.0632 29.2318 97.6491Z" fill="#fff"/>
    <path fill-rule="evenodd" clip-rule="evenodd" d="M34.28 77.5012H24.2436C23.6265 77.5012 23.1158 77.0227 23.0742 76.4077C22.928 74.2294 22.871 72.1555 22.9033 70.2431C22.9146 69.6034 23.4353 69.0908 24.0749 69.0908L34.5616 69.0913C34.8839 69.0913 35.1923 69.2246 35.4135 69.459C35.6345 69.6934 35.7497 70.0092 35.731 70.3305C35.6087 72.4321 35.5144 74.463 35.4502 76.3689C35.4299 76.9998 34.9113 77.5012 34.28 77.5012ZM25.346 75.1569H33.1499C33.1962 73.9541 33.2541 72.7094 33.3224 71.4351H25.2369C25.2401 72.6222 25.2768 73.8681 25.346 75.1569Z" fill="#fff"/>
    <path fill-rule="evenodd" clip-rule="evenodd" d="M71.5913 99.9924H64.1598C63.7806 99.9924 63.4258 99.8083 63.2062 99.5008C62.9856 99.1924 62.9289 98.7979 63.0525 98.439C66.692 87.8672 63.0336 55.2785 62.9962 54.9507C62.9335 54.398 63.2661 53.8785 63.7944 53.705C68.2157 52.2533 71.7106 53.263 73.9898 56.5886C80.6896 66.365 74.9434 93.4008 72.6836 99.2438C72.5099 99.6946 72.0753 99.9924 71.5913 99.9924ZM65.7221 97.6489H70.7692C73.3616 90.0639 77.5774 65.9671 72.0571 57.9134C70.5152 55.666 68.3754 54.9491 65.4316 55.6709C66.0102 61.0915 68.5016 86.4983 65.7221 97.6489Z" fill="#fff"/>
    <path fill-rule="evenodd" clip-rule="evenodd" d="M75.7587 77.5011H65.7221C65.0907 77.5011 64.5723 76.9998 64.5513 76.3685C64.4863 74.4369 64.3917 72.406 64.2715 70.3303C64.2528 70.008 64.3675 69.6929 64.5899 69.4588C64.8104 69.2244 65.1188 69.0908 65.4415 69.0908L75.9278 69.0913C76.5666 69.0913 77.0882 69.6039 77.0985 70.2426C77.1318 72.1564 77.0748 74.2302 76.9276 76.4077C76.8863 77.0227 76.3755 77.5011 75.7587 77.5011ZM66.8522 75.1569H74.656C74.7261 73.8681 74.7628 72.6221 74.7653 71.435H66.6798C66.7474 72.6996 66.8049 73.9456 66.8522 75.1569Z" fill="#fff"/>
    <path fill-rule="evenodd" clip-rule="evenodd" d="M42.1424 59.4373C42.0414 59.4373 41.9396 59.4244 41.8379 59.3967C41.2121 59.2299 40.8418 58.587 41.0088 57.9614L42.6882 51.6946C42.855 51.0697 43.5004 50.6946 44.1235 50.8664C44.7491 51.0332 45.1196 51.6761 44.9526 52.3018L43.2732 58.5686C43.1332 59.0915 42.6596 59.4373 42.1424 59.4373Z" fill="#fff"/>
    <path fill-rule="evenodd" clip-rule="evenodd" d="M57.8587 59.4375C57.341 59.4375 56.8674 59.0924 56.7274 58.5692L55.048 52.3024C54.8805 51.6766 55.2515 51.0348 55.8762 50.8673C56.5046 50.6957 57.1447 51.0706 57.3115 51.6955L58.9909 57.9623C59.1586 58.5881 58.7877 59.2299 58.1627 59.3976C58.0612 59.4246 57.9588 59.4375 57.8587 59.4375Z" fill="#fff"/>
    <path fill-rule="evenodd" clip-rule="evenodd" d="M49.9987 55.1855C40.5687 55.1855 33.2539 43.1389 33.2539 32.776L33.2574 30.4353C33.2583 30.0862 33.4152 29.755 33.6853 29.5328C33.9563 29.3116 34.3118 29.2214 34.6537 29.2888C39.1034 30.1587 44.4096 30.6184 49.9986 30.6184C55.5877 30.6184 60.8953 30.1587 65.3461 29.2881C65.6903 29.2205 66.0458 29.3109 66.3152 29.5328C66.5851 29.7559 66.7422 30.0876 66.7422 30.4376V32.776C66.7431 43.1393 59.4291 55.1855 49.9987 55.1855ZM35.5991 31.8436L35.5977 32.776C35.5977 41.8648 42.0216 52.8413 49.9989 52.8413C57.9762 52.8413 64.3992 41.8648 64.3992 32.776V31.8427C60.1101 32.576 55.1663 32.962 49.9987 32.962C44.8309 32.962 39.888 32.576 35.5991 31.8436Z" fill="#fff"/>
    <path fill-rule="evenodd" clip-rule="evenodd" d="M50.0008 32.9608C36.4857 32.9608 22.8047 30.2209 22.8047 24.9853C22.8047 21.633 28.2212 19.7093 32.765 18.6857C33.1255 18.6052 33.5036 18.6982 33.7844 18.9388C34.0653 19.1796 34.2155 19.5386 34.1913 19.9079C34.0326 22.2593 34.0464 23.8501 34.0579 24.3777C35.0047 25.1145 40.4687 26.4204 50.0008 26.4204C59.5339 26.4204 64.9974 25.1145 65.9437 24.3772C65.956 23.8019 65.9673 22.2233 65.8111 19.9077C65.7859 19.5384 65.9364 19.1794 66.218 18.9386C66.4995 18.6984 66.8794 18.605 67.2374 18.6855C71.781 19.7091 77.1977 21.6325 77.1977 24.9848C77.1977 30.2209 63.515 32.9608 50.0008 32.9608ZM31.7631 21.3423C26.575 22.7156 25.1473 24.2933 25.1473 24.9849C25.1473 27.2813 34.8292 30.617 50 30.617C65.1705 30.617 74.8526 27.2809 74.8526 24.9849C74.8526 24.2933 73.4253 22.7156 68.2372 21.3423C68.3283 23.4107 68.2813 24.6042 68.2787 24.6654C68.2815 28.4643 54.2896 28.7639 50.0009 28.7639C45.712 28.7639 31.721 28.4643 31.721 24.6165C31.7191 24.5952 31.672 23.4093 31.7631 21.3423Z" fill="#fff"/>
    <path fill-rule="evenodd" clip-rule="evenodd" d="M50.0023 28.7641C45.7134 28.7641 31.7224 28.4644 31.7224 24.6166C31.7111 24.3799 31.4555 17.5668 33.5531 7.93968C34.9811 1.38477 37.6833 0.0078125 39.6979 0.0078125C40.977 0.0078125 41.8949 0.595369 41.9948 0.662038C42.029 0.684875 42.0624 0.71002 42.0947 0.73678C44.0832 2.39425 47.8337 4.76546 50.0028 4.89857C52.1729 4.765 55.9222 2.39402 57.911 0.737477C57.9428 0.710718 57.9763 0.686034 58.0111 0.662735C58.111 0.595836 59.0289 0.00850977 60.308 0.00850977C62.3235 0.00850977 65.0248 1.38431 66.4525 7.94038C68.5495 17.5678 68.2941 24.3806 68.2819 24.6662C68.283 28.4644 54.291 28.7641 50.0023 28.7641ZM34.0594 24.3774C35.0062 25.1146 40.4701 26.4205 50.0023 26.4205C59.5345 26.4205 64.9973 25.1156 65.9452 24.3783C65.9695 23.0952 65.9833 16.7989 64.1625 8.43932C63.3205 4.57143 61.9149 2.35246 60.3082 2.35246C59.8321 2.35246 59.4489 2.53793 59.3416 2.59583C57.7631 3.89505 53.2252 7.10111 50.0561 7.24344C50.0211 7.24506 49.9853 7.24506 49.9502 7.24344C46.7818 7.10111 42.2458 3.8969 40.6654 2.59676C40.5586 2.53886 40.177 2.35247 39.6979 2.35247C38.0907 2.35247 36.6856 4.57142 35.8436 8.43932C33.9991 16.9013 34.0341 23.2205 34.0594 24.3774Z" fill="#fff"/>
    <path fill-rule="evenodd" clip-rule="evenodd" d="M38.4584 15.1729C38.3975 15.1729 38.3354 15.168 38.2736 15.1581C37.6339 15.0564 37.1989 14.4566 37.2997 13.8179L37.3329 13.6072C37.7008 11.2803 38.159 8.38361 39.0312 6.2152C39.1654 5.88324 39.4434 5.63041 39.7869 5.52937C40.1304 5.42856 40.5013 5.49039 40.7945 5.69616C43.211 7.40415 46.7953 9.67409 49.9989 9.67409C50.6455 9.67409 51.1706 10.1989 51.1706 10.8457C51.1706 11.4926 50.6451 12.0174 49.9989 12.0174C46.71 12.0174 43.321 10.2012 40.7346 8.49437C40.2366 10.2494 39.9055 12.3447 39.6483 13.9727L39.6151 14.1842C39.5228 14.7614 39.025 15.1729 38.4584 15.1729Z" fill="#fff"/>
    <path fill-rule="evenodd" clip-rule="evenodd" d="M65.5682 39.0865C65.3129 39.0865 65.0541 39.0653 64.8019 39.0238C64.4838 38.9719 64.2024 38.7903 64.0217 38.5241C63.8413 38.2577 63.7786 37.9285 63.8478 37.6136C64.2146 35.9626 64.4003 34.3354 64.4003 32.7755V30.437C64.4003 29.8774 64.7973 29.3948 65.3475 29.2873C66.3556 29.0893 67.3141 28.8713 68.1953 28.6386C68.6354 28.5223 69.101 28.6711 69.393 29.0188C70.3254 30.1302 70.8382 31.5884 70.8382 33.1245C70.8369 36.4122 68.4733 39.0865 65.5682 39.0865ZM66.7434 31.3925V32.7757C66.7434 34.0159 66.6377 35.2909 66.4294 36.5838C67.6239 36.1275 68.4929 34.7499 68.4929 33.1252C68.4929 32.3953 68.3189 31.6995 67.9932 31.1081C67.5879 31.2056 67.1706 31.3016 66.7434 31.3925Z" fill="#fff"/>
    <path fill-rule="evenodd" clip-rule="evenodd" d="M34.4288 39.0868C31.524 39.0868 29.1602 36.4122 29.1602 33.1243C29.1602 31.5881 29.6739 30.1297 30.6063 29.0174C30.8984 28.6693 31.3646 28.5221 31.8031 28.6372C32.6926 28.8725 33.6525 29.0905 34.6567 29.2875C35.2076 29.3948 35.6055 29.8792 35.6039 30.4402L35.6004 32.7748C35.6004 34.3356 35.7859 35.9626 36.1522 37.6129C36.2223 37.9269 36.1596 38.2565 35.9797 38.5225C35.7993 38.7894 35.5174 38.97 35.2002 39.0222C34.9464 39.066 34.6869 39.0868 34.4288 39.0868ZM32.005 31.1065C31.6795 31.6988 31.5046 32.3944 31.5046 33.1245C31.5046 34.751 32.3761 36.1294 33.5711 36.5841C33.363 35.2929 33.2578 34.017 33.2578 32.7755L33.2592 31.393C32.8317 31.3018 32.4126 31.2059 32.005 31.1065Z" fill="#fff"/>
    <path fill-rule="evenodd" clip-rule="evenodd" d="M22.5388 61.9997C21.892 61.9997 21.3672 61.4742 21.3672 60.828V49.5379C21.3672 48.891 21.892 48.3662 22.5388 48.3662H40.9588C41.2827 48.3662 41.5927 48.5005 41.8142 48.7374C43.5676 50.6105 46.4103 52.8422 50.0005 52.8422C53.5897 52.8422 56.4334 50.6101 58.1869 48.7374C58.4083 48.5005 58.7183 48.3662 59.0427 48.3662H77.4624C78.1093 48.3662 78.6343 48.891 78.6343 49.5379V60.8273C78.6343 61.4742 78.1086 61.9992 77.4624 61.9992C76.8165 61.9992 76.2908 61.4735 76.2908 60.8273V50.7095H59.5412C56.657 53.6401 53.3672 55.1862 50.0003 55.1862C46.6334 55.1862 43.3434 53.6401 40.4591 50.7095H23.7105V60.8283C23.7105 61.4751 23.1859 61.9997 22.5388 61.9997Z" fill="#fff"/>
    <path fill-rule="evenodd" clip-rule="evenodd" d="M81.4037 50.7094H59.0402C58.5731 50.7094 58.1509 50.4319 57.9654 50.003C57.779 49.5749 57.8662 49.0771 58.186 48.7359C60.0469 46.7474 61.619 44.1769 62.7302 41.3023C62.9044 40.8508 63.339 40.5537 63.823 40.5537H81.4037C82.8577 40.5537 84.0409 41.736 84.0409 43.1902V48.0722C84.0409 49.526 82.8577 50.7094 81.4037 50.7094ZM61.5332 48.3661H81.4037C81.5624 48.3661 81.6969 48.2316 81.6969 48.0729V43.1909C81.6969 43.0322 81.5624 42.8977 81.4037 42.8977L64.6131 42.8982C63.7775 44.8899 62.7344 46.7395 61.5332 48.3661ZM40.9573 50.7094H18.5935C17.1395 50.7094 15.957 49.5262 15.957 48.0722V43.1902C15.957 41.7362 17.1402 40.5537 18.5935 40.5537H36.1752C36.6594 40.5537 37.0933 40.8515 37.2679 41.3032C38.3787 44.1771 39.9499 46.7474 41.8113 48.7363C42.1303 49.0763 42.2166 49.5742 42.0309 50.0032C41.8459 50.4316 41.4235 50.7094 40.9573 50.7094ZM18.5935 42.8982C18.4348 42.8982 18.3006 43.0324 18.3006 43.1911V48.0731C18.3006 48.2318 18.4348 48.3663 18.5935 48.3663L38.4633 48.3661C37.2624 46.7395 36.2192 44.8899 35.3837 42.8982H18.5935Z" fill="#fff"/>
    </svg>
    