<svg id="fi_17416144" enable-background="new 0 0 24 24" viewBox="0 0 24 24" xmlns="http://www.w3.org/2000/svg"><g><path d="m6.5 17.8c-.3 0-.5-.1-.6-.3-1.8-2.8-3.2-3.5-3.2-3.5-.4-.2-.5-.6-.4-1s.6-.5 1-.4c.2.1 1.4.7 3.2 3 .1-.1.1-.2.2-.3.2-.3.7-.4 1-.2s.4.7.2 1c-.5.7-.8 1.2-.8 1.2-.1.3-.3.4-.6.5zm3.9-5.2c-.2 0-.3-.1-.5-.2-.3-.3-.4-.7-.1-1.1 2.5-3 4.8-5 6.8-6 .4-.2.8 0 1 .3.2.4 0 .8-.3 1-1.8.9-4 2.9-6.4 5.6-.1.3-.3.4-.5.4z" fill="#FF2B00"></path></g><g><path d="m11.5 17.8c-.3 0-.5-.1-.6-.3-1.8-2.8-3.2-3.5-3.2-3.5-.4-.2-.5-.6-.4-1s.6-.5 1-.4c.2.1 1.4.7 3.2 3 1.6-2.3 6-8.3 10.2-10.3.4-.2.8 0 1 .3.2.4 0 .8-.3 1-4.8 2.4-10.2 10.7-10.2 10.7-.2.3-.4.4-.7.5z" fill="#FF2B00"></path></g></svg>