<svg width="64" height="64" viewBox="0 0 64 64" fill="none" xmlns="http://www.w3.org/2000/svg">
    <path d="M62.0264 23.812C56.6463 22.7249 51.1957 23.3347 45.8268 25.6256C45.3739 25.8189 45.1477 26.3295 45.3088 26.7947L45.897 28.4934C43.4808 28.4941 41.4737 27.8612 39.3674 27.1945C38.7268 26.9916 38.0643 26.782 37.3834 26.588C34.2157 25.6862 31.0232 26.463 28.6239 28.719L28.3283 28.9969C24.2304 29.9216 21.4013 29.8627 18.0188 28.7391L18.6922 26.7947C18.8533 26.3295 18.627 25.8189 18.1742 25.6256C12.8053 23.3349 7.35478 22.7246 1.97453 23.812C1.53716 23.9004 1.22266 24.2847 1.22266 24.731V47.9907C1.22266 48.5086 1.64228 48.9282 2.16016 48.9282H10.3597C10.7592 48.9282 11.1148 48.6751 11.2455 48.2975L11.6142 47.233C14.7414 48.4094 17.1523 50.9177 18.4974 52.3182C18.6325 52.459 18.7578 52.5894 18.8729 52.7072L28.5299 62.6026C29.1288 63.2161 29.9363 63.557 30.8035 63.5622C30.8105 63.5624 30.8173 63.5624 30.8242 63.5624C31.6964 63.5624 32.5139 63.225 33.1282 62.6107C33.514 62.2249 33.782 61.7652 33.9327 61.2767C35.3673 62.0784 37.218 61.8704 38.436 60.6526C39.0692 60.0194 39.4294 59.215 39.5167 58.387C39.849 58.4809 40.1967 58.5294 40.5523 58.5294C41.5607 58.5294 42.5068 58.1387 43.216 57.4294C43.8963 56.7491 44.2614 55.871 44.3115 54.9786C45.5134 55.2276 46.8147 54.887 47.7459 53.9561C49.1203 52.5817 49.2067 50.4345 48.0019 48.9206C48.3263 48.8566 48.6494 48.7603 48.9675 48.6305C49.9313 48.2373 50.8207 47.7902 51.6809 47.3581C51.8979 47.2491 52.1094 47.1431 52.3197 47.0389L52.7555 48.2975C52.8863 48.6751 53.2419 48.9282 53.6414 48.9282H61.8409C62.3588 48.9282 62.7784 48.5086 62.7784 47.9907V24.731C62.7783 24.2847 62.4638 23.9004 62.0264 23.812ZM9.69228 47.0532H3.09778V25.51C7.58666 24.746 12.1314 25.253 16.6302 27.0191L9.69228 47.0532ZM46.42 52.6301C45.682 53.3677 44.4817 53.3677 43.7442 52.6301L37.8449 46.5982C37.4834 46.2276 36.8898 46.2204 36.5193 46.5821C36.1487 46.9437 36.1415 47.5372 36.5032 47.9077L41.8823 53.4198C41.8834 53.4209 41.8845 53.4217 41.8857 53.4229C41.8873 53.4245 41.8887 53.4264 41.8903 53.428C42.6279 54.1655 42.6279 55.3659 41.8903 56.1035C41.1525 56.8413 39.9519 56.8411 39.2147 56.1039L33.0649 49.8214C32.7032 49.4507 32.1095 49.4435 31.7393 49.8052C31.3687 50.1669 31.3615 50.7604 31.7232 51.1309L37.1024 56.6429C37.1037 56.6441 37.105 56.6452 37.1064 56.6465C37.1078 56.6479 37.109 56.6495 37.1104 56.6509V56.651C37.4657 57.0061 37.6612 57.4812 37.6612 57.9889C37.6612 58.4965 37.4657 58.9715 37.1107 59.3265C36.3727 60.0641 35.1723 60.064 34.4348 59.3267L27.7574 52.5168C27.3957 52.1461 26.802 52.1389 26.4318 52.5006C26.0612 52.8623 26.054 53.4557 26.4157 53.8262L31.7948 59.3381C31.796 59.3394 31.7974 59.3405 31.7988 59.3419C31.8002 59.3432 31.8014 59.3449 31.8028 59.3462C32.337 59.8807 32.3372 60.7504 31.8029 61.2849C31.541 61.5467 31.192 61.688 30.8157 61.6874C30.4534 61.6851 30.1183 61.545 29.8723 61.2931L20.2153 51.3978C20.1034 51.2831 19.9817 51.1563 19.8503 51.0195C18.3907 49.4998 15.773 46.7764 12.2285 45.4605L17.4055 30.5112C19.4259 31.1836 21.292 31.5134 23.287 31.5134C24.1062 31.5134 24.9487 31.4556 25.8308 31.3454L23.6613 33.3853C22.6235 34.3611 22.075 35.6299 22.075 37.0545V46.4745C22.075 46.9924 22.4947 47.412 23.0125 47.412C27.0529 47.412 31.2322 44.8565 31.2322 40.5798C31.2322 39.1035 32.3958 38.0484 33.2878 37.3191L43.5043 47.5294C43.9972 48.022 44.5625 48.3959 45.1684 48.6456L46.4058 49.9391C47.147 50.7148 47.1535 51.8967 46.42 52.6301ZM50.839 45.6826C50.011 46.0985 49.1549 46.5287 48.2589 46.8942C47.0413 47.3914 45.7595 47.1329 44.8293 46.2034L34.0109 35.3918C33.6594 35.0405 33.0952 35.0245 32.7244 35.355C32.6249 35.4436 32.4887 35.5536 32.3309 35.6809C31.2915 36.52 29.3567 38.0818 29.3567 40.5799C29.3567 42.3426 28.3204 43.486 27.4512 44.1348C26.4874 44.8541 25.2475 45.3257 23.9495 45.481V37.0546C23.9495 36.1347 24.2752 35.3812 24.9453 34.7512L29.9083 30.0849C31.815 28.2919 34.3525 27.6745 36.8699 28.3912C37.5245 28.5775 38.1737 28.7831 38.8014 28.9819C41.1315 29.7194 43.5364 30.4786 46.5417 30.3549L51.701 45.253C51.41 45.3959 51.1218 45.5405 50.839 45.6826ZM60.9033 47.0532H54.3088L47.3709 27.0192C51.8695 25.253 56.414 24.7461 60.9033 25.5101V47.0532ZM10.1914 22.1994H22.8832V24.8525C22.8832 25.3704 23.3028 25.79 23.8207 25.79H40.1803C40.6982 25.79 41.1178 25.3704 41.1178 24.8525V22.1994H53.8095C54.3274 22.1994 54.747 21.7797 54.747 21.2619V17.342C54.747 14.1355 52.8345 11.3304 50.0023 10.1016C50.9287 9.075 51.4933 7.72212 51.4933 6.24062C51.4933 3.04075 48.8629 0.4375 45.6298 0.4375C42.3965 0.4375 39.7662 3.04075 39.7662 6.24062C39.7662 7.72337 40.3317 9.07737 41.2595 10.1044C39.4679 10.8877 38.0154 12.3177 37.2069 14.1129C36.9394 13.9567 36.6607 13.817 36.373 13.6923C37.2994 12.6656 37.864 11.3128 37.864 9.83138C37.864 6.63138 35.2337 4.02813 32.0005 4.02813C28.7673 4.02813 26.1369 6.63138 26.1369 9.83138C26.1369 11.3129 26.7015 12.6658 27.6279 13.6924C27.3404 13.8171 27.0617 13.9569 26.7942 14.113C25.9858 12.3177 24.5332 10.8879 22.7417 10.1045C23.6695 9.07762 24.235 7.72363 24.235 6.24088C24.235 3.041 21.6047 0.43775 18.3715 0.43775C15.1383 0.43775 12.5079 3.041 12.5079 6.24088C12.5079 7.72238 13.0725 9.07538 13.9989 10.1019C11.1667 11.3306 9.25416 14.1357 9.25416 17.3422V21.2621C9.25391 21.7796 9.67366 22.1994 10.1914 22.1994ZM39.2428 23.9149H24.7583V20.9326C24.7583 18.0991 26.7164 15.6754 29.4559 15.0588C30.226 15.4274 31.0893 15.6342 32.0007 15.6342C32.9119 15.6342 33.7753 15.4274 34.5453 15.0588C37.2848 15.6754 39.2429 18.0991 39.2429 20.9326V23.9149H39.2428ZM45.6298 2.31238C47.829 2.31238 49.6183 4.0745 49.6183 6.2405C49.6183 8.4065 47.829 10.1687 45.6298 10.1687C43.4304 10.1687 41.6412 8.4065 41.6412 6.2405C41.6412 4.0745 43.4304 2.31238 45.6298 2.31238ZM43.0858 11.4685C43.8557 11.837 44.7188 12.0437 45.6298 12.0437C46.541 12.0437 47.4044 11.8368 48.1745 11.4681C50.914 12.085 52.8722 14.5086 52.8722 17.342V20.3244H41.0932C40.9443 18.37 40.0849 16.5989 38.7502 15.2911C39.4497 13.3715 41.0859 11.9211 43.0858 11.4685ZM32.0005 5.903C34.1998 5.903 35.989 7.66525 35.989 9.83125C35.989 11.9973 34.1998 13.7592 32.0005 13.7592C29.8012 13.7592 28.0119 11.9971 28.0119 9.83113C28.0119 7.66513 29.8012 5.903 32.0005 5.903ZM18.3714 2.31238C20.5707 2.31238 22.3599 4.0745 22.3599 6.2405C22.3599 8.4065 20.5707 10.1687 18.3714 10.1687C16.172 10.1687 14.3828 8.4065 14.3828 6.2405C14.3828 4.0745 16.172 2.31238 18.3714 2.31238ZM11.1289 17.3419C11.1289 14.5085 13.087 12.0849 15.8265 11.468C16.5967 11.8366 17.46 12.0436 18.3714 12.0436C19.2824 12.0436 20.1454 11.8369 20.9154 11.4684C22.9152 11.921 24.5515 13.3713 25.251 15.291C23.9163 16.5986 23.0569 18.3697 22.908 20.3242H11.1289V17.3419Z" fill="#FF2B00"/>
    </svg>
    