<svg width="100" height="100" viewBox="0 0 100 100" fill="none" xmlns="http://www.w3.org/2000/svg">
    <g clip-path="url(#clip0_1205_2304)">
    <path d="M38.9459 69.314C40.6913 69.314 42.3025 68.2951 43.0509 66.7181C43.3978 65.9871 43.0864 65.1131 42.3553 64.7664C41.6245 64.4193 40.7505 64.731 40.4036 65.4618C40.1377 66.0219 39.5655 66.3839 38.9459 66.3839C38.3263 66.3839 37.7539 66.0219 37.4882 65.4618C37.1413 64.7309 36.2675 64.4195 35.5366 64.7664C34.8056 65.1133 34.4942 65.9871 34.8409 66.7181C35.5893 68.2949 37.2007 69.314 38.9459 69.314Z" fill="white"/>
    <path d="M30.2134 58.446C31.1604 58.446 31.9308 57.3014 31.9308 55.8944C31.9308 54.4873 31.1604 53.3428 30.2134 53.3428C29.2665 53.3428 28.4961 54.4875 28.4961 55.8944C28.4961 57.3012 29.2665 58.446 30.2134 58.446Z" fill="white"/>
    <path d="M47.6823 58.446C48.6292 58.446 49.3996 57.3014 49.3996 55.8944C49.3996 54.4873 48.6292 53.3428 47.6823 53.3428C46.7353 53.3428 45.9648 54.4875 45.9648 55.8944C45.9648 57.3012 46.7353 58.446 47.6823 58.446Z" fill="white"/>
    <path d="M90.2957 27.4821C89.951 24.7153 87.6873 22.5512 84.9136 22.3367C81.8717 22.1008 78.7604 21.8925 75.6667 21.7175C74.8592 21.6726 74.1669 22.2895 74.1212 23.0974C74.0755 23.9052 74.6933 24.5973 75.5011 24.643C78.5746 24.8168 81.6652 25.0239 84.6872 25.2581C86.0788 25.3658 87.2148 26.4534 87.388 27.8449C89.5409 45.0735 89.5409 62.5448 87.388 79.7738C87.2148 81.1649 86.0788 82.2525 84.6874 82.3602C76.1782 83.0177 67.5881 83.4336 59.1279 83.6041C59.1273 83.5922 59.1269 83.5801 59.1263 83.5682C58.9274 79.689 56.925 76.267 53.8112 74.2098C56.8691 72.1784 58.9247 68.7792 59.1261 64.8528C59.1624 64.1439 59.191 63.4338 59.2154 62.7231C61.6091 62.1004 63.3815 59.9209 63.3815 57.3349C63.3815 54.7187 61.5677 52.5193 59.1322 51.9254C59.0009 49.2828 58.7884 46.6423 58.4951 44.0126C60.8008 43.9882 64.3121 43.695 65.8374 42.2383C66.4113 41.69 66.7149 41.0051 66.7149 40.2575C66.7149 38.0745 64.3504 36.36 59.2736 34.8617C58.6262 34.6706 57.9808 34.4966 57.3616 34.3405C57.6331 33.7849 57.8417 32.8436 57.1996 31.5988C55.958 29.192 52.2455 28.4128 45.8491 29.2166C44.0005 29.4489 42.2159 29.7765 40.7693 30.0781C40.7467 29.999 40.7189 29.9196 40.6859 29.8397C39.5094 26.9992 33.0054 25.9231 22.8511 29.3619C18.0736 30.98 15.3034 34.8578 14.8398 40.5759C14.5587 44.0441 15.0807 48.1592 16.4343 53.1303C15.2575 54.152 14.5113 55.6573 14.5113 57.3347C14.5113 59.9207 16.2836 62.1002 18.6774 62.7229C18.7018 63.4336 18.7303 64.1437 18.7667 64.8526C18.9681 68.7794 21.0241 72.1788 24.0824 74.2102C21.2237 76.0992 19.307 79.1372 18.8579 82.6174C17.6759 82.536 16.4901 82.451 15.3124 82.36C13.9207 82.2524 12.785 81.1647 12.6114 79.7732C10.4585 62.5446 10.4585 45.0733 12.6114 27.8443C12.7848 26.4532 13.9206 25.3656 15.312 25.2579C33.3574 23.8638 51.646 23.5584 69.6693 24.3506C70.4737 24.3881 71.1617 23.7596 71.1973 22.9513C71.2328 22.143 70.6063 21.4589 69.7978 21.4233C51.6571 20.6259 33.2493 20.9332 15.0862 22.3365C12.3123 22.551 10.0486 24.7151 9.70364 27.4815C7.52066 44.9512 7.52066 62.6671 9.70364 80.1362C10.0486 82.903 12.3123 85.0669 15.0864 85.2816C16.755 85.4105 18.4445 85.5312 20.1067 85.6402C22.488 85.7984 24.8989 85.9389 27.2718 86.0577C34.8018 86.4382 42.4263 86.6294 50.0289 86.6294C52.6078 86.6294 55.1854 86.6074 57.7544 86.5632C66.7309 86.4116 75.8685 85.9805 84.9136 85.2816C87.6877 85.0671 89.9513 82.903 90.2961 80.1366C92.4789 62.6671 92.4789 44.9514 90.2957 27.4821ZM60.4509 57.3351C60.4509 58.2447 59.988 59.0479 59.2855 59.522C59.2992 58.0583 59.2882 56.5926 59.2517 55.1264C59.9727 55.5977 60.4509 56.4111 60.4509 57.3351ZM18.6065 59.522C17.904 59.0479 17.4411 58.2445 17.4411 57.3351C17.4411 56.411 17.9195 55.5977 18.6403 55.1264C18.6038 56.5926 18.5928 58.0585 18.6065 59.522ZM19.5938 42.3393C19.2488 45.1026 18.9941 47.8806 18.8286 50.6621C16.346 40.3253 18.0079 34.0961 23.7906 32.1378C31.6555 29.4741 36.1387 30.0706 37.5514 30.7038C37.4127 30.8055 37.2592 30.9055 37.118 30.9833C36.4651 31.3377 36.1807 32.1245 36.4561 32.8143C36.7316 33.5042 37.4797 33.8789 38.197 33.6859C38.2357 33.6755 42.1166 32.6392 46.2142 32.1243C51.7313 31.431 54.1772 32.1319 54.5953 32.9424C54.6175 32.9856 54.6349 33.0233 54.6484 33.0553C54.2558 33.2397 53.3115 33.3731 52.5397 33.3386C51.763 33.2999 51.0925 33.8748 51.0107 34.6476C50.9288 35.4204 51.4645 36.1226 52.2314 36.2478C52.2601 36.2525 55.1499 36.729 58.1093 37.5752C62.514 38.8346 63.5264 39.8904 63.7364 40.1944C63.0088 40.7744 59.8454 41.1866 56.94 41.0582C44.9845 39.9022 32.8614 39.9033 20.9065 41.0623C20.2239 41.1285 19.6787 41.6591 19.5938 42.3393ZM21.6925 64.7028C21.3382 57.792 21.563 50.7897 22.3612 43.869C33.3728 42.8732 44.519 42.8732 55.5306 43.869C55.8875 46.9629 56.1287 50.0732 56.2559 53.1842C56.2545 53.2257 56.2538 53.2673 56.2559 53.3093C56.2571 53.3331 56.2608 53.3562 56.2631 53.3798C56.4118 57.1626 56.3919 60.9463 56.1993 64.7028C56.0051 68.4891 53.5291 71.6289 50.1064 72.7937C50.0584 72.8064 50.0109 72.8213 49.9646 72.8387C49.2133 73.0807 48.4189 73.23 47.5931 73.269C41.8553 73.54 36.0367 73.54 30.2987 73.269C29.4727 73.23 28.6783 73.0807 27.9268 72.8387C27.8805 72.8213 27.8332 72.8066 27.7854 72.7939C24.3627 71.6289 21.8867 68.4891 21.6925 64.7028ZM21.7861 82.8122C22.2673 79.6101 24.4012 76.9333 27.4468 75.7558C28.3145 75.9999 29.2225 76.1513 30.1608 76.1957C32.5973 76.3107 35.0483 76.3748 37.5016 76.3936V83.5219C34.129 83.4283 30.764 83.3004 27.4189 83.1312C25.5535 83.038 23.6655 82.9308 21.7861 82.8122ZM40.4318 83.5934V76.3934C42.8713 76.374 45.3086 76.3102 47.7314 76.1957C48.6699 76.1513 49.5782 75.9999 50.446 75.7556C53.7531 77.0323 55.9865 80.0801 56.1953 83.6532C50.9537 83.7254 45.687 83.7051 40.4318 83.5934Z" fill="white"/>
    <path d="M80.3938 59.6272C79.9567 59.6272 79.5175 59.5218 79.1116 59.3084L76.0574 57.7027L73.0034 59.3083C72.0698 59.799 70.9602 59.7187 70.1072 59.099C69.2541 58.4792 68.8349 57.4486 69.013 56.4093L69.5963 53.0084L67.1256 50.6C66.3704 49.8639 66.1038 48.7835 66.4296 47.7808C66.7554 46.7779 67.6062 46.0607 68.6497 45.9092L72.0641 45.413L73.5911 42.3187C74.0578 41.373 75.0029 40.7856 76.0574 40.7856C77.1118 40.7856 78.0567 41.373 78.5236 42.3187L80.0506 45.413L83.4651 45.9092C84.5086 46.0607 85.3593 46.778 85.6851 47.7808C86.011 48.7837 85.7443 49.8639 84.9893 50.6L82.5186 53.0084L83.1019 56.4091C83.2801 57.4486 82.8609 58.4792 82.0078 59.099C81.5257 59.4493 80.9615 59.6272 80.3938 59.6272ZM76.0574 54.7491C76.4969 54.7491 76.9364 54.8544 77.3371 55.065L80.1522 56.5449L79.6146 53.4104C79.4615 52.5183 79.7572 51.6081 80.4056 50.9762L82.6829 48.7563L79.5357 48.299C78.6398 48.1687 77.8659 47.6065 77.465 46.7948L76.0574 43.9428L74.6499 46.7947C74.2493 47.6063 73.4753 48.1687 72.5793 48.299L69.4319 48.7563L71.7092 50.9762C72.3575 51.6083 72.6533 52.5185 72.5001 53.4106L71.9626 56.5449L74.7777 55.065C75.1783 54.8546 75.6179 54.7491 76.0574 54.7491Z" fill="white"/>
    <path d="M98.0405 22.2697C97.6428 19.0882 95.0396 16.6006 91.8512 16.3553C80.6599 15.4903 69.4051 14.9744 58.138 14.8066L68.0982 2.48423C68.6069 1.85503 68.509 0.932414 67.8798 0.423931C67.2504 -0.0847472 66.3282 0.0129253 65.8193 0.642327L54.4042 14.7644C51.4687 14.7408 48.5329 14.7408 45.5974 14.7644L34.1824 0.642327C33.6736 0.0129253 32.751 -0.0847472 32.122 0.423931C31.4927 0.932609 31.3949 1.85503 31.9036 2.48423L41.8638 14.8066C30.5969 14.9744 19.3421 15.4903 8.15098 16.3553C4.96217 16.6008 2.359 19.0882 1.96108 22.2699C-0.407671 41.2415 -0.631732 60.4884 1.29535 79.4761C1.377 80.2811 2.09704 80.8674 2.90089 80.7857C3.7059 80.7041 4.29233 79.9852 4.21067 79.1802C2.30587 60.4114 2.52739 41.3862 4.86899 22.6333C5.09481 20.8275 6.56986 19.4158 8.3766 19.2767C35.9968 17.1417 64.0056 17.1417 91.626 19.2767C93.4325 19.4158 94.9074 20.8273 95.133 22.6329C97.7155 43.3203 97.7155 64.298 95.133 84.9833C94.9074 86.7902 93.4323 88.2026 91.6254 88.3417C64.0054 90.4766 35.9964 90.4766 8.37601 88.3417C6.57142 88.2028 5.09774 86.793 4.86957 84.9888C4.78968 84.255 4.16809 83.6842 3.41308 83.6842C2.60396 83.6842 1.94799 84.3402 1.94799 85.1493C1.94799 85.2103 1.9521 85.2745 1.96011 85.3374C1.9605 85.3406 1.96089 85.3435 1.96128 85.3466C2.3588 88.5294 4.96197 91.0177 8.15059 91.2632C8.69462 91.3052 9.23924 91.3451 9.78367 91.3855L9.54535 95.77C9.45569 97.4025 10.3623 98.8887 11.8549 99.556C12.3753 99.7887 12.9219 99.902 13.4626 99.902C14.4739 99.902 15.4641 99.5054 16.2185 98.752L22.7782 92.1925C31.8344 92.6455 40.9166 92.8733 50.0011 92.8733C59.0831 92.8733 68.167 92.6453 77.2236 92.1923L83.7838 98.7526C84.5379 99.5056 85.5277 99.902 86.539 99.902C87.0797 99.902 87.6265 99.7887 88.1469 99.556C89.6395 98.8887 90.5461 97.4025 90.4564 95.7708L90.2181 91.3853C90.7623 91.3449 91.3068 91.3052 91.8506 91.2632C95.0396 91.0177 97.6428 88.5294 98.0405 85.3464C100.653 64.4203 100.653 43.1982 98.0405 22.2697ZM14.1473 96.6794C13.7154 97.1107 13.2366 96.9642 13.0508 96.8812C12.8654 96.7983 12.4376 96.5397 12.471 95.93L12.7066 91.5949C14.7509 91.7354 16.7969 91.8651 18.8444 91.9823L14.1473 96.6794ZM87.5308 95.9306C87.5642 96.5395 87.1364 96.7981 86.951 96.881C86.765 96.964 86.2864 97.1105 85.8551 96.68L81.1572 91.9821C83.205 91.8647 85.2509 91.7352 87.2952 91.5947L87.5308 95.9306Z" fill="white"/>
    </g>
    <defs>
    <clipPath id="clip0_1205_2304">
    <rect width="100" height="100" fill="white"/>
    </clipPath>
    </defs>
    </svg>
    