<svg id="fi_12429418" enable-background="new 0 0 512 512" viewBox="0 0 512 512" xmlns="http://www.w3.org/2000/svg"><path d="m469.356 290.585h-54.612c-9.177 0-16.644 7.466-16.644 16.644v17.375h-45.812v-80.542h13.774c32.041 0 58.108-26.067 58.108-58.108 0-31.56-25.291-57.325-56.67-58.091-1.054-49.355-41.53-89.178-91.134-89.178s-90.079 39.823-91.133 89.178c-31.379.767-56.67 26.531-56.67 58.091 0 32.041 26.067 58.108 58.108 58.108h15.115v80.542h-17.548v-28.086c0-2.761-2.238-5-5-5h-148.238c-2.762 0-5 2.239-5 5v92.824c0 2.761 2.238 5 5 5h70.905v11.42h-37.172c-2.762 0-5 2.239-5 5s2.238 5 5 5h84.345c2.762 0 5-2.239 5-5s-2.238-5-5-5h-37.173v-11.42h67.336c2.762 0 5-2.239 5-5v-54.737h22.548c2.762 0 5-2.239 5-5v-85.542h16.608c10.091 13.191 25.485 22.106 42.972 23.547v90.462h-40.701c-11.431 0-20.73 9.3-20.73 20.731v73.781c0 11.431 9.3 20.731 20.73 20.731h121.006c11.431 0 20.73-9.3 20.73-20.731v-73.781c0-11.431-9.3-20.731-20.73-20.731h-70.305v-90.462c17.486-1.442 32.88-10.357 42.971-23.547h17.949v85.542c0 2.761 2.238 5 5 5h50.812v72.547c0 9.177 7.467 16.644 16.644 16.644h54.612c9.177 0 16.644-7.466 16.644-16.644v-99.922c-.001-9.178-7.468-16.645-16.645-16.645zm-295.115 93.757h-138.241v-82.824h138.241zm177.433 78.973h-121.006c-5.917 0-10.73-4.814-10.73-10.731v-.02h142.467v.02c-.001 5.917-4.814 10.731-10.731 10.731zm10.73-84.512v63.762h-142.466v-63.762c0-5.917 4.813-10.731 10.73-10.731h121.006c5.917 0 10.73 4.814 10.73 10.731zm-86.035-120.97c-27.78 0-50.382-22.601-50.382-50.382s22.602-50.382 50.382-50.382 50.381 22.601 50.381 50.382-22.601 50.382-50.381 50.382zm0-110.763c-33.295 0-60.382 27.087-60.382 60.382 0 9.547 2.236 18.578 6.198 26.611h-35.511c-26.527 0-48.108-21.582-48.108-48.108 0-26.527 21.581-48.109 48.108-48.109 1.043 0 2.143.038 3.27.113 1.412.1 2.798-.415 3.813-1.399 1.016-.985 1.566-2.354 1.517-3.768-.035-.98-.06-1.963-.06-2.952 0-44.749 36.405-81.155 81.154-81.155s81.155 36.406 81.155 81.155c0 .989-.024 1.972-.06 2.952-.05 1.414.501 2.783 1.517 3.768 1.016.984 2.383 1.5 3.814 1.399 1.125-.075 2.225-.113 3.269-.113 26.527 0 48.108 21.582 48.108 48.109s-21.581 48.108-48.108 48.108h-35.511c3.962-8.034 6.198-17.065 6.198-26.611 0-33.295-27.087-60.382-60.381-60.382zm199.631 260.081c0 3.663-2.98 6.644-6.644 6.644h-54.612c-3.663 0-6.644-2.98-6.644-6.644v-99.922c0-3.663 2.98-6.644 6.644-6.644h54.612c3.663 0 6.644 2.98 6.644 6.644zm-174.338-188.105c0 9.15-7.444 16.594-16.594 16.594h-3.699v7.549c0 2.761-2.238 5-5 5s-5-2.239-5-5v-7.549h-12.868c-2.762 0-5-2.239-5-5s2.238-5 5-5h26.567c3.636 0 6.594-2.958 6.594-6.594s-2.958-6.594-6.594-6.594h-17.399c-9.149 0-16.594-7.444-16.594-16.594s7.444-16.594 16.594-16.594h3.7v-7.549c0-2.761 2.238-5 5-5s5 2.239 5 5v7.549h12.867c2.762 0 5 2.239 5 5s-2.238 5-5 5h-26.567c-3.636 0-6.594 2.958-6.594 6.594s2.958 6.594 6.594 6.594h17.399c9.15 0 16.594 7.444 16.594 16.594z"></path></svg>