<svg width="31" height="31" viewBox="0 0 31 31" fill="none" xmlns="http://www.w3.org/2000/svg">
<g clip-path="url(#clip0_1193_27)">
<path d="M26.5107 12.0041L6.23267 0.463052C4.08167 -0.764948 1.88867 0.578052 1.88867 2.99305V27.0861C1.88867 29.1321 3.22067 30.0651 4.45867 30.0651C5.04167 30.0651 5.63567 29.8811 6.22567 29.5221L26.5947 17.0541C27.6187 16.4251 28.1937 15.4941 28.1757 14.4991C28.1587 13.5031 27.5527 12.5931 26.5107 12.0041ZM25.2297 14.8271L4.86167 27.2921C4.72467 27.3761 4.61667 27.4181 4.54267 27.4391C4.52267 27.3651 4.50267 27.2511 4.50267 27.0861V2.99405C4.50267 2.74605 4.54767 2.62105 4.54767 2.59005C4.62767 2.59505 4.76767 2.63605 4.94367 2.73605L25.2187 14.2771C25.4687 14.4201 25.5427 14.5441 25.5667 14.5171C25.5537 14.5511 25.4687 14.6781 25.2297 14.8271Z" fill="#000"/>
</g>
<defs>
<clipPath id="clip0_1193_27">
<rect width="30.065" height="30.065" fill="#000"/>
</clipPath>
</defs>
</svg>
