<svg id="fi_17399273" enable-background="new 0 0 24 24" viewBox="0 0 24 24" xmlns="http://www.w3.org/2000/svg"><g><path d="m20 20.6c-.1 0-.3 0-.4-.1-.3-.2-.3-.6-.1-.8 1.2-1.6 1.9-3.6 1.9-5.6 0-5.2-4.2-9.4-9.4-9.4s-9.4 4.2-9.4 9.4c0 2.1.7 4 1.9 5.6.2.3.1.6-.1.8-.3.2-.6.1-.8-.1-1.4-1.8-2.1-4-2.1-6.4-.1-5.8 4.7-10.6 10.5-10.6s10.6 4.8 10.6 10.6c0 2.3-.7 4.5-2.1 6.4-.1.1-.3.2-.5.2z" fill="rgb(0,0,0)"></path></g><g><path d="m12 15.6c-.9 0-1.6-.7-1.6-1.6s.7-1.6 1.6-1.6 1.6.7 1.6 1.6-.7 1.6-1.6 1.6zm0-2c-.2 0-.4.2-.4.4s.2.4.4.4.4-.2.4-.4-.2-.4-.4-.4z" fill="rgb(0,0,0)"></path></g><g><path d="m12.7 13.9c-.2 0-.3-.1-.4-.2-.2-.2-.2-.6 0-.8l4.3-4.3c.2-.2.6-.2.8 0s.2.6 0 .8l-4.3 4.3c-.1.1-.2.2-.4.2z" fill="rgb(0,0,0)"></path></g><g><path d="m16.5 19.6h-9c-.3 0-.6-.3-.6-.6s.3-.6.6-.6h9c.3 0 .6.3.6.6s-.3.6-.6.6z" fill="rgb(0,0,0)"></path></g><g><path d="m16.6 16.6c-.1 0-.2 0-.2-.1-.3-.1-.4-.5-.3-.8.2-.6.4-1.1.4-1.8 0-.2 0-.4 0-.6 0-.3.2-.6.5-.7.3 0 .6.2.7.5 0 .3.1.5.1.8 0 .8-.2 1.5-.5 2.2-.3.4-.5.5-.7.5z" fill="rgb(0,0,0)"></path></g><g><path d="m7.4 16.6c-.2 0-.5-.1-.5-.4-.3-.7-.5-1.5-.5-2.2 0-3.1 2.5-5.6 5.6-5.6.3 0 .5 0 .8.1.3 0 .6.3.5.7 0 .3-.3.6-.7.5-.2 0-.4 0-.6 0-2.4 0-4.4 2-4.4 4.4 0 .6.1 1.2.4 1.8.1.3 0 .7-.3.8-.1-.1-.2-.1-.3-.1z" fill="rgb(0,0,0)"></path></g></svg>