<svg width="32" height="32" viewBox="0 0 32 32" fill="none" xmlns="http://www.w3.org/2000/svg">
    <g clip-path="url(#clip0_1245_2)">
    <path d="M18.25 13.125H13.75C13.4048 13.125 13.125 13.4049 13.125 13.75V18.25C13.125 18.5951 13.4048 18.875 13.75 18.875H18.25C18.5952 18.875 18.875 18.5951 18.875 18.25V13.75C18.875 13.4049 18.5952 13.125 18.25 13.125ZM17.625 17.625H14.375V14.375H17.625V17.625Z" fill="#fff"/>
    <path d="M29.875 3.375C28.7033 3.375 27.75 4.32825 27.75 5.5C27.75 6.67175 28.7033 7.625 29.875 7.625C31.0467 7.625 32 6.67175 32 5.5C32 4.32825 31.0467 3.375 29.875 3.375ZM29.875 6.375C29.3925 6.375 29 5.9825 29 5.5C29 5.0175 29.3925 4.625 29.875 4.625C30.3575 4.625 30.75 5.0175 30.75 5.5C30.75 5.9825 30.3575 6.375 29.875 6.375Z" fill="#fff"/>
    <path d="M26.6616 5.05629C26.5454 4.94011 26.3841 4.87317 26.2197 4.87317C26.0547 4.87317 25.8935 4.94004 25.7772 5.05629C25.661 5.17254 25.5947 5.33379 25.5947 5.49817C25.5947 5.66254 25.661 5.82379 25.7772 5.94004C25.8941 6.05623 26.0547 6.12317 26.2197 6.12317C26.3841 6.12317 26.5454 6.05629 26.6616 5.94004C26.7779 5.82379 26.8447 5.66254 26.8447 5.49817C26.8447 5.33379 26.7779 5.17254 26.6616 5.05629Z" fill="#fff"/>
    <path d="M25.9709 16.625C26.2384 17.4927 27.0477 18.125 28.0019 18.125C29.1737 18.125 30.1269 17.1717 30.1269 16C30.1269 14.8283 29.1736 13.875 28.0019 13.875C27.0476 13.875 26.2384 14.5073 25.9709 15.375H22.125V10.5C22.125 10.1549 21.8452 9.875 21.5 9.875H20.5V6.12313H24.0014C24.3465 6.12313 24.6264 5.84325 24.6264 5.49813C24.6264 5.153 24.3465 4.87313 24.0014 4.87313H19.875C19.5298 4.87313 19.25 5.153 19.25 5.49813V9.875H16.625V6.02919C17.4926 5.76163 18.125 4.95244 18.125 3.99813C18.125 2.82638 17.1717 1.87312 16 1.87312C14.8282 1.87312 13.875 2.82638 13.875 3.99813C13.875 4.95244 14.5074 5.76169 15.375 6.02919V9.875H10.5C10.1548 9.875 9.87498 10.1549 9.87498 10.5V11.5H6.12305V4.15662C6.99167 3.88969 7.62498 3.08 7.62498 2.125C7.62498 0.95325 6.67173 0 5.49998 0C4.32823 0 3.37498 0.95325 3.37498 2.125C3.37498 3.07863 4.00642 3.88737 4.87305 4.1555V12.125C4.87305 12.4701 5.15286 12.75 5.49805 12.75H9.87498V15.375H6.02911C5.76155 14.5073 4.9523 13.875 3.99805 13.875C2.8263 13.875 1.87305 14.8283 1.87305 16C1.87305 17.1717 2.8263 18.125 3.99805 18.125C4.95236 18.125 5.76161 17.4927 6.02911 16.625H9.87498V21.5C9.87498 21.8451 10.1548 22.125 10.5 22.125H11.5V25.8769H7.99861C7.65342 25.8769 7.37361 26.1567 7.37361 26.5019C7.37361 26.847 7.65342 27.1269 7.99861 27.1269H12.125C12.4702 27.1269 12.75 26.847 12.75 26.5019V22.125H15.375V25.9708C14.5074 26.2384 13.875 27.0476 13.875 28.0019C13.875 29.1736 14.8282 30.1269 16 30.1269C17.1717 30.1269 18.125 29.1736 18.125 28.0019C18.125 27.0476 17.4926 26.2383 16.625 25.9708V22.125H21.5C21.8452 22.125 22.125 21.8451 22.125 21.5V20.5H25.8769V27.8434C25.0083 28.1103 24.375 28.92 24.375 29.875C24.375 31.0467 25.3282 32 26.5 32C27.6717 32 28.625 31.0467 28.625 29.875C28.625 28.9214 27.9935 28.1126 27.1269 27.8445V19.875C27.1269 19.5299 26.8471 19.25 26.5019 19.25H22.125V16.625H25.9709ZM28.0019 15.125C28.4844 15.125 28.8769 15.5175 28.8769 16C28.8769 16.4825 28.4844 16.875 28.0019 16.875C27.5194 16.875 27.1269 16.4825 27.1269 16C27.1269 15.5175 27.5194 15.125 28.0019 15.125ZM5.49998 3C5.01748 3 4.62498 2.6075 4.62498 2.125C4.62498 1.6425 5.01748 1.25 5.49998 1.25C5.98248 1.25 6.37498 1.6425 6.37498 2.125C6.37498 2.6075 5.98248 3 5.49998 3ZM3.99805 16.875C3.51555 16.875 3.12305 16.4825 3.12305 16C3.12305 15.5175 3.51555 15.125 3.99805 15.125C4.48055 15.125 4.87305 15.5175 4.87305 16C4.87305 16.4825 4.48055 16.875 3.99805 16.875ZM15.125 3.99813C15.125 3.51563 15.5175 3.12313 16 3.12313C16.4825 3.12313 16.875 3.51563 16.875 3.99813C16.875 4.48063 16.4825 4.87313 16 4.87313C15.5175 4.87313 15.125 4.48063 15.125 3.99813ZM16.875 28.0019C16.875 28.4844 16.4825 28.8769 16 28.8769C15.5175 28.8769 15.125 28.4844 15.125 28.0019C15.125 27.5194 15.5175 27.1269 16 27.1269C16.4825 27.1269 16.875 27.5194 16.875 28.0019ZM20.875 20.875H11.125V11.125H20.875V20.875ZM26.5 29C26.9825 29 27.375 29.3925 27.375 29.875C27.375 30.3575 26.9825 30.75 26.5 30.75C26.0175 30.75 25.625 30.3575 25.625 29.875C25.625 29.3925 26.0175 29 26.5 29Z" fill="#fff"/>
    <path d="M2.125 24.375C0.95325 24.375 0 25.3283 0 26.5C0 27.6717 0.95325 28.625 2.125 28.625C3.29675 28.625 4.25 27.6717 4.25 26.5C4.25 25.3283 3.29675 24.375 2.125 24.375ZM2.125 27.375C1.6425 27.375 1.25 26.9825 1.25 26.5C1.25 26.0175 1.6425 25.625 2.125 25.625C2.6075 25.625 3 26.0175 3 26.5C3 26.9825 2.6075 27.375 2.125 27.375Z" fill="#fff"/>
    <path d="M6.22312 26.06C6.10687 25.9437 5.94563 25.8768 5.78125 25.8768C5.61687 25.8768 5.45563 25.9436 5.33938 26.06C5.22313 26.1761 5.15625 26.3374 5.15625 26.5018C5.15625 26.6662 5.22313 26.8275 5.33938 26.9436C5.45563 27.0599 5.61687 27.1268 5.78125 27.1268C5.94563 27.1268 6.10687 27.06 6.22312 26.9436C6.33937 26.8275 6.40625 26.6662 6.40625 26.5018C6.40625 26.3374 6.33937 26.1761 6.22312 26.06Z" fill="#fff"/>
    </g>
    <defs>
    <clipPath id="clip0_1245_2">
    <rect width="32" height="32" fill="white"/>
    </clipPath>
    </defs>
    </svg>
    