<svg width="30" height="30" viewBox="0 0 30 30" fill="none" xmlns="http://www.w3.org/2000/svg">
    <path d="M17.5432 9.20556C16.1411 7.80347 13.8597 7.80347 12.4576 9.20556C11.7783 9.88477 11.4043 10.7878 11.4043 11.7483C11.4043 12.7089 11.7783 13.6119 12.4576 14.2911C13.1586 14.9922 14.0795 15.3428 15.0004 15.3428C15.9212 15.3428 16.8421 14.9923 17.5432 14.2911C18.2224 13.6119 18.5964 12.7089 18.5964 11.7483C18.5964 10.7878 18.2224 9.88477 17.5432 9.20556Z" fill="#FF2B00"/>
    <path d="M21.7657 5.36996C21.4071 5.01136 20.8258 5.01136 20.4672 5.36996C20.1086 5.72855 20.1086 6.30992 20.4672 6.66845C23.2683 9.46952 23.2683 14.0272 20.4672 16.8283C20.1086 17.1869 20.1086 17.7683 20.4672 18.1268C20.6464 18.3061 20.8814 18.3957 21.1164 18.3957C21.3513 18.3957 21.5863 18.3061 21.7657 18.1268C25.2827 14.6097 25.2828 8.88698 21.7657 5.36996Z" fill="#FF2B00"/>
    <path d="M25.7198 1.41569C25.3612 1.05716 24.7798 1.05716 24.4213 1.41569C24.0627 1.77428 24.0627 2.35565 24.4213 2.71418C29.4027 7.69564 29.4027 15.8011 24.4213 20.7826C24.0627 21.1412 24.0627 21.7225 24.4213 22.0811C24.6005 22.2604 24.8355 22.35 25.0705 22.35C25.3055 22.35 25.5405 22.2604 25.7198 22.0811C28.4797 19.3211 29.9998 15.6516 29.9998 11.7484C29.9998 7.84517 28.4798 4.17563 25.7198 1.41569Z" fill="#FF2B00"/>
    <path d="M9.53296 6.66835C9.89156 6.30975 9.89156 5.72839 9.53296 5.36985C9.17437 5.01132 8.593 5.01132 8.23447 5.36985C4.71739 8.88694 4.71745 14.6097 8.23447 18.1266C8.41371 18.3059 8.64867 18.3956 8.88369 18.3956C9.11871 18.3956 9.35367 18.3059 9.53296 18.1266C9.89156 17.768 9.89156 17.1867 9.53296 16.8281C6.73189 14.0272 6.73189 9.46953 9.53296 6.66835Z" fill="#FF2B00"/>
    <path d="M5.57841 2.71418C5.937 2.35559 5.937 1.77422 5.57841 1.41569C5.21981 1.05716 4.63845 1.05716 4.27991 1.41569C1.51998 4.17569 0 7.84511 0 11.7483C0 15.6515 1.51998 19.321 4.27997 22.081C4.45921 22.2603 4.69417 22.3499 4.92919 22.3499C5.16415 22.3499 5.39917 22.2603 5.57847 22.081C5.93706 21.7224 5.93706 21.1411 5.57847 20.7825C0.597011 15.8011 0.597011 7.6957 5.57841 2.71418Z" fill="#FF2B00"/>
    <path d="M15.0002 17.179C14.6891 17.179 14.3825 17.1516 14.082 17.1008V27.935C14.082 28.4421 14.4931 28.8532 15.0002 28.8532C15.5073 28.8532 15.9184 28.4421 15.9184 27.935V17.1008C15.6178 17.1516 15.3113 17.179 15.0002 17.179Z" fill="#FF2B00"/>
    </svg>
    