<svg width="100" height="100" viewBox="0 0 100 100" fill="none" xmlns="http://www.w3.org/2000/svg">
    <path d="M95.2525 67.1447C94.5932 65.1982 93.0199 63.785 90.8227 63.1654C88.4713 62.5023 85.4176 62.7125 81.7455 63.7898L65.1568 68.6564C65.0945 68.5324 65.0283 68.4096 64.958 68.2881C64.018 66.6598 62.5055 65.4965 60.6994 65.0125L48.8834 61.8465C40.2227 55.7818 35.5799 57.5256 28.7541 60.8633C25.5234 62.443 22.3168 63.9697 19.2832 65.4035L18.6732 63.9387C17.8065 61.8564 15.4063 60.8664 13.3232 61.7312L6.9336 64.3846C5.90801 64.8103 5.14219 65.5777 4.71837 66.6047C4.29512 67.6311 4.29708 68.7154 4.72383 69.74L15.544 95.7223C16.1982 97.2932 17.7248 98.2424 19.3299 98.2424C19.852 98.2424 20.3826 98.1418 20.894 97.9295L27.284 95.2762C28.3094 94.8504 29.0752 94.0828 29.4986 93.0564C29.9221 92.0303 29.9203 90.9461 29.4936 89.9209L28.7967 88.2477L32.8961 86.2547C34.399 85.5236 35.9106 85.3953 37.5154 85.8609L50.8065 89.7201C51.793 90.0066 52.8115 90.1291 53.8447 90.1291C57.3912 90.1289 61.1029 88.6846 64.2234 87.4703C64.4975 87.3637 89.9736 77.5451 89.9736 77.5451C94.0484 75.9748 96.5645 71.0178 95.2525 67.1447ZM26.9717 92.0135C26.8229 92.3738 26.5961 92.6014 26.2359 92.7508L19.8459 95.4041C19.1543 95.6912 18.3568 95.3625 18.0688 94.6709L7.24864 68.6889C7.09864 68.3289 7.09805 68.0076 7.24669 67.6473C7.39551 67.2869 7.62227 67.0596 7.98262 66.91L14.3725 64.2564C14.5422 64.1859 14.7184 64.1525 14.892 64.1525C15.425 64.1525 15.9322 64.468 16.1494 64.9897L26.9695 90.9717C27.1195 91.3318 27.1201 91.6531 26.9717 92.0135ZM88.991 74.9934C88.991 74.9934 63.5092 84.8139 63.232 84.9217C59.5877 86.34 55.0524 88.1051 51.5695 87.0939L38.2783 83.2348C36.024 82.5805 33.8111 82.7691 31.7008 83.7953L27.7441 85.7189L20.3359 67.9303C23.4125 66.4764 26.6697 64.9264 29.9557 63.3195C36.2873 60.2234 39.9432 58.8574 47.5041 64.2191C47.6363 64.3129 47.7844 64.3824 47.941 64.4244L59.992 67.6537C61.0926 67.9484 62.015 68.6594 62.5902 69.6553C63.165 70.6512 63.3193 71.8057 63.0246 72.9062C62.4127 75.1904 60.0567 76.5504 57.7721 75.9387L41.7566 71.6473C41.0274 71.452 40.2775 71.8848 40.0822 72.6141C39.8869 73.3434 40.3197 74.093 41.049 74.2885L57.0645 78.5799C58.8697 79.0637 60.7615 78.8127 62.3902 77.8723C64.0188 76.9322 65.182 75.4197 65.6658 73.6139C65.8715 72.8463 65.9443 72.0635 65.8879 71.2916L82.5154 66.4137C87.9848 64.8094 91.7781 65.4104 92.6627 68.0221C93.5029 70.5025 91.6842 73.9555 88.991 74.9934ZM36.1559 20.3637L48.0805 30.1916L44.2102 45.1518C44.0695 45.6957 44.2758 46.2701 44.7303 46.6004C45.1848 46.9307 45.7949 46.949 46.2686 46.6473L59.3004 38.3432L72.3324 46.6473C72.557 46.7904 72.8123 46.8615 73.0672 46.8615C73.3496 46.8615 73.6318 46.774 73.8707 46.6004C74.3252 46.2703 74.5315 45.6957 74.3906 45.1518L70.5203 30.1916L82.4451 20.3637C82.8785 20.0064 83.0494 19.4203 82.8758 18.8861C82.7022 18.352 82.2195 17.9783 81.659 17.9439L66.2348 17.002L60.5727 2.62383C60.3664 2.10137 59.8619 1.75781 59.3002 1.75781C58.7385 1.75781 58.234 2.10137 58.0281 2.62402L52.366 17.0021L36.942 17.9441C36.3815 17.9783 35.8986 18.352 35.7252 18.8863C35.5518 19.4207 35.7223 20.0064 36.1559 20.3637ZM53.4024 19.6783C53.9328 19.6459 54.3965 19.3092 54.5912 18.8146L59.3002 6.85625L64.0092 18.8146C64.2039 19.3092 64.6676 19.6459 65.1981 19.6783L78.0266 20.4617L68.1086 28.6357C67.6984 28.9736 67.5215 29.5188 67.6547 30.0332L70.8736 42.4758L60.035 35.5693C59.8109 35.4266 59.5557 35.3551 59.3002 35.3551C59.0447 35.3551 58.7897 35.4266 58.5654 35.5693L47.727 42.4758L50.9459 30.0332C51.0789 29.5188 50.9018 28.9736 50.4918 28.6357L40.574 20.4617L53.4024 19.6783Z" fill="#FF2B00"/>
    </svg>
    