<svg width="259" height="298" viewBox="0 0 259 298" fill="none" xmlns="http://www.w3.org/2000/svg">
    <path d="M258.112 297.612H0.520508V0.391602L258.112 297.612Z" fill="white"/>
    <path d="M46.5506 266.337C49.5256 266.337 51.9372 263.926 51.9372 260.953C51.9372 257.98 49.5256 255.569 46.5506 255.569C43.5757 255.569 41.1641 257.98 41.1641 260.953C41.1641 263.926 43.5757 266.337 46.5506 266.337Z" fill="white"/>
    <path d="M77.9376 266.337C80.9125 266.337 83.3242 263.926 83.3242 260.953C83.3242 257.98 80.9125 255.569 77.9376 255.569C74.9627 255.569 72.551 257.98 72.551 260.953C72.551 263.926 74.9627 266.337 77.9376 266.337Z" fill="white"/>
    <path d="M109.327 266.337C112.301 266.337 114.713 263.926 114.713 260.953C114.713 257.98 112.301 255.569 109.327 255.569C106.352 255.569 103.94 257.98 103.94 260.953C103.94 263.926 106.352 266.337 109.327 266.337Z" fill="white"/>
    <path d="M140.713 266.337C143.688 266.337 146.1 263.926 146.1 260.953C146.1 257.98 143.688 255.569 140.713 255.569C137.739 255.569 135.327 257.98 135.327 260.953C135.327 263.926 137.739 266.337 140.713 266.337Z" fill="white"/>
    <path d="M172.1 266.337C175.075 266.337 177.487 263.926 177.487 260.953C177.487 257.98 175.075 255.569 172.1 255.569C169.126 255.569 166.714 257.98 166.714 260.953C166.714 263.926 169.126 266.337 172.1 266.337Z" fill="white"/>
    <path d="M203.489 266.337C206.464 266.337 208.876 263.926 208.876 260.953C208.876 257.98 206.464 255.569 203.489 255.569C200.514 255.569 198.103 257.98 198.103 260.953C198.103 263.926 200.514 266.337 203.489 266.337Z" fill="white"/>
    <path d="M234.876 266.337C237.851 266.337 240.263 263.926 240.263 260.953C240.263 257.98 237.851 255.569 234.876 255.569C231.901 255.569 229.49 257.98 229.49 260.953C229.49 263.926 231.901 266.337 234.876 266.337Z" fill="white"/>
    <path d="M48.5561 235.018C51.3118 233.897 52.6373 230.757 51.5166 228.002C50.396 225.248 47.2536 223.923 44.4979 225.043C41.7422 226.164 40.4168 229.304 41.5374 232.059C42.6581 234.813 45.8005 236.138 48.5561 235.018Z" fill="white"/>
    <path d="M79.9424 235.019C82.698 233.899 84.0235 230.758 82.9028 228.004C81.7822 225.249 78.6398 223.925 75.8841 225.045C73.1284 226.165 71.803 229.306 72.9237 232.06C74.0443 234.814 77.1867 236.139 79.9424 235.019Z" fill="white"/>
    <path d="M111.331 235.019C114.086 233.899 115.412 230.758 114.291 228.004C113.17 225.25 110.028 223.925 107.272 225.045C104.517 226.165 103.191 229.306 104.312 232.06C105.432 234.814 108.575 236.139 111.331 235.019Z" fill="white"/>
    <path d="M142.791 235.03C145.54 233.892 146.845 230.743 145.707 227.996C144.568 225.249 141.417 223.944 138.669 225.082C135.92 226.22 134.615 229.37 135.753 232.117C136.892 234.864 140.043 236.168 142.791 235.03Z" fill="white"/>
    <path d="M174.179 235.03C176.928 233.892 178.233 230.743 177.094 227.996C175.956 225.249 172.805 223.944 170.056 225.082C167.308 226.22 166.003 229.369 167.141 232.116C168.28 234.864 171.431 236.168 174.179 235.03Z" fill="white"/>
    <path d="M205.569 235.029C208.317 233.891 209.623 230.742 208.484 227.995C207.346 225.248 204.194 223.943 201.446 225.081C198.697 226.219 197.392 229.368 198.531 232.115C199.669 234.863 202.82 236.167 205.569 235.029Z" fill="white"/>
    <path d="M236.956 235.029C239.705 233.891 241.01 230.742 239.872 227.994C238.733 225.247 235.582 223.943 232.834 225.081C230.085 226.219 228.78 229.368 229.918 232.115C231.057 234.862 234.208 236.167 236.956 235.029Z" fill="white"/>
    <path d="M46.5506 204.521C49.5256 204.521 51.9372 202.11 51.9372 199.137C51.9372 196.163 49.5256 193.753 46.5506 193.753C43.5757 193.753 41.1641 196.163 41.1641 199.137C41.1641 202.11 43.5757 204.521 46.5506 204.521Z" fill="white"/>
    <path d="M77.9376 204.521C80.9125 204.521 83.3242 202.11 83.3242 199.137C83.3242 196.163 80.9125 193.753 77.9376 193.753C74.9627 193.753 72.551 196.163 72.551 199.137C72.551 202.11 74.9627 204.521 77.9376 204.521Z" fill="white"/>
    <path d="M109.327 204.521C112.301 204.521 114.713 202.11 114.713 199.137C114.713 196.163 112.301 193.753 109.327 193.753C106.352 193.753 103.94 196.163 103.94 199.137C103.94 202.11 106.352 204.521 109.327 204.521Z" fill="white"/>
    <path d="M140.713 204.521C143.688 204.521 146.1 202.11 146.1 199.137C146.1 196.163 143.688 193.753 140.713 193.753C137.739 193.753 135.327 196.163 135.327 199.137C135.327 202.11 137.739 204.521 140.713 204.521Z" fill="white"/>
    <path d="M172.1 204.521C175.075 204.521 177.487 202.11 177.487 199.137C177.487 196.163 175.075 193.753 172.1 193.753C169.126 193.753 166.714 196.163 166.714 199.137C166.714 202.11 169.126 204.521 172.1 204.521Z" fill="white"/>
    <path d="M203.489 204.521C206.464 204.521 208.876 202.11 208.876 199.137C208.876 196.163 206.464 193.753 203.489 193.753C200.514 193.753 198.103 196.163 198.103 199.137C198.103 202.11 200.514 204.521 203.489 204.521Z" fill="white"/>
    <path d="M234.876 204.521C237.851 204.521 240.263 202.11 240.263 199.137C240.263 196.163 237.851 193.753 234.876 193.753C231.901 193.753 229.49 196.163 229.49 199.137C229.49 202.11 231.901 204.521 234.876 204.521Z" fill="white"/>
    <path d="M46.5506 173.613C49.5256 173.613 51.9372 171.202 51.9372 168.229C51.9372 165.255 49.5256 162.845 46.5506 162.845C43.5757 162.845 41.1641 165.255 41.1641 168.229C41.1641 171.202 43.5757 173.613 46.5506 173.613Z" fill="white"/>
    <path d="M77.9376 173.613C80.9125 173.613 83.3242 171.202 83.3242 168.229C83.3242 165.255 80.9125 162.845 77.9376 162.845C74.9627 162.845 72.551 165.255 72.551 168.229C72.551 171.202 74.9627 173.613 77.9376 173.613Z" fill="white"/>
    <path d="M109.327 173.613C112.301 173.613 114.713 171.202 114.713 168.229C114.713 165.255 112.301 162.845 109.327 162.845C106.352 162.845 103.94 165.255 103.94 168.229C103.94 171.202 106.352 173.613 109.327 173.613Z" fill="white"/>
    <path d="M140.713 173.613C143.688 173.613 146.1 171.202 146.1 168.229C146.1 165.255 143.688 162.845 140.713 162.845C137.739 162.845 135.327 165.255 135.327 168.229C135.327 171.202 137.739 173.613 140.713 173.613Z" fill="white"/>
    <path d="M172.1 173.613C175.075 173.613 177.487 171.202 177.487 168.229C177.487 165.255 175.075 162.845 172.1 162.845C169.126 162.845 166.714 165.255 166.714 168.229C166.714 171.202 169.126 173.613 172.1 173.613Z" fill="white"/>
    <path d="M203.489 173.613C206.464 173.613 208.876 171.202 208.876 168.229C208.876 165.255 206.464 162.845 203.489 162.845C200.514 162.845 198.103 165.255 198.103 168.229C198.103 171.202 200.514 173.613 203.489 173.613Z" fill="white"/>
    <path d="M234.876 173.613C237.851 173.613 240.263 171.202 240.263 168.229C240.263 165.255 237.851 162.845 234.876 162.845C231.901 162.845 229.49 165.255 229.49 168.229C229.49 171.202 231.901 173.613 234.876 173.613Z" fill="white"/>
    <path d="M46.5506 142.707C49.5256 142.707 51.9372 140.296 51.9372 137.323C51.9372 134.349 49.5256 131.939 46.5506 131.939C43.5757 131.939 41.1641 134.349 41.1641 137.323C41.1641 140.296 43.5757 142.707 46.5506 142.707Z" fill="white"/>
    <path d="M77.9376 142.707C80.9125 142.707 83.3242 140.296 83.3242 137.323C83.3242 134.349 80.9125 131.939 77.9376 131.939C74.9627 131.939 72.551 134.349 72.551 137.323C72.551 140.296 74.9627 142.707 77.9376 142.707Z" fill="white"/>
    <path d="M109.327 142.707C112.301 142.707 114.713 140.296 114.713 137.323C114.713 134.349 112.301 131.939 109.327 131.939C106.352 131.939 103.94 134.349 103.94 137.323C103.94 140.296 106.352 142.707 109.327 142.707Z" fill="white"/>
    <path d="M140.713 142.707C143.688 142.707 146.1 140.296 146.1 137.323C146.1 134.349 143.688 131.939 140.713 131.939C137.739 131.939 135.327 134.349 135.327 137.323C135.327 140.296 137.739 142.707 140.713 142.707Z" fill="white"/>
    <path d="M172.1 142.707C175.075 142.707 177.487 140.296 177.487 137.323C177.487 134.349 175.075 131.939 172.1 131.939C169.126 131.939 166.714 134.349 166.714 137.323C166.714 140.296 169.126 142.707 172.1 142.707Z" fill="white"/>
    <path d="M203.489 142.707C206.464 142.707 208.876 140.296 208.876 137.323C208.876 134.349 206.464 131.939 203.489 131.939C200.514 131.939 198.103 134.349 198.103 137.323C198.103 140.296 200.514 142.707 203.489 142.707Z" fill="white"/>
    <path d="M234.876 142.707C237.851 142.707 240.263 140.296 240.263 137.323C240.263 134.349 237.851 131.939 234.876 131.939C231.901 131.939 229.49 134.349 229.49 137.323C229.49 140.296 231.901 142.707 234.876 142.707Z" fill="white"/>
    <path d="M51.8724 107.267C52.3451 104.331 50.3473 101.568 47.4101 101.096C44.473 100.623 41.7088 102.62 41.2361 105.556C40.7633 108.491 42.7611 111.254 45.6983 111.727C48.6354 112.199 51.3997 110.202 51.8724 107.267Z" fill="white"/>
    <path d="M83.2598 107.267C83.7325 104.331 81.7347 101.568 78.7976 101.096C75.8604 100.623 73.0962 102.62 72.6235 105.556C72.1508 108.492 74.1486 111.254 77.0857 111.727C80.0229 112.199 82.7871 110.203 83.2598 107.267Z" fill="white"/>
    <path d="M114.648 107.265C115.12 104.33 113.122 101.567 110.185 101.094C107.248 100.622 104.484 102.619 104.011 105.554C103.538 108.49 105.536 111.253 108.473 111.725C111.411 112.198 114.175 110.201 114.648 107.265Z" fill="white"/>
    <path d="M146.043 107.285C146.519 104.35 144.525 101.585 141.588 101.108C138.652 100.632 135.885 102.625 135.408 105.56C134.932 108.495 136.926 111.261 139.862 111.737C142.799 112.213 145.566 110.22 146.043 107.285Z" fill="white"/>
    <path d="M177.431 107.285C177.907 104.35 175.913 101.585 172.977 101.108C170.04 100.632 167.273 102.625 166.797 105.56C166.32 108.495 168.314 111.261 171.251 111.737C174.187 112.214 176.954 110.22 177.431 107.285Z" fill="white"/>
    <path d="M208.819 107.284C209.295 104.349 207.301 101.583 204.365 101.107C201.428 100.63 198.661 102.624 198.185 105.559C197.708 108.494 199.702 111.259 202.639 111.736C205.575 112.212 208.342 110.219 208.819 107.284Z" fill="white"/>
    <path d="M240.207 107.284C240.684 104.349 238.689 101.583 235.753 101.107C232.816 100.631 230.049 102.624 229.573 105.559C229.096 108.494 231.09 111.259 234.027 111.736C236.964 112.212 239.73 110.219 240.207 107.284Z" fill="white"/>
    <path d="M46.5506 80.8905C49.5256 80.8905 51.9372 78.4801 51.9372 75.5067C51.9372 72.5332 49.5256 70.1228 46.5506 70.1228C43.5757 70.1228 41.1641 72.5332 41.1641 75.5067C41.1641 78.4801 43.5757 80.8905 46.5506 80.8905Z" fill="white"/>
    <path d="M77.9376 80.8905C80.9125 80.8905 83.3242 78.4801 83.3242 75.5067C83.3242 72.5332 80.9125 70.1228 77.9376 70.1228C74.9627 70.1228 72.551 72.5332 72.551 75.5067C72.551 78.4801 74.9627 80.8905 77.9376 80.8905Z" fill="white"/>
    <path d="M109.327 80.8905C112.301 80.8905 114.713 78.4801 114.713 75.5067C114.713 72.5332 112.301 70.1228 109.327 70.1228C106.352 70.1228 103.94 72.5332 103.94 75.5067C103.94 78.4801 106.352 80.8905 109.327 80.8905Z" fill="white"/>
    <path d="M140.713 80.8905C143.688 80.8905 146.1 78.4801 146.1 75.5067C146.1 72.5332 143.688 70.1228 140.713 70.1228C137.739 70.1228 135.327 72.5332 135.327 75.5067C135.327 78.4801 137.739 80.8905 140.713 80.8905Z" fill="white"/>
    <path d="M172.1 80.8905C175.075 80.8905 177.487 78.4801 177.487 75.5067C177.487 72.5332 175.075 70.1228 172.1 70.1228C169.126 70.1228 166.714 72.5332 166.714 75.5067C166.714 78.4801 169.126 80.8905 172.1 80.8905Z" fill="white"/>
    <path d="M203.489 80.8905C206.464 80.8905 208.876 78.4801 208.876 75.5067C208.876 72.5332 206.464 70.1228 203.489 70.1228C200.514 70.1228 198.103 72.5332 198.103 75.5067C198.103 78.4801 200.514 80.8905 203.489 80.8905Z" fill="white"/>
    <path d="M234.876 80.8905C237.851 80.8905 240.263 78.4801 240.263 75.5067C240.263 72.5332 237.851 70.1228 234.876 70.1228C231.901 70.1228 229.49 72.5332 229.49 75.5067C229.49 78.4801 231.901 80.8905 234.876 80.8905Z" fill="white"/>
    </svg>
    